<?xml version="1.0" standalone="no"?>
  <!DOCTYPE svg PUBLIC "-//W3C//DTD SVG 1.1//EN" "http://www.w3.org/Graphics/SVG/1.1/DTD/svg11.dtd" >
  <svg>
  <metadata>
  Created by font-carrier
  </metadata>
  <defs>
  <font id="CeraPro-Regular" horiz-adv-x="1352" vert-adv-y="1352" >
    <font-face
      
      font-family="Cera Pro"
      
      font-weight="400"
      
      font-stretch="normal"
      
      units-per-em="1000"
      
      ascent="808"
      
      descent="-192"
      
    />
      <missing-glyph />

      

      
      <glyph glyph-name="uni21" unicode="&#x21;" d="M120 209L105 660L198 660L184 209L120 209M107.50 7Q107.50 7 98.25 16Q89 25 89 52Q89 79 107.50 97Q126 115 152 115Q179 115 197 97Q215 79 215 52Q215 25 197 7Q179-11 152-11Q126-11 107.50 7Z"  horiz-adv-x="305" vert-adv-y="1000"  />

      
      <glyph glyph-name="uni22" unicode="&#x22;" d="M94 403L108 660L198 660L155 403L94 403M277 403L291 660L381 660L338 403L277 403Z"  horiz-adv-x="463" vert-adv-y="1000"  />

      
      <glyph glyph-name="uni23" unicode="&#x23;" d="M569 421L472 421L448 239L546 239L546 173L439 173L415 0L350 0L373 173L182 173L158 0L93 0L116 173L28 173L28 239L125 239L149 421L52 421L52 487L158 487L181 660L248 660L224 487L415 487L438 660L505 660L481 487L569 487L569 421M191 239L382 239L406 421L215 421L191 239Z"  horiz-adv-x="597" vert-adv-y="1000"  />

      
      <glyph glyph-name="uni24" unicode="&#x24;" d="M306 23L306-94L229-94L229 24Q109 41 40 161L96 201Q164 90 272 90Q327 90 361 115.50Q395 141 395 185Q395 219 371.50 242Q348 265 294 290L223 320Q154 349 119 386.50Q84 424 84 481Q84 540 124 580.50Q164 621 229 631L229 750L306 750L306 633Q405 619 460 526L407 485Q355 565 272 565Q225 565 193.50 543.50Q162 522 162 482Q162 448 182.50 428Q203 408 255 383L328 353Q401 323 437 283Q473 243 473 186Q473 120 427 76Q381 32 306 23Z"  horiz-adv-x="536" vert-adv-y="1000"  />

      
      <glyph glyph-name="uni25" unicode="&#x25;" d="M114 396Q114 396 90 419.50Q66 443 66 510Q66 577 114 624Q162 671 230 671Q297 671 345 624Q393 577 393 510Q393 443 345 396Q297 349 230 349Q162 349 114 396M198 0L576 660L645 660L267 0L198 0M301 436Q301 436 315 451Q329 466 329 510Q329 554 301 584Q273 614 230 614Q187 614 159 584.50Q131 555 131 510Q131 465 159 435.50Q187 406 230 406Q273 406 301 436M497 37Q497 37 473.50 60.50Q450 84 450 151Q450 218 497 265Q544 312 612 312Q680 312 728 265Q776 218 776 151Q776 84 728 37Q680-10 612-10Q544-10 497 37M711 151Q711 196 683 225.50Q655 255 613 255Q570 255 542 225.50Q514 196 514 151Q514 107 542 77.50Q570 48 613 48Q655 48 683 77.50Q711 107 711 151Z"  horiz-adv-x="842" vert-adv-y="1000"  />

      
      <glyph glyph-name="uni26" unicode="&#x26;" d="M602 292L591 275Q536 191 491 130L600 0L506 0L443 75Q357-11 252-11Q164-11 107 38Q50 87 50 161Q50 214 83 260Q117 306 199 367Q161 416 144.50 451.50Q128 487 128 526Q128 591 168.50 631Q209 671 275 671Q338 671 379 632Q420 594 420 535Q420 450 302 358L442 190Q472 232 507 287L538 334L602 292M204 526Q204 478 260 409Q306 446 325 474Q344 502 344 532Q344 564 325.50 582Q307 600 275 600Q204 600 204 526M395 133L244 314Q174 259 153 232Q132 205 132 168Q132 121 166.50 91Q201 61 254 61Q329 61 395 133Z"  horiz-adv-x="625" vert-adv-y="1000"  />

      
      <glyph glyph-name="uni27" unicode="&#x27;" d="M94 403L108 660L198 660L155 403L94 403Z"  horiz-adv-x="280" vert-adv-y="1000"  />

      
      <glyph glyph-name="uni28" unicode="&#x28;" d="M78 301Q78 485 133 588Q189 694 272 734L305 681Q154 584 154 301Q154 16 305-78L272-131Q189-91 133 14Q78 118 78 301Z"  horiz-adv-x="333" vert-adv-y="1000"  />

      
      <glyph glyph-name="uni29" unicode="&#x29;" d="M62-131L28-78Q180 17 180 301Q180 582 28 681L62 734Q144 694 200 588Q255 485 255 301Q255 117 200 14Q144-91 62-131Z"  horiz-adv-x="333" vert-adv-y="1000"  />

      
      <glyph glyph-name="uni2a" unicode="&#x2a;" d="M364 644L270 580L364 516L339 475L237 524L229 411L181 411L172 524L70 475L46 516L140 580L46 644L70 686L172 637L181 750L229 750L237 637L339 686L364 644Z"  horiz-adv-x="410" vert-adv-y="1000"  />

      
      <glyph glyph-name="uni2b" unicode="&#x2b;" d="M244 88L244 281L56 281L56 349L244 349L244 539L320 539L320 349L503 349L503 281L320 281L320 88L244 88Z"  horiz-adv-x="560" vert-adv-y="1000"  />

      
      <glyph glyph-name="uni2c" unicode="&#x2c;" d="M90-179L103 90L194 90L153-179L90-179Z"  horiz-adv-x="280" vert-adv-y="1000"  />

      
      <glyph glyph-name="uni2d" unicode="&#x2d;" d="M53 282L53 347L292 347L292 282L53 282Z"  horiz-adv-x="346" vert-adv-y="1000"  />

      
      <glyph glyph-name="uni2e" unicode="&#x2e;" d="M95.50 7Q95.50 7 86.25 16Q77 25 77 52Q77 79 95.50 97Q114 115 140 115Q166 115 184.50 97Q203 79 203 52Q203 25 184.50 7Q166-11 140-11Q114-11 95.50 7Z"  horiz-adv-x="280" vert-adv-y="1000"  />

      
      <glyph glyph-name="uni2f" unicode="&#x2f;" d="M7-121L530 780L621 780L98-121L7-121Z"  horiz-adv-x="628" vert-adv-y="1000"  />

      
      <glyph glyph-name="uni30" unicode="&#x30;" d="M126 86Q66 184 66 336Q66 488 127 579Q189 671 308 671Q428 671 488 579Q549 488 549 336Q549 184 489 86Q429-11 308-11Q187-11 126 86M468 335Q468 599 308 599Q147 599 147 335Q147 205 187 133Q227 61 308 61Q389 61 428.50 133Q468 205 468 335Z"  horiz-adv-x="615" vert-adv-y="1000"  />

      
      <glyph glyph-name="uni31" unicode="&#x31;" d="M242 660L271 660L271 0L193 0L193 568L49 523L30 590L242 660Z"  horiz-adv-x="379" vert-adv-y="1000"  />

      
      <glyph glyph-name="uni32" unicode="&#x32;" d="M195 70L506 70L506 0L47 0L47 20L282 270Q346 337 372 379.50Q398 422 398 467Q398 523 363 561Q328 599 271 599Q211 599 175 559Q139 518 139 463Q139 435 145 408L65 408Q58 433 58 466Q58 548 118 609.50Q178 671 271 671Q361 671 420 613.50Q479 556 479 471Q479 424 460 383Q442 344 416 310Q390 276 341 224L195 70Z"  horiz-adv-x="560" vert-adv-y="1000"  />

      
      <glyph glyph-name="uni33" unicode="&#x33;" d="M484 209Q484 112 415.50 50.50Q347-11 250-11Q177-11 118.50 26.50Q60 64 26 126L81 165Q152 61 249 61Q317 61 360 101.50Q403 142 403 208Q403 272 359.50 308Q316 344 236 344L171 344L171 367L344 588L71 588L71 660L467 660L467 637L292 412Q372 404 428 350.50Q484 297 484 209Z"  horiz-adv-x="538" vert-adv-y="1000"  />

      
      <glyph glyph-name="uni34" unicode="&#x34;" d="M526 191L526 123L430 123L430 0L352 0L352 123L21 123L21 145L238 660L318 660L120 191L352 191L352 411L430 411L430 191L526 191Z"  horiz-adv-x="548" vert-adv-y="1000"  />

      
      <glyph glyph-name="uni35" unicode="&#x35;" d="M501 209Q501 112 432 50.50Q363-11 267-11Q191-11 132.50 25.50Q74 62 39 125L93 165Q161 61 266 61Q333 61 376.50 102Q420 143 420 208Q420 273 376.50 309Q333 345 252 345L103 345L103 660L464 660L464 590L181 590L181 405Q231 413 275 413Q372 413 436.50 360Q501 307 501 209Z"  horiz-adv-x="555" vert-adv-y="1000"  />

      
      <glyph glyph-name="uni36" unicode="&#x36;" d="M500 211Q500 117 434.50 53Q369-11 275-11Q181-11 115.50 53Q50 117 50 212Q50 262 68 303Q90 348 127 402Q131 407 135.50 413.50Q140 420 141 422L305 660L398 660L230 418Q254 427 285 427Q373 427 436.50 364Q500 301 500 211M423 211Q423 273 380 317Q337 361 275 361Q213 361 170 317Q127 273 127 211Q127 148 170 104Q213 60 275 60Q337 60 380 104Q423 148 423 211Z"  horiz-adv-x="551" vert-adv-y="1000"  />

      
      <glyph glyph-name="uni37" unicode="&#x37;" d="M35 660L476 660L476 637L142 0L57 0L371 590L35 590L35 660Z"  horiz-adv-x="501" vert-adv-y="1000"  />

      
      <glyph glyph-name="uni38" unicode="&#x38;" d="M520 168Q520 88 456.50 38.50Q393-11 289-11Q185-11 120.50 39Q56 89 56 169Q56 290 213 345Q87 403 87 507Q87 584 144 627Q203 671 289 671Q373 671 431 627Q489 584 489 507Q489 402 363 346Q520 288 520 168M288 382Q354 408 383 435.50Q412 463 412 504Q412 550 378 577Q344 604 289 604Q233 604 198.50 577Q164 550 164 504Q164 464 193 437Q222 410 288 382M441 171Q441 220 405.50 250Q370 280 289 309Q208 280 171.50 249.50Q135 219 135 171Q135 119 176 87.50Q217 56 289 56Q361 56 401 87Q441 118 441 171Z"  horiz-adv-x="578" vert-adv-y="1000"  />

      
      <glyph glyph-name="uni39" unicode="&#x39;" d="M500 448Q500 410 488 375Q478 343 461 317Q445 290 409 238L245 0L153 0L321 242Q297 233 265 233Q178 233 114 296Q50 359 50 449Q50 543 116 607Q182 671 276 671Q369 671 434.50 606.50Q500 542 500 448M423 450Q423 514 381 557Q339 600 276 600Q213 600 170 557Q127 514 127 450Q127 387 170 343Q213 299 276 299Q339 299 381 343Q423 387 423 450Z"  horiz-adv-x="551" vert-adv-y="1000"  />

      
      <glyph glyph-name="uni3a" unicode="&#x3a;" d="M95.50 384Q95.50 384 86.25 393Q77 402 77 429Q77 456 95.50 474Q114 492 140 492Q166 492 184.50 474Q203 456 203 429Q203 402 184.50 384Q166 366 140 366Q114 366 95.50 384M95.50 7Q95.50 7 86.25 16Q77 25 77 52Q77 79 95.50 97Q114 115 140 115Q166 115 184.50 97Q203 79 203 52Q203 25 184.50 7Q166-11 140-11Q114-11 95.50 7Z"  horiz-adv-x="280" vert-adv-y="1000"  />

      
      <glyph glyph-name="uni3b" unicode="&#x3b;" d="M95.50 384Q95.50 384 86.25 393Q77 402 77 429Q77 456 95.50 474Q114 492 140 492Q166 492 184.50 474Q203 456 203 429Q203 402 184.50 384Q166 366 140 366Q114 366 95.50 384M90-179L103 90L194 90L153-179L90-179Z"  horiz-adv-x="280" vert-adv-y="1000"  />

      
      <glyph glyph-name="uni3c" unicode="&#x3c;" d="M490 514L490 442L188 315L490 189L490 116L52 303L52 327L490 514Z"  horiz-adv-x="560" vert-adv-y="1000"  />

      
      <glyph glyph-name="uni3d" unicode="&#x3d;" d="M66 384L66 453L494 453L494 384L66 384M66 177L66 245L494 245L494 177L66 177Z"  horiz-adv-x="560" vert-adv-y="1000"  />

      
      <glyph glyph-name="uni3e" unicode="&#x3e;" d="M70 514L509 327L509 303L70 116L70 189L372 315L70 442L70 514Z"  horiz-adv-x="560" vert-adv-y="1000"  />

      
      <glyph glyph-name="uni3f" unicode="&#x3f;" d="M162 253Q162 285 180 310.50Q198 336 242 376Q287 418 303 441Q320 466 320 499Q320 543 292 571.50Q264 600 222 600Q140 600 110 504L45 531Q65 598 111.50 634.50Q158 671 224 671Q297 671 348.50 623Q400 575 400 504Q400 460 377.50 423.50Q355 387 305 342Q263 303 248.50 283.50Q234 264 234 241Q234 234 239 209L172 209Q162 228 162 253M166 7.50Q166 7.50 156.50 16.75Q147 26 147 52Q147 78 166 96.50Q185 115 210 115Q237 115 255.50 97Q274 79 274 52Q274 25 255.50 7Q237-11 210-11Q185-11 166 7.50Z"  horiz-adv-x="445" vert-adv-y="1000"  />

      
      <glyph glyph-name="uni40" unicode="&#x40;" d="M874 286Q874 170 803 103Q732 36 618 36L594 36L594 101Q571 65 530.50 45Q490 25 442 25Q357 25 300 86.50Q243 148 243 238Q243 328 300 389Q357 450 443 450Q538 450 588 384L588 442L660 442L660 104Q727 109 765.50 156.50Q804 204 804 286Q806 415 711.50 504Q617 593 475 591Q324 593 221 493.50Q118 394 120 247Q118 100 221 0Q324-100 469-98Q539-98 599-76L613-136Q544-163 462-163Q351-165 254.50-110.50Q158-56 102 39.50Q46 135 48 246Q46 359 103.50 455Q161 551 260 605Q359 659 473 657Q640 660 758.50 548.50Q877 437 874 286M547 134Q547 134 565.50 153Q584 172 584 239Q584 306 547.50 343.50Q511 381 455 381Q398 381 360 341Q322 301 322 238Q322 177 360 136Q397 96 455 96Q510 96 547 134Z"  horiz-adv-x="922" vert-adv-y="1000"  />

      
      <glyph glyph-name="uni41" unicode="&#x41;" d="M549 0L493 134L169 134L113 0L31 0L317 671L346 671L632 0L549 0M463 204L331 529L199 204L463 204Z"  horiz-adv-x="663" vert-adv-y="1000"  />

      
      <glyph glyph-name="uni42" unicode="&#x42;" d="M572 190Q572 106 515 53Q458 0 363 0L91 0L91 660L318 660Q403 660 455 613Q506 566 506 493Q506 412 443 363Q504 345 538 299.50Q572 254 572 190M310 590L169 590L169 385L310 385Q366 385 396 412.50Q426 440 426 488Q426 536 396 563Q366 590 310 590M455.50 103Q455.50 103 473.75 119.50Q492 136 492 192Q492 248 455.50 281Q419 314 355 314L169 314L169 70L355 70Q419 70 455.50 103Z"  horiz-adv-x="616" vert-adv-y="1000"  />

      
      <glyph glyph-name="uni43" unicode="&#x43;" d="M48 330Q45 471 147.50 572Q250 673 391 671Q478 671 550.50 633Q623 595 665 529L607 483Q526 599 392 599Q280 599 204.50 522Q129 445 129 330Q129 215 204.50 138Q280 61 392 61Q526 61 607 177L665 131Q623 65 550.50 27Q478-11 391-11Q250-13 147.50 88Q45 189 48 330Z"  horiz-adv-x="715" vert-adv-y="1000"  />

      
      <glyph glyph-name="uni44" unicode="&#x44;" d="M91 0L91 660L287 660Q451 660 548.50 568.50Q646 477 646 331Q646 186 548 93Q450 0 287 0L91 0M169 70L286 70Q414 70 489.50 143Q565 216 565 331Q565 447 490 518.50Q415 590 286 590L169 590L169 70Z"  horiz-adv-x="694" vert-adv-y="1000"  />

      
      <glyph glyph-name="uni45" unicode="&#x45;" d="M91 0L91 660L514 660L514 590L169 590L169 388L433 388L433 318L169 318L169 70L526 70L526 0L91 0Z"  horiz-adv-x="566" vert-adv-y="1000"  />

      
      <glyph glyph-name="uni46" unicode="&#x46;" d="M91 0L91 660L504 660L504 590L169 590L169 363L447 363L447 292L169 292L169 0L91 0Z"  horiz-adv-x="524" vert-adv-y="1000"  />

      
      <glyph glyph-name="uni47" unicode="&#x47;" d="M48 330Q46 472 147.50 572.50Q249 673 391 671Q474 671 544 635.50Q614 600 660 536L601 490Q520 599 391 599Q279 601 203 522Q127 443 129 331Q127 217 204.50 137Q282 57 395 59Q466 59 523.50 90.50Q581 122 615 177L615 266L390 266L390 336L693 336L693 160Q649 82 568 35Q489-11 391-11Q249-13 147.50 87.50Q46 188 48 330Z"  horiz-adv-x="746" vert-adv-y="1000"  />

      
      <glyph glyph-name="uni48" unicode="&#x48;" d="M91 0L91 660L169 660L169 388L539 388L539 660L617 660L617 0L539 0L539 318L169 318L169 0L91 0Z"  horiz-adv-x="708" vert-adv-y="1000"  />

      
      <glyph glyph-name="uni49" unicode="&#x49;" d="M91 0L91 660L169 660L169 0L91 0Z"  horiz-adv-x="259" vert-adv-y="1000"  />

      
      <glyph glyph-name="uni4a" unicode="&#x4a;" d="M24 0L24 67Q64 61 96 61Q152 61 178.50 83.50Q205 106 205 160L205 660L283 660L283 153Q283 71 238 30Q193-11 111-11Q74-11 24 0Z"  horiz-adv-x="373" vert-adv-y="1000"  />

      
      <glyph glyph-name="uni4b" unicode="&#x4b;" d="M91 0L91 660L169 660L169 0L91 0M280 354L602 0L503 0L178 354L475 660L575 660L280 354Z"  horiz-adv-x="633" vert-adv-y="1000"  />

      
      <glyph glyph-name="uni4c" unicode="&#x4c;" d="M91 0L91 660L169 660L169 70L482 70L482 0L91 0Z"  horiz-adv-x="506" vert-adv-y="1000"  />

      
      <glyph glyph-name="uni4d" unicode="&#x4d;" d="M671 671L698 671L698 0L620 0L620 473L409 187L381 187L169 475L169 0L91 0L91 671L119 671L394 290L671 671Z"  horiz-adv-x="789" vert-adv-y="1000"  />

      
      <glyph glyph-name="uni4e" unicode="&#x4e;" d="M539 660L617 660L617-11L589-11L169 495L169 0L91 0L91 671L119 671L539 164L539 660Z"  horiz-adv-x="708" vert-adv-y="1000"  />

      
      <glyph glyph-name="uni4f" unicode="&#x4f;" d="M48 330Q45 471 147 572Q249 673 390 671Q530 673 633 572Q736 471 733 330Q736 189 633 88Q530-13 390-11Q250-14 147.50 88Q45 190 48 330M652 331Q654 443 577 522Q500 601 391 599Q279 599 204 522.50Q129 446 129 331Q129 216 204 138.50Q279 61 391 61Q500 59 577 138.50Q654 218 652 331Z"  horiz-adv-x="781" vert-adv-y="1000"  />

      
      <glyph glyph-name="uni50" unicode="&#x50;" d="M91 0L91 660L323 660Q418 660 476 606.50Q534 553 534 469Q534 384 476 330Q418 276 323 276L169 276L169 0L91 0M169 346L321 346Q383 346 418 379Q453 412 453 468Q453 523 418 556.50Q383 590 321 590L169 590L169 346Z"  horiz-adv-x="573" vert-adv-y="1000"  />

      
      <glyph glyph-name="uni51" unicode="&#x51;" d="M1040-131L1040-193Q987-203 934-203Q674-203 520 14Q460-11 390-11Q250-14 147.50 88Q45 190 48 330Q45 471 147 572Q249 673 390 671Q530 673 633 572Q736 471 733 330Q733 243 693.50 169Q654 95 584 47Q722-136 944-136Q978-136 1040-131M391 61Q500 59 577 138.50Q654 218 652 330Q652 445 577 522Q502 599 390 599Q278 599 203.50 522.50Q129 446 129 331Q129 216 204 138.50Q279 61 391 61Z"  horiz-adv-x="781" vert-adv-y="1000"  />

      
      <glyph glyph-name="uni52" unicode="&#x52;" d="M606 0L515 0L310 277L169 277L169 0L91 0L91 660L323 660Q418 660 476 606.50Q534 553 534 469Q534 402 497 353.50Q460 305 395 286L606 0M169 590L169 347L320 347Q383 347 418 379.50Q453 412 453 468Q453 523 417.50 556.50Q382 590 320 590L169 590Z"  horiz-adv-x="622" vert-adv-y="1000"  />

      
      <glyph glyph-name="uni53" unicode="&#x53;" d="M41 131L99 174Q173 61 283 61Q343 61 379.50 91Q416 121 416 171Q416 213 392.50 234.50Q369 256 306 287L232 322Q157 357 120 397Q83 437 83 499Q83 575 141 623Q199 671 282 671Q347 671 401.50 640.50Q456 610 489 559L432 516Q376 599 281 599Q231 599 197.50 573Q164 547 164 503Q164 474 177 455Q189 437 208 425Q227 413 270 392L343 357Q424 317 460.50 276Q497 235 497 173Q497 92 437 40.50Q377-11 284-11Q208-11 144 26.50Q80 64 41 131Z"  horiz-adv-x="558" vert-adv-y="1000"  />

      
      <glyph glyph-name="uni54" unicode="&#x54;" d="M251 0L251 590L19 590L19 660L562 660L562 590L329 590L329 0L251 0Z"  horiz-adv-x="581" vert-adv-y="1000"  />

      
      <glyph glyph-name="uni55" unicode="&#x55;" d="M82 262L82 660L160 660L160 257Q160 163 210.50 112Q261 61 345 61Q428 61 478 112Q528 163 528 257L528 660L606 660L606 262Q606 135 533.50 62Q461-11 345-11Q227-11 154.50 62Q82 135 82 262Z"  horiz-adv-x="689" vert-adv-y="1000"  />

      
      <glyph glyph-name="uni56" unicode="&#x56;" d="M546 660L632 660L346-11L317-11L31 660L117 660L332 142L546 660Z"  horiz-adv-x="663" vert-adv-y="1000"  />

      
      <glyph glyph-name="uni57" unicode="&#x57;" d="M935 660L1020 660L770-11L742-11L533 513L324-11L296-11L45 660L131 660L313 157L519 671L547 671L753 158L935 660Z"  horiz-adv-x="1066" vert-adv-y="1000"  />

      
      <glyph glyph-name="uni58" unicode="&#x58;" d="M569 0L478 0L300 271L121 0L30 0L257 338L46 660L136 660L300 403L463 660L553 660L345 337L569 0Z"  horiz-adv-x="599" vert-adv-y="1000"  />

      
      <glyph glyph-name="uni59" unicode="&#x59;" d="M576 660L347 273L347 0L269 0L269 273L40 660L128 660L308 350L489 660L576 660Z"  horiz-adv-x="616" vert-adv-y="1000"  />

      
      <glyph glyph-name="uni5a" unicode="&#x5a;" d="M154 70L555 70L555 0L32 0L32 23L430 590L75 590L75 660L554 660L554 637L154 70Z"  horiz-adv-x="589" vert-adv-y="1000"  />

      
      <glyph glyph-name="uni5b" unicode="&#x5b;" d="M101-131L101 729L292 729L292 661L176 661L176-61L292-61L292-131L101-131Z"  horiz-adv-x="343" vert-adv-y="1000"  />

      
      <glyph glyph-name="uni5c" unicode="&#x5c;" d="M530-121L7 780L98 780L621-121L530-121Z"  horiz-adv-x="628" vert-adv-y="1000"  />

      
      <glyph glyph-name="uni5d" unicode="&#x5d;" d="M50-131L50-61L167-61L167 661L50 661L50 729L241 729L241-131L50-131Z"  horiz-adv-x="343" vert-adv-y="1000"  />

      
      <glyph glyph-name="uni5e" unicode="&#x5e;" d="M452 284L372 284L256 532L140 284L60 284L242 670L270 670L452 284Z"  horiz-adv-x="512" vert-adv-y="1000"  />

      
      <glyph glyph-name="uni5f" unicode="&#x5f;" d="M43-140L43-75L462-75L462-140L43-140Z"  horiz-adv-x="506" vert-adv-y="1000"  />

      
      <glyph glyph-name="uni60" unicode="&#x60;" d="M330 566L210 766L210 780L304 780L389 566L330 566Z"  horiz-adv-x="600" vert-adv-y="1000"  />

      
      <glyph glyph-name="uni61" unicode="&#x61;" d="M450 300L450 0L378 0L378 63Q322-11 214-11Q138-11 91 26.50Q44 64 44 126Q44 188 92 225Q140 262 219 262L373 262L373 304Q373 363 341.50 395Q310 427 255 427Q173 427 113 349L62 391Q127 498 260 498Q348 498 399 446.50Q450 395 450 300M373 187L373 199L228 199Q123 199 123 130Q123 94 151.50 73.50Q180 53 224 53Q285 53 329 92Q373 131 373 187Z"  horiz-adv-x="528" vert-adv-y="1000"  />

      
      <glyph glyph-name="uni62" unicode="&#x62;" d="M512.50 424.50Q512.50 424.50 547.25 387.75Q582 351 582 243Q582 135 513 62Q444-11 342-11Q285-11 235 12.50Q185 36 157 77L157 0L85 0L85 750L162 750L162 416Q191 454 238.50 476Q286 498 341 498Q443 498 512.50 424.50M453.50 112.50Q453.50 112.50 478.25 138.75Q503 165 503 244Q503 323 453.50 375Q404 427 330 427Q258 427 209.50 379.50Q161 332 161 243Q161 156 210.50 108Q260 60 330 60Q404 60 453.50 112.50Z"  horiz-adv-x="632" vert-adv-y="1000"  />

      
      <glyph glyph-name="uni63" unicode="&#x63;" d="M50 244Q48 348 124 424Q200 500 305 498Q368 498 420 470Q472 442 506 392L451 348Q393 427 306 427Q231 427 180 373.50Q129 320 129 244Q129 167 180 113.50Q231 60 306 60Q392 60 450 138L505 95Q433-11 305-11Q199-11 124.50 63.50Q50 138 50 244Z"  horiz-adv-x="551" vert-adv-y="1000"  />

      
      <glyph glyph-name="uni64" unicode="&#x64;" d="M471 750L548 750L548 0L475 0L475 77Q447 36 397.50 12.50Q348-11 291-11Q188-11 119 62.50Q50 136 50 243Q50 351 119.50 424.50Q189 498 291 498Q346 498 394 476Q442 454 471 415L471 750M472 243Q472 331 422.50 379Q373 427 302 427Q228 427 178.50 375Q129 323 129 244Q129 165 178.50 112.50Q228 60 302 60Q373 60 422.50 108Q472 156 472 243Z"  horiz-adv-x="632" vert-adv-y="1000"  />

      
      <glyph glyph-name="uni65" unicode="&#x65;" d="M515 220L130 220Q137 148 187 104Q237 60 309 60Q392 60 458 126L503 74Q421-11 308-11Q199-11 124.50 62.50Q50 136 50 243Q50 349 122.50 423.50Q195 498 299 498Q394 498 457.50 436Q521 374 521 278Q521 250 515 220M133 288L442 288Q441 352 400 390Q359 428 297 428Q236 428 191 389.50Q146 351 133 288Z"  horiz-adv-x="571" vert-adv-y="1000"  />

      
      <glyph glyph-name="uni66" unicode="&#x66;" d="M174 598L174 487L296 487L296 418L174 418L174 0L97 0L97 418L27 418L27 487L97 487L97 603Q97 681 139.50 721Q182 761 258 761Q289 761 319 753L319 688Q295 691 276 691Q225 691 199.50 669.50Q174 648 174 598Z"  horiz-adv-x="303" vert-adv-y="1000"  />

      
      <glyph glyph-name="uni67" unicode="&#x67;" d="M480 487L553 487L553 47Q553-63 489-127Q425-191 316-191Q181-191 87-97L132-43Q220-120 314-120Q390-120 433-77.50Q476-35 476 43L476 86Q447 48 398.50 26.50Q350 5 295 5Q192 5 124 75Q56 145 56 251Q56 356 124.50 427Q193 498 295 498Q353 498 402.50 474.50Q452 451 480 409L480 487M477 251Q477 334 427.50 379.50Q378 425 307 425Q232 425 183 375.50Q134 326 134 250Q134 173 183 124.50Q232 76 307 76Q379 76 428 121.50Q477 167 477 251Z"  horiz-adv-x="637" vert-adv-y="1000"  />

      
      <glyph glyph-name="uni68" unicode="&#x68;" d="M488 306L488 0L411 0L411 296Q411 356 378.50 391.50Q346 427 290 427Q234 427 198 390Q162 353 162 296L162 0L85 0L85 750L162 750L162 432Q215 498 308 498Q391 498 439.50 445.50Q488 393 488 306Z"  horiz-adv-x="566" vert-adv-y="1000"  />

      
      <glyph glyph-name="uni69" unicode="&#x69;" d="M85 0L85 487L162 487L162 0L85 0M66 673Q66 696 83 712.50Q100 729 124 729Q147 729 164 712.50Q181 696 181 673Q181 649 164.50 633Q148 617 124 617Q100 617 83 633Q66 649 66 673Z"  horiz-adv-x="246" vert-adv-y="1000"  />

      
      <glyph glyph-name="uni6a" unicode="&#x6a;" d="M-60-183L-60-118Q-34-121-15-121Q35-121 60-99Q85-77 85-28L85 487L162 487L162-33Q162-111 119.50-151Q77-191 2-191Q-30-191-60-183M66 673Q66 696 83 712.50Q100 729 124 729Q147 729 164 712.50Q181 696 181 673Q181 649 164.50 633Q148 617 124 617Q100 617 83 633Q66 649 66 673Z"  horiz-adv-x="246" vert-adv-y="1000"  />

      
      <glyph glyph-name="uni6b" unicode="&#x6b;" d="M85 0L85 750L162 750L162 0L85 0M263 273L493 0L394 0L170 274L373 487L474 487L263 273Z"  horiz-adv-x="506" vert-adv-y="1000"  />

      
      <glyph glyph-name="uni6c" unicode="&#x6c;" d="M85 0L85 750L162 750L162 0L85 0Z"  horiz-adv-x="246" vert-adv-y="1000"  />

      
      <glyph glyph-name="uni6d" unicode="&#x6d;" d="M796 306L796 0L719 0L719 296Q719 356 688.50 391.50Q658 427 604 427Q550 427 514.50 391Q479 355 479 303L479 0L402 0L402 296Q402 355 370.50 391Q339 427 286 427Q231 427 196.50 390.50Q162 354 162 296L162 0L85 0L85 487L157 487L157 436Q211 498 302 498Q408 498 452 414Q511 498 619 498Q702 498 749 446Q796 394 796 306Z"  horiz-adv-x="874" vert-adv-y="1000"  />

      
      <glyph glyph-name="uni6e" unicode="&#x6e;" d="M488 306L488 0L411 0L411 297Q411 355 378.50 391Q346 427 290 427Q234 427 198 390.50Q162 354 162 297L162 0L85 0L85 487L157 487L157 435Q214 498 307 498Q391 498 439.50 445.50Q488 393 488 306Z"  horiz-adv-x="566" vert-adv-y="1000"  />

      
      <glyph glyph-name="uni6f" unicode="&#x6f;" d="M50 244Q48 348 124.50 424Q201 500 305 498Q410 500 486 424Q562 348 560 244Q562 141 485 64.50Q408-12 304-10Q200-12 124 64.50Q48 141 50 244M481 243Q481 321 430.50 374Q380 427 305 427Q230 427 179.50 374.50Q129 322 129 243Q129 166 179.50 113.50Q230 61 304 61Q378 61 429.50 114Q481 167 481 243Z"  horiz-adv-x="610" vert-adv-y="1000"  />

      
      <glyph glyph-name="uni70" unicode="&#x70;" d="M513.50 425Q513.50 425 547.75 388.50Q582 352 582 244Q582 136 512.50 62.50Q443-11 341-11Q226-11 162 70L162-180L85-180L85 487L157 487L157 409Q185 451 234 474.50Q283 498 341 498Q445 498 513.50 425M453.50 112Q453.50 112 478.25 138Q503 164 503 243Q503 322 453.50 374.50Q404 427 330 427Q260 427 210.50 379Q161 331 161 244Q161 155 209.50 107.50Q258 60 330 60Q404 60 453.50 112Z"  horiz-adv-x="632" vert-adv-y="1000"  />

      
      <glyph glyph-name="uni71" unicode="&#x71;" d="M475 487L548 487L548-180L471-180L471 71Q442 32 394 10.50Q346-11 291-11Q189-11 119.50 62.50Q50 136 50 244Q50 351 119 424.50Q188 498 291 498Q349 498 398 474.50Q447 451 475 409L475 487M472 244Q472 331 422.50 379Q373 427 302 427Q228 427 178.50 374.50Q129 322 129 243Q129 164 178.50 112Q228 60 302 60Q373 60 422.50 108Q472 156 472 244Z"  horiz-adv-x="632" vert-adv-y="1000"  />

      
      <glyph glyph-name="uni72" unicode="&#x72;" d="M344 487L344 419L315 419Q251 419 206.50 380Q162 341 162 276L162 0L85 0L85 487L157 487L157 418Q211 491 308 491Q327 491 344 487Z"  horiz-adv-x="362" vert-adv-y="1000"  />

      
      <glyph glyph-name="uni73" unicode="&#x73;" d="M39 84L88 135Q126 96 157.50 78Q189 60 228 60Q269 60 295 78.50Q321 97 321 129Q321 157 302.50 172.50Q284 188 236 207L189 227Q126 253 97 284Q68 315 68 362Q68 424 114.50 461Q161 498 232 498Q331 498 395 421L348 373Q294 427 228 427Q191 427 169 411Q147 395 147 366Q147 343 163.50 328.50Q180 314 226 295L271 276Q341 246 370.50 213.50Q400 181 400 132Q400 64 350 26Q301-11 229-11Q112-11 39 84Z"  horiz-adv-x="454" vert-adv-y="1000"  />

      
      <glyph glyph-name="uni74" unicode="&#x74;" d="M351 65L351 0Q302-11 270-11Q192-11 149 29Q106 69 106 147L106 418L24 418L24 487L106 487L106 620L183 620L183 487L335 487L335 418L183 418L183 152Q183 102 208.50 80.50Q234 59 286 59Q314 59 351 65Z"  horiz-adv-x="381" vert-adv-y="1000"  />

      
      <glyph glyph-name="uni75" unicode="&#x75;" d="M79 194L79 487L155 487L155 189Q155 131 190.50 95.50Q226 60 281 60Q335 60 370 96Q405 132 405 189L405 487L482 487L482 194Q482 103 424.50 46Q367-11 281-11Q194-11 136.50 46Q79 103 79 194Z"  horiz-adv-x="560" vert-adv-y="1000"  />

      
      <glyph glyph-name="uni76" unicode="&#x76;" d="M431 487L513 487L284-11L256-11L26 487L108 487L270 120L431 487Z"  horiz-adv-x="539" vert-adv-y="1000"  />

      
      <glyph glyph-name="uni77" unicode="&#x77;" d="M742 487L824 487L619-11L591-11L425 357L260-11L233-11L26 487L108 487L249 126L411 498L440 498L604 129L742 487Z"  horiz-adv-x="851" vert-adv-y="1000"  />

      
      <glyph glyph-name="uni78" unicode="&#x78;" d="M476 0L387 0L248 200L110 0L20 0L201 254L35 487L124 487L248 308L373 487L462 487L293 254L476 0Z"  horiz-adv-x="497" vert-adv-y="1000"  />

      
      <glyph glyph-name="uni79" unicode="&#x79;" d="M431 487L513 487L273-68Q219-191 108-191Q69-191 33-181L33-116Q75-121 92-121Q132-121 158-103.50Q184-86 202-43L228 15L26 487L109 487L270 99L431 487Z"  horiz-adv-x="539" vert-adv-y="1000"  />

      
      <glyph glyph-name="uni7a" unicode="&#x7a;" d="M145 68L427 68L427 0L27 0L27 23L305 418L50 418L50 487L424 487L424 464L145 68Z"  horiz-adv-x="454" vert-adv-y="1000"  />

      
      <glyph glyph-name="uni7b" unicode="&#x7b;" d="M219 577Q219 542 232 480Q244 410 244 384Q244 323 191 299Q244 275 244 214Q244 189 232 119Q219 57 219 21Q219-63 297-63L346-63L346-131L283-131Q145-131 145 2Q145 47 160 124Q171 188 171 207Q171 265 110 265L53 265L53 333L110 333Q171 333 171 391Q171 411 160 474Q145 551 145 596Q145 729 283 729L346 729L346 661L297 661Q219 661 219 577Z"  horiz-adv-x="397" vert-adv-y="1000"  />

      
      <glyph glyph-name="uni7c" unicode="&#x7c;" d="M133-121L133 780L199 780L199-121L133-121Z"  horiz-adv-x="332" vert-adv-y="1000"  />

      
      <glyph glyph-name="uni7d" unicode="&#x7d;" d="M287 333L344 333L344 265L287 265Q226 265 226 207Q226 188 237 124L245 72Q251 31 251 2Q251-131 114-131L50-131L50-63L100-63Q178-63 178 21Q178 57 165 119Q153 189 153 214Q153 275 206 299Q153 323 153 384Q153 410 165 480Q178 542 178 577Q178 661 100 661L50 661L50 729L114 729Q251 729 251 596Q251 566 245 525L237 474Q226 411 226 391Q226 333 287 333Z"  horiz-adv-x="397" vert-adv-y="1000"  />

      
      <glyph glyph-name="uni7e" unicode="&#x7e;" d="M319 250L225 307Q181 333 164 333Q146 333 135.50 320.50Q125 308 125 288L125 259L62 259L61 296Q61 341 87.50 372Q114 403 156 403Q196 403 240 376L334 319Q376 294 396 294Q414 294 424 306.50Q434 319 434 338L434 367L497 367Q497 360 497.50 351Q498 342 498.50 337.50Q499 333 499 330Q499 284 472.50 254Q446 224 402 224Q363 224 319 250Z"  horiz-adv-x="560" vert-adv-y="1000"  />

      
      <glyph glyph-name="unia1" unicode="&#xa1;" d="M107 390Q107 390 98 399Q89 408 89 435Q89 462 107.50 480Q126 498 152 498Q179 498 197 480Q215 462 215 435Q215 407 197 389.50Q179 372 152 372Q125 372 107 390M105-180L120 278L184 278L199-180L105-180Z"  horiz-adv-x="305" vert-adv-y="1000"  />

      
      <glyph glyph-name="unia2" unicode="&#xa2;" d="M437 223L490 179Q427 86 317 74L317-94L240-94L240 78Q152 95 94 166Q36 237 36 328Q36 420 94 490Q152 560 240 577L240 750L317 750L317 581Q428 569 491 476L438 433Q380 511 292 511Q217 511 166 457.50Q115 404 115 328Q115 251 166 197.50Q217 144 292 144Q379 144 437 223Z"  horiz-adv-x="554" vert-adv-y="1000"  />

      
      <glyph glyph-name="unia3" unicode="&#xa3;" d="M208 68L484 68L484 0L57 0L57 20Q190 102 190 211Q190 228 187 244L67 244L67 312L163 312L144 349Q118 398 107.50 428.50Q97 459 97 496Q97 574 150.50 622.50Q204 671 288 671Q364 671 417 628.50Q470 586 492 508L423 482Q386 599 292 599Q239 599 208 566.50Q177 534 177 484Q177 456 185.50 433Q194 410 219 362Q236 332 245 312L404 312L404 244L266 244Q268 218 268 212Q268 123 208 68Z"  horiz-adv-x="529" vert-adv-y="1000"  />

      
      <glyph glyph-name="unia4" unicode="&#xa4;" d="M506 192L616 82L570 36L458 147Q397 104 320 104Q246 104 185 146L74 36L27 82L137 193Q90 252 90 330Q90 407 137 469L27 579L74 625L185 514Q247 556 321 556Q398 556 457 514L569 625L616 579L506 469Q554 407 554 330Q554 254 506 192M475 329Q475 396 430.50 441Q386 486 321 486Q256 486 212.50 441Q169 396 169 329Q169 264 212 219.50Q255 175 320 175Q386 175 430.50 219.50Q475 264 475 329Z"  horiz-adv-x="643" vert-adv-y="1000"  />

      
      <glyph glyph-name="unia5" unicode="&#xa5;" d="M544 660L334 360L511 360L511 292L316 292L316 200L511 200L511 131L316 131L316 0L238 0L238 131L44 131L44 200L238 200L238 292L44 292L44 360L219 360L9 660L97 660L277 401L457 660L544 660Z"  horiz-adv-x="552" vert-adv-y="1000"  />

      
      <glyph glyph-name="unia6" unicode="&#xa6;" d="M133 480L133 780L199 780L199 480L133 480M133-121L133 179L199 179L199-121L133-121Z"  horiz-adv-x="332" vert-adv-y="1000"  />

      
      <glyph glyph-name="unia7" unicode="&#xa7;" d="M418 37Q419 34 419 24Q419-38 375-78.50Q331-119 258-119Q155-119 88-31L145 16Q198-47 262-47Q298-47 319-29.50Q340-12 340 21Q340 52 323 75.50Q306 99 262 134L245 148L139 235Q83 281 59 316Q35 351 35 392Q35 441 68.50 474.50Q102 508 160 518Q159 521 159 532Q159 592 203.50 633Q248 674 321 674Q424 674 491 586L434 540Q377 603 317 603Q281 603 259.50 585Q238 567 238 535Q238 504 255 481Q272 458 316 423L334 408L439 320Q494 275 518.50 240Q543 205 543 164Q543 114 509.50 80.50Q476 47 418 37M465 165Q465 187 449 206Q431 229 388 264L282 352Q206 414 180 457Q114 439 114 390Q114 368 129 348Q148 326 191 291L296 204Q373 142 398 98Q465 116 465 165Z"  horiz-adv-x="579" vert-adv-y="1000"  />

      
      <glyph glyph-name="unia8" unicode="&#xa8;" d="M155 636Q155 636 146.50 644Q138 652 138 673Q138 694 155 710.50Q172 727 193 727Q216 727 232.50 711Q249 695 249 673Q249 651 232.50 635.50Q216 620 193 620Q172 620 155 636M350 673Q350 695 367 711Q384 727 406 727Q429 727 445 711Q461 695 461 673Q461 651 445 635.50Q429 620 406 620Q384 620 367 636Q350 652 350 673Z"  horiz-adv-x="600" vert-adv-y="1000"  />

      
      <glyph glyph-name="unia9" unicode="&#xa9;" d="M48 330Q45 470 148.50 571.50Q252 673 390 671Q529 673 632.50 571.50Q736 470 733 330Q736 190 632.50 88.50Q529-13 390-11Q251-13 147.50 88.50Q44 190 48 330M673 330Q675 451 590.50 534.50Q506 618 390 616Q274 618 190 534.50Q106 451 108 330Q106 209 190 125.50Q274 42 390 44Q506 42 590 125.50Q674 209 673 330M264.50 194Q264.50 194 236.75 221.50Q209 249 209 330Q209 411 264.50 466.50Q320 522 401 522Q493 522 552 444L503 402Q461 457 402 457Q350 457 315.50 420.50Q281 384 281 330Q281 277 315 240Q350 204 401 204Q462 204 503 258L552 216Q493 139 400 139Q320 139 264.50 194Z"  horiz-adv-x="781" vert-adv-y="1000"  />

      
      <glyph glyph-name="uniaa" unicode="&#xaa;" d="M297 432L297 244L236 244L236 275Q201 237 140 237Q92 237 62.50 262Q33 287 33 328Q33 370 63.50 393.50Q94 417 146 417L231 417L231 436Q231 501 164 501Q122 501 79 463L45 506Q99 560 171 560Q230 560 263.50 526.50Q297 493 297 432M231 359L231 369L156 369Q102 369 102 330Q102 290 156 290Q189 290 210 309.50Q231 329 231 359Z"  horiz-adv-x="356" vert-adv-y="1000"  />

      
      <glyph glyph-name="uniab" unicode="&#xab;" d="M216 71L38 259L38 282L216 471L266 426L125 271L266 114L216 71M414 71L236 259L236 282L414 471L464 426L323 271L464 114L414 71Z"  horiz-adv-x="504" vert-adv-y="1000"  />

      
      <glyph glyph-name="uniac" unicode="&#xac;" d="M396 96L396 281L55 281L55 349L473 349L473 96L396 96Z"  horiz-adv-x="560" vert-adv-y="1000"  />

      
      <glyph glyph-name="uniad" unicode="&#xad;" d="M53 282L53 347L292 347L292 282L53 282Z"  horiz-adv-x="346" vert-adv-y="1000"  />

      
      <glyph glyph-name="uniae" unicode="&#xae;" d="M527 435Q529 336 456 261Q383 186 286 188Q189 186 115 261Q41 336 43 435Q41 535 115 610Q189 685 286 683Q383 685 456 610Q529 535 527 435M421 295.50Q421 295.50 449 324.25Q477 353 477 436Q477 519 421 576Q365 633 286 633Q206 633 150.50 575.50Q95 518 95 436Q95 354 150.50 296Q206 238 286 238Q365 238 421 295.50M341 407L411 310L346 310L283 394L247 394L247 310L189 310L189 561L290 561Q330 561 356 538Q382 515 382 477Q382 430 341 407M247 510L247 444L289 444Q304 444 313.50 453Q323 462 323 476Q323 491 313.50 500.50Q304 510 289 510L247 510Z"  horiz-adv-x="570" vert-adv-y="1000"  />

      
      <glyph glyph-name="uniaf" unicode="&#xaf;" d="M163 642L163 704L438 704L438 642L163 642Z"  horiz-adv-x="600" vert-adv-y="1000"  />

      
      <glyph glyph-name="unib0" unicode="&#xb0;" d="M31 524Q31 584 75 627.50Q119 671 180 671Q241 671 285 627.50Q329 584 329 524Q329 463 285.50 420Q242 377 180 377Q118 377 74.50 420Q31 463 31 524M265 524Q265 561 240.50 585.50Q216 610 180 610Q145 610 120.50 585Q96 560 96 524Q96 488 120.50 463Q145 438 180 438Q216 438 240.50 463Q265 488 265 524Z"  horiz-adv-x="360" vert-adv-y="1000"  />

      
      <glyph glyph-name="unib1" unicode="&#xb1;" d="M242 150L242 310L66 310L66 378L242 378L242 536L319 536L319 378L494 378L494 310L319 310L319 150L242 150M66 0L66 68L494 68L494 0L66 0Z"  horiz-adv-x="560" vert-adv-y="1000"  />

      
      <glyph glyph-name="unib2" unicode="&#xb2;" d="M154 424L329 424L329 364L35 364L35 379L183 538Q217 574 232 599Q247 624 247 653Q247 684 227.50 705Q208 726 178 726Q146 726 126.50 705Q107 684 107 650L109 618L44 618Q40 633 40 654Q40 707 79 747Q118 787 178 787Q237 787 275.50 750.50Q314 714 314 658Q314 618 293.50 584Q273 550 225 499L154 424Z"  horiz-adv-x="369" vert-adv-y="1000"  />

      
      <glyph glyph-name="unib3" unicode="&#xb3;" d="M314 498Q314 436 270.50 396.50Q227 357 164 357Q67 357 19 447L65 480Q103 418 162 418Q199 418 222.50 440Q246 462 246 498Q246 533 221.50 552Q197 571 151 571L110 571L110 589L207 720L48 720L48 780L305 780L305 761L205 626Q252 616 283 582.50Q314 549 314 498Z"  horiz-adv-x="354" vert-adv-y="1000"  />

      
      <glyph glyph-name="unib4" unicode="&#xb4;" d="M210 566L295 780L389 780L389 766L269 566L210 566Z"  horiz-adv-x="600" vert-adv-y="1000"  />

      
      <glyph glyph-name="unib5" unicode="&#xb5;" d="M571 65L571 0Q543-7 519-7Q449-7 425 52Q376-11 291-11Q211-11 162 46L162-180L85-180L85 487L162 487L162 196Q162 137 196.50 98.50Q231 60 286 60Q341 60 376 98.50Q411 137 411 196L411 487L488 487L488 136Q488 62 542 62Q552 62 571 65Z"  horiz-adv-x="592" vert-adv-y="1000"  />

      
      <glyph glyph-name="unib6" unicode="&#xb6;" d="M39 449Q39 544 106 602Q173 660 277 660L337 660L337 236L277 236Q175 236 107 295.50Q39 355 39 449M228-180L228-114Q278-120 293-120Q345-120 371-96.50Q397-73 397-19L397 660L474 660L474-25Q474-191 308-191Q274-191 228-180Z"  horiz-adv-x="564" vert-adv-y="1000"  />

      
      <glyph glyph-name="unib7" unicode="&#xb7;" d="M95.50 269Q95.50 269 86.25 278Q77 287 77 314Q77 341 95.50 359Q114 377 140 377Q166 377 184.50 359Q203 341 203 314Q203 287 184.50 269Q166 251 140 251Q114 251 95.50 269Z"  horiz-adv-x="280" vert-adv-y="1000"  />

      
      <glyph glyph-name="unib8" unicode="&#xb8;" d="M200-181L200-126Q228-130 256-130Q334-130 334-65Q334-25 300 9L333 26Q400-8 400-76Q400-126 364-158.50Q328-191 268-191Q233-191 200-181Z"  horiz-adv-x="600" vert-adv-y="1000"  />

      
      <glyph glyph-name="unib9" unicode="&#xb9;" d="M47 364L47 424L152 424L152 720L52 720L52 780L219 780L219 424L309 424L309 364L47 364Z"  horiz-adv-x="353" vert-adv-y="1000"  />

      
      <glyph glyph-name="uniba" unicode="&#xba;" d="M85.50 284Q85.50 284 61.75 307.50Q38 331 38 398Q38 465 85.50 512Q133 559 201 559Q269 559 317 512Q365 465 365 398Q365 331 317 284Q269 237 201 237Q133 237 85.50 284M299 398Q299 443 271.50 471.50Q244 500 201 500Q158 500 131 471.50Q104 443 104 398Q104 353 131 324.50Q158 296 201 296Q244 296 271.50 325Q299 354 299 398Z"  horiz-adv-x="403" vert-adv-y="1000"  />

      
      <glyph glyph-name="unibb" unicode="&#xbb;" d="M90 71L39 114L181 271L39 426L90 471L267 282L267 259L90 71M288 71L237 114L379 271L237 426L288 471L465 282L465 259L288 71Z"  horiz-adv-x="504" vert-adv-y="1000"  />

      
      <glyph glyph-name="unibc" unicode="&#xbc;" d="M47 244L47 304L152 304L152 600L52 600L52 660L219 660L219 304L309 304L309 244L47 244M248 0L626 660L695 660L317 0L248 0M870 128L870 73L814 73L814 0L753 0L753 73L546 73L546 91L676 416L743 416L627 128L753 128L753 258L814 258L814 128L870 128Z"  horiz-adv-x="886" vert-adv-y="1000"  />

      
      <glyph glyph-name="unibd" unicode="&#xbd;" d="M47 244L47 304L152 304L152 600L52 600L52 660L219 660L219 304L309 304L309 244L47 244M248 0L626 660L695 660L317 0L248 0M709 60L884 60L884 0L590 0L590 15L738 174Q772 210 787 235Q802 260 802 289Q802 320 782.50 341Q763 362 733 362Q701 362 681.50 341Q662 320 662 286L664 254L599 254Q595 269 595 290Q595 343 634 383Q673 423 733 423Q792 423 830.50 386.50Q869 350 869 294Q869 254 848.50 220Q828 186 780 135L709 60Z"  horiz-adv-x="924" vert-adv-y="1000"  />

      
      <glyph glyph-name="unibe" unicode="&#xbe;" d="M314 378Q314 316 270.50 276.50Q227 237 164 237Q67 237 19 327L65 360Q103 298 162 298Q199 298 222.50 320Q246 342 246 378Q246 413 221.50 432Q197 451 151 451L110 451L110 469L207 600L48 600L48 660L305 660L305 641L205 506Q252 496 283 462.50Q314 429 314 378M214 0L592 660L661 660L283 0L214 0M836 128L836 73L780 73L780 0L719 0L719 73L512 73L512 91L642 416L709 416L593 128L719 128L719 258L780 258L780 128L836 128Z"  horiz-adv-x="853" vert-adv-y="1000"  />

      
      <glyph glyph-name="unibf" unicode="&#xbf;" d="M188 389.50Q188 389.50 179 398.75Q170 408 170 435Q170 462 188.50 480Q207 498 233 498Q259 498 277.50 480Q296 462 296 435Q296 408 278 389.50Q260 371 233 371Q206 371 188 389.50M44-22Q44 24 66.50 60.50Q89 97 139 143Q180 180 195 201Q210 222 210 245Q210 262 206 278L273 278Q283 255 283 234Q283 202 264.50 175.50Q246 149 202 109Q158 67 140.50 40Q123 13 123-19Q123-62 152.50-91Q182-120 223-120Q303-120 335-24L399-51Q380-118 333-154.50Q286-191 221-191Q148-191 96-142.50Q44-94 44-22Z"  horiz-adv-x="444" vert-adv-y="1000"  />

      
      <glyph glyph-name="unic0" unicode="&#xc0;" d="M549 0L493 134L169 134L113 0L31 0L317 671L346 671L632 0L549 0M463 204L331 529L199 204L463 204M303 724L183 896L183 910L277 910L362 724L303 724Z"  horiz-adv-x="663" vert-adv-y="1000"  />

      
      <glyph glyph-name="unic1" unicode="&#xc1;" d="M549 0L493 134L169 134L113 0L31 0L317 671L346 671L632 0L549 0M463 204L331 529L199 204L463 204M303 724L388 910L482 910L482 896L362 724L303 724Z"  horiz-adv-x="663" vert-adv-y="1000"  />

      
      <glyph glyph-name="unic2" unicode="&#xc2;" d="M549 0L493 134L169 134L113 0L31 0L317 671L346 671L632 0L549 0M463 204L331 529L199 204L463 204M502 724L442 724L332 832L221 724L161 724L308 910L355 910L502 724Z"  horiz-adv-x="663" vert-adv-y="1000"  />

      
      <glyph glyph-name="unic3" unicode="&#xc3;" d="M549 0L493 134L169 134L113 0L31 0L317 671L346 671L632 0L549 0M463 204L331 529L199 204L463 204M339 766L306 786Q276 806 263 806Q249 806 241 795Q233 784 233 768L233 752L169 752Q167 770 167 777Q167 821 191 849.50Q215 878 254 878Q287 878 324 855L358 833Q387 813 402 813Q416 813 424 823.50Q432 834 432 850L432 868L496 868Q497 863 497 842Q497 799 473.50 770.50Q450 742 412 742Q378 742 339 766Z"  horiz-adv-x="663" vert-adv-y="1000"  />

      
      <glyph glyph-name="unic4" unicode="&#xc4;" d="M549 0L493 134L169 134L113 0L31 0L317 671L346 671L632 0L549 0M463 204L331 529L199 204L463 204M176.50 772.50Q176.50 772.50 168.25 780.25Q160 788 160 810Q160 832 176.50 847.50Q193 863 215 863Q238 863 254 847.50Q270 832 270 810Q270 788 254 772.50Q238 757 215 757Q193 757 176.50 772.50M409.50 771.50Q409.50 771.50 401.25 779.25Q393 787 393 809Q393 831 409.50 847Q426 863 448 863Q471 863 487 847Q503 831 503 809Q503 787 487 771.50Q471 756 448 756Q426 756 409.50 771.50Z"  horiz-adv-x="663" vert-adv-y="1000"  />

      
      <glyph glyph-name="unic5" unicode="&#xc5;" d="M549 0L493 134L169 134L113 0L31 0L317 671L346 671L632 0L549 0M463 204L331 529L199 204L463 204M252.50 729.50Q252.50 729.50 236.75 745.25Q221 761 221 806Q221 851 252.50 882.50Q284 914 331 914Q379 914 410.50 882.50Q442 851 442 806Q442 761 410.50 729.50Q379 698 331 698Q284 698 252.50 729.50M382 806Q382 828 367.50 842.50Q353 857 332 857Q310 857 295.50 842.50Q281 828 281 806Q281 785 296 770.50Q311 756 332 756Q353 756 367.50 770.50Q382 785 382 806Z"  horiz-adv-x="663" vert-adv-y="1000"  />

      
      <glyph glyph-name="unic6" unicode="&#xc6;" d="M535 70L781 70L781 0L467 0L444 134L168 134L97 0L13 0L357 660L769 660L769 590L447 590L481 388L689 388L689 318L493 318L535 70M377 541L205 204L432 204L377 541Z"  horiz-adv-x="821" vert-adv-y="1000"  />

      
      <glyph glyph-name="unic7" unicode="&#xc7;" d="M48 330Q45 471 147.50 572Q250 673 391 671Q478 671 550.50 633Q623 595 665 529L607 483Q526 599 392 599Q280 599 204.50 522Q129 445 129 330Q129 215 204.50 138Q280 61 392 61Q526 61 607 177L665 131Q623 65 550.50 27Q478-11 391-11Q250-13 147.50 88Q45 189 48 330M271-181L271-126Q299-130 327-130Q405-130 405-65Q405-25 371 9L404 26Q471-8 471-76Q471-126 435-158.50Q399-191 339-191Q304-191 271-181Z"  horiz-adv-x="715" vert-adv-y="1000"  />

      
      <glyph glyph-name="unic8" unicode="&#xc8;" d="M91 0L91 660L514 660L514 590L169 590L169 388L433 388L433 318L169 318L169 70L526 70L526 0L91 0M274 724L154 896L154 910L248 910L333 724L274 724Z"  horiz-adv-x="566" vert-adv-y="1000"  />

      
      <glyph glyph-name="unic9" unicode="&#xc9;" d="M91 0L91 660L514 660L514 590L169 590L169 388L433 388L433 318L169 318L169 70L526 70L526 0L91 0M274 724L359 910L453 910L453 896L333 724L274 724Z"  horiz-adv-x="566" vert-adv-y="1000"  />

      
      <glyph glyph-name="unica" unicode="&#xca;" d="M91 0L91 660L514 660L514 590L169 590L169 388L433 388L433 318L169 318L169 70L526 70L526 0L91 0M473 724L413 724L303 832L192 724L132 724L279 910L326 910L473 724Z"  horiz-adv-x="566" vert-adv-y="1000"  />

      
      <glyph glyph-name="unicb" unicode="&#xcb;" d="M91 0L91 660L514 660L514 590L169 590L169 388L433 388L433 318L169 318L169 70L526 70L526 0L91 0M147.50 772.50Q147.50 772.50 139.25 780.25Q131 788 131 810Q131 832 147.50 847.50Q164 863 186 863Q209 863 225 847.50Q241 832 241 810Q241 788 225 772.50Q209 757 186 757Q164 757 147.50 772.50M380.50 771.50Q380.50 771.50 372.25 779.25Q364 787 364 809Q364 831 380.50 847Q397 863 419 863Q442 863 458 847Q474 831 474 809Q474 787 458 771.50Q442 756 419 756Q397 756 380.50 771.50Z"  horiz-adv-x="566" vert-adv-y="1000"  />

      
      <glyph glyph-name="unicc" unicode="&#xcc;" d="M91 0L91 660L169 660L169 0L91 0M102 724L-18 896L-18 910L76 910L161 724L102 724Z"  horiz-adv-x="259" vert-adv-y="1000"  />

      
      <glyph glyph-name="unicd" unicode="&#xcd;" d="M91 0L91 660L169 660L169 0L91 0M101 724L186 910L280 910L280 896L160 724L101 724Z"  horiz-adv-x="259" vert-adv-y="1000"  />

      
      <glyph glyph-name="unice" unicode="&#xce;" d="M91 0L91 660L169 660L169 0L91 0M301 724L241 724L131 832L20 724L-40 724L107 910L154 910L301 724Z"  horiz-adv-x="259" vert-adv-y="1000"  />

      
      <glyph glyph-name="unicf" unicode="&#xcf;" d="M91 0L91 660L169 660L169 0L91 0M-24.50 772.50Q-24.50 772.50-32.75 780.25Q-41 788-41 810Q-41 832-24.50 847.50Q-8 863 14 863Q37 863 53 847.50Q69 832 69 810Q69 788 53 772.50Q37 757 14 757Q-8 757-24.50 772.50M208.50 771.50Q208.50 771.50 200.25 779.25Q192 787 192 809Q192 831 208.50 847Q225 863 247 863Q270 863 286 847Q302 831 302 809Q302 787 286 771.50Q270 756 247 756Q225 756 208.50 771.50Z"  horiz-adv-x="259" vert-adv-y="1000"  />

      
      <glyph glyph-name="unid0" unicode="&#xd0;" d="M646 331Q646 186 548 93Q450 0 287 0L91 0L91 274L-4 274L-4 340L91 340L91 660L287 660Q451 660 548.50 568.50Q646 477 646 331M565 331Q565 447 490 518.50Q415 590 286 590L169 590L169 340L299 340L299 274L169 274L169 70L286 70Q414 70 489.50 143Q565 216 565 331Z"  horiz-adv-x="694" vert-adv-y="1000"  />

      
      <glyph glyph-name="unid1" unicode="&#xd1;" d="M539 660L617 660L617-11L589-11L169 495L169 0L91 0L91 671L119 671L539 164L539 660M361 766L328 786Q298 806 285 806Q271 806 263 795Q255 784 255 768L255 752L191 752Q189 770 189 777Q189 821 213 849.50Q237 878 276 878Q309 878 346 855L380 833Q409 813 424 813Q438 813 446 823.50Q454 834 454 850L454 868L518 868Q519 863 519 842Q519 799 495.50 770.50Q472 742 434 742Q400 742 361 766Z"  horiz-adv-x="708" vert-adv-y="1000"  />

      
      <glyph glyph-name="unid2" unicode="&#xd2;" d="M48 330Q45 471 147 572Q249 673 390 671Q530 673 633 572Q736 471 733 330Q736 189 633 88Q530-13 390-11Q250-14 147.50 88Q45 190 48 330M652 331Q654 443 577 522Q500 601 391 599Q279 599 204 522.50Q129 446 129 331Q129 216 204 138.50Q279 61 391 61Q500 59 577 138.50Q654 218 652 331M362 724L242 896L242 910L336 910L421 724L362 724Z"  horiz-adv-x="781" vert-adv-y="1000"  />

      
      <glyph glyph-name="unid3" unicode="&#xd3;" d="M48 330Q45 471 147 572Q249 673 390 671Q530 673 633 572Q736 471 733 330Q736 189 633 88Q530-13 390-11Q250-14 147.50 88Q45 190 48 330M652 331Q654 443 577 522Q500 601 391 599Q279 599 204 522.50Q129 446 129 331Q129 216 204 138.50Q279 61 391 61Q500 59 577 138.50Q654 218 652 331M362 724L447 910L541 910L541 896L421 724L362 724Z"  horiz-adv-x="781" vert-adv-y="1000"  />

      
      <glyph glyph-name="unid4" unicode="&#xd4;" d="M48 330Q45 471 147 572Q249 673 390 671Q530 673 633 572Q736 471 733 330Q736 189 633 88Q530-13 390-11Q250-14 147.50 88Q45 190 48 330M652 331Q654 443 577 522Q500 601 391 599Q279 599 204 522.50Q129 446 129 331Q129 216 204 138.50Q279 61 391 61Q500 59 577 138.50Q654 218 652 331M561 724L501 724L391 832L280 724L220 724L367 910L414 910L561 724Z"  horiz-adv-x="781" vert-adv-y="1000"  />

      
      <glyph glyph-name="unid5" unicode="&#xd5;" d="M48 330Q45 471 147 572Q249 673 390 671Q530 673 633 572Q736 471 733 330Q736 189 633 88Q530-13 390-11Q250-14 147.50 88Q45 190 48 330M652 331Q654 443 577 522Q500 601 391 599Q279 599 204 522.50Q129 446 129 331Q129 216 204 138.50Q279 61 391 61Q500 59 577 138.50Q654 218 652 331M398 766L365 786Q335 806 322 806Q308 806 300 795Q292 784 292 768L292 752L228 752Q226 770 226 777Q226 821 250 849.50Q274 878 313 878Q346 878 383 855L417 833Q446 813 461 813Q475 813 483 823.50Q491 834 491 850L491 868L555 868Q556 863 556 842Q556 799 532.50 770.50Q509 742 471 742Q437 742 398 766Z"  horiz-adv-x="781" vert-adv-y="1000"  />

      
      <glyph glyph-name="unid6" unicode="&#xd6;" d="M48 330Q45 471 147 572Q249 673 390 671Q530 673 633 572Q736 471 733 330Q736 189 633 88Q530-13 390-11Q250-14 147.50 88Q45 190 48 330M652 331Q654 443 577 522Q500 601 391 599Q279 599 204 522.50Q129 446 129 331Q129 216 204 138.50Q279 61 391 61Q500 59 577 138.50Q654 218 652 331M235.50 772.50Q235.50 772.50 227.25 780.25Q219 788 219 810Q219 832 235.50 847.50Q252 863 274 863Q297 863 313 847.50Q329 832 329 810Q329 788 313 772.50Q297 757 274 757Q252 757 235.50 772.50M468.50 771.50Q468.50 771.50 460.25 779.25Q452 787 452 809Q452 831 468.50 847Q485 863 507 863Q530 863 546 847Q562 831 562 809Q562 787 546 771.50Q530 756 507 756Q485 756 468.50 771.50Z"  horiz-adv-x="781" vert-adv-y="1000"  />

      
      <glyph glyph-name="unid7" unicode="&#xd7;" d="M124 112L77 158L233 316L77 472L124 519L280 363L436 519L483 472L327 316L483 158L437 112L280 268L124 112Z"  horiz-adv-x="560" vert-adv-y="1000"  />

      
      <glyph glyph-name="unid8" unicode="&#xd8;" d="M739 631L656 548Q733 454 733 330Q736 189 633 88Q530-13 390-11Q267-11 173 64L90-19L42 29L125 112Q48 206 48 330Q45 471 147 572Q249 673 390 671Q512 671 607 595L691 679L739 631M126 331Q126 235 178 165L557 544Q487 602 391 602Q278 602 202 524Q126 446 126 331M655 331Q655 426 603 496L224 115Q294 58 391 58Q503 58 579 137Q655 216 655 331Z"  horiz-adv-x="781" vert-adv-y="1000"  />

      
      <glyph glyph-name="unid9" unicode="&#xd9;" d="M82 262L82 660L160 660L160 257Q160 163 210.50 112Q261 61 345 61Q428 61 478 112Q528 163 528 257L528 660L606 660L606 262Q606 135 533.50 62Q461-11 345-11Q227-11 154.50 62Q82 135 82 262M315 724L195 896L195 910L289 910L374 724L315 724Z"  horiz-adv-x="689" vert-adv-y="1000"  />

      
      <glyph glyph-name="unida" unicode="&#xda;" d="M82 262L82 660L160 660L160 257Q160 163 210.50 112Q261 61 345 61Q428 61 478 112Q528 163 528 257L528 660L606 660L606 262Q606 135 533.50 62Q461-11 345-11Q227-11 154.50 62Q82 135 82 262M314 724L399 910L493 910L493 896L373 724L314 724Z"  horiz-adv-x="689" vert-adv-y="1000"  />

      
      <glyph glyph-name="unidb" unicode="&#xdb;" d="M82 262L82 660L160 660L160 257Q160 163 210.50 112Q261 61 345 61Q428 61 478 112Q528 163 528 257L528 660L606 660L606 262Q606 135 533.50 62Q461-11 345-11Q227-11 154.50 62Q82 135 82 262M514 724L454 724L344 832L233 724L173 724L320 910L367 910L514 724Z"  horiz-adv-x="689" vert-adv-y="1000"  />

      
      <glyph glyph-name="unidc" unicode="&#xdc;" d="M82 262L82 660L160 660L160 257Q160 163 210.50 112Q261 61 345 61Q428 61 478 112Q528 163 528 257L528 660L606 660L606 262Q606 135 533.50 62Q461-11 345-11Q227-11 154.50 62Q82 135 82 262M188.50 772.50Q188.50 772.50 180.25 780.25Q172 788 172 810Q172 832 188.50 847.50Q205 863 227 863Q250 863 266 847.50Q282 832 282 810Q282 788 266 772.50Q250 757 227 757Q205 757 188.50 772.50M421.50 771.50Q421.50 771.50 413.25 779.25Q405 787 405 809Q405 831 421.50 847Q438 863 460 863Q483 863 499 847Q515 831 515 809Q515 787 499 771.50Q483 756 460 756Q438 756 421.50 771.50Z"  horiz-adv-x="689" vert-adv-y="1000"  />

      
      <glyph glyph-name="unidd" unicode="&#xdd;" d="M576 660L347 273L347 0L269 0L269 273L40 660L128 660L308 350L489 660L576 660M276 724L361 910L455 910L455 896L335 724L276 724Z"  horiz-adv-x="616" vert-adv-y="1000"  />

      
      <glyph glyph-name="unide" unicode="&#xde;" d="M91 0L91 660L169 660L169 542L323 542Q419 542 476.50 488Q534 434 534 346Q534 260 476 204.50Q418 149 323 149L169 149L169 0L91 0M169 219L321 219Q383 219 418 253Q453 287 453 345Q453 403 418 437.50Q383 472 321 472L169 472L169 219Z"  horiz-adv-x="573" vert-adv-y="1000"  />

      
      <glyph glyph-name="unidf" unicode="&#xdf;" d="M248 57L291 113Q347 60 419 60Q505 60 505 121Q505 142 494 156Q483 172 470 179L417 211Q360 245 335 273Q310 301 310 336Q310 369 328 415L370 531Q385 572 385 603Q385 643 359.50 666.50Q334 690 290 690Q232 690 196.50 650Q161 610 161 537L161 0L85 0L85 540Q85 644 142 702Q201 761 295 761Q372 761 418 722Q464 683 464 615Q464 577 450 537L408 416Q391 369 391 349Q391 332 400 319Q413 303 473 267Q532 232 557.50 200Q583 168 583 125Q583 63 535 26Q487-11 413-11Q314-11 248 57Z"  horiz-adv-x="611" vert-adv-y="1000"  />

      
      <glyph glyph-name="unie0" unicode="&#xe0;" d="M450 300L450 0L378 0L378 63Q322-11 214-11Q138-11 91 26.50Q44 64 44 126Q44 188 92 225Q140 262 219 262L373 262L373 304Q373 363 341.50 395Q310 427 255 427Q173 427 113 349L62 391Q127 498 260 498Q348 498 399 446.50Q450 395 450 300M373 187L373 199L228 199Q123 199 123 130Q123 94 151.50 73.50Q180 53 224 53Q285 53 329 92Q373 131 373 187M229 566L109 766L109 780L203 780L288 566L229 566Z"  horiz-adv-x="528" vert-adv-y="1000"  />

      
      <glyph glyph-name="unie1" unicode="&#xe1;" d="M450 300L450 0L378 0L378 63Q322-11 214-11Q138-11 91 26.50Q44 64 44 126Q44 188 92 225Q140 262 219 262L373 262L373 304Q373 363 341.50 395Q310 427 255 427Q173 427 113 349L62 391Q127 498 260 498Q348 498 399 446.50Q450 395 450 300M373 187L373 199L228 199Q123 199 123 130Q123 94 151.50 73.50Q180 53 224 53Q285 53 329 92Q373 131 373 187M231 566L316 780L410 780L410 766L290 566L231 566Z"  horiz-adv-x="528" vert-adv-y="1000"  />

      
      <glyph glyph-name="unie2" unicode="&#xe2;" d="M450 300L450 0L378 0L378 63Q322-11 214-11Q138-11 91 26.50Q44 64 44 126Q44 188 92 225Q140 262 219 262L373 262L373 304Q373 363 341.50 395Q310 427 255 427Q173 427 113 349L62 391Q127 498 260 498Q348 498 399 446.50Q450 395 450 300M373 187L373 199L228 199Q123 199 123 130Q123 94 151.50 73.50Q180 53 224 53Q285 53 329 92Q373 131 373 187M418 566L360 566L260 694L159 566L100 566L236 780L283 780L418 566Z"  horiz-adv-x="528" vert-adv-y="1000"  />

      
      <glyph glyph-name="unie3" unicode="&#xe3;" d="M450 300L450 0L378 0L378 63Q322-11 214-11Q138-11 91 26.50Q44 64 44 126Q44 188 92 225Q140 262 219 262L373 262L373 304Q373 363 341.50 395Q310 427 255 427Q173 427 113 349L62 391Q127 498 260 498Q348 498 399 446.50Q450 395 450 300M373 187L373 199L228 199Q123 199 123 130Q123 94 151.50 73.50Q180 53 224 53Q285 53 329 92Q373 131 373 187M263 622L237 644Q236 645 228 651Q220 657 217 659Q214 661 207.50 664Q201 667 195 667Q167 667 167 626L167 609L103 609Q102 615 102 634Q102 680 125.50 709Q149 738 187 738Q223 738 255 712L281 690Q307 667 323 667Q351 667 351 708L351 725L415 725Q416 719 416 700Q416 654 392.50 625Q369 596 331 596Q296 596 263 622Z"  horiz-adv-x="528" vert-adv-y="1000"  />

      
      <glyph glyph-name="unie4" unicode="&#xe4;" d="M450 300L450 0L378 0L378 63Q322-11 214-11Q138-11 91 26.50Q44 64 44 126Q44 188 92 225Q140 262 219 262L373 262L373 304Q373 363 341.50 395Q310 427 255 427Q173 427 113 349L62 391Q127 498 260 498Q348 498 399 446.50Q450 395 450 300M373 187L373 199L228 199Q123 199 123 130Q123 94 151.50 73.50Q180 53 224 53Q285 53 329 92Q373 131 373 187M114 636Q114 636 105.50 644Q97 652 97 673Q97 694 114 710.50Q131 727 152 727Q175 727 191.50 711Q208 695 208 673Q208 651 191.50 635.50Q175 620 152 620Q131 620 114 636M309 673Q309 695 326 711Q343 727 365 727Q388 727 404 711Q420 695 420 673Q420 651 404 635.50Q388 620 365 620Q343 620 326 636Q309 652 309 673Z"  horiz-adv-x="528" vert-adv-y="1000"  />

      
      <glyph glyph-name="unie5" unicode="&#xe5;" d="M450 300L450 0L378 0L378 63Q322-11 214-11Q138-11 91 26.50Q44 64 44 126Q44 188 92 225Q140 262 219 262L373 262L373 304Q373 363 341.50 395Q310 427 255 427Q173 427 113 349L62 391Q127 498 260 498Q348 498 399 446.50Q450 395 450 300M373 187L373 199L228 199Q123 199 123 130Q123 94 151.50 73.50Q180 53 224 53Q285 53 329 92Q373 131 373 187M180 590.50Q180 590.50 164 606.25Q148 622 148 668Q148 714 179.50 745Q211 776 258 776Q305 776 337 745Q369 714 369 668Q369 622 337 590.50Q305 559 258 559Q212 559 180 590.50M294.50 632Q294.50 632 301.75 639Q309 646 309 668Q309 690 294 705Q279 720 259 720Q238 720 223 705Q208 690 208 668Q208 646 222.50 632Q237 618 259 618Q280 618 294.50 632Z"  horiz-adv-x="528" vert-adv-y="1000"  />

      
      <glyph glyph-name="unie6" unicode="&#xe6;" d="M837 211L455 211Q465 142 513.50 101Q562 60 632 60Q714 60 779 125L825 74Q749-11 631-11Q564-11 507.50 20.50Q451 52 418 107Q392 51 338.50 20Q285-11 216-11Q139-11 91.50 27.50Q44 66 44 130Q44 195 92 234.50Q140 274 219 274L373 274L373 304Q373 363 341.50 395Q310 427 256 427Q175 427 115 349L64 391Q96 443 148 470.50Q200 498 261 498Q385 498 428 396Q461 444 512.50 471Q564 498 624 498Q717 498 780.50 435.50Q844 373 844 277Q844 232 837 211M455 274L764 274Q768 343 726 385.50Q684 428 620 428Q555 428 509.50 385.50Q464 343 455 274M373 186L373 211L228 211Q123 211 123 138Q123 99 151.50 76.50Q180 54 225 54Q284 54 328.50 92.50Q373 131 373 186Z"  horiz-adv-x="895" vert-adv-y="1000"  />

      
      <glyph glyph-name="unie7" unicode="&#xe7;" d="M50 244Q48 348 124 424Q200 500 305 498Q368 498 420 470Q472 442 506 392L451 348Q393 427 306 427Q231 427 180 373.50Q129 320 129 244Q129 167 180 113.50Q231 60 306 60Q392 60 450 138L505 95Q433-11 305-11Q199-11 124.50 63.50Q50 138 50 244M174-181L174-126Q202-130 230-130Q308-130 308-65Q308-25 274 9L307 26Q374-8 374-76Q374-126 338-158.50Q302-191 242-191Q207-191 174-181Z"  horiz-adv-x="551" vert-adv-y="1000"  />

      
      <glyph glyph-name="unie8" unicode="&#xe8;" d="M515 220L130 220Q137 148 187 104Q237 60 309 60Q392 60 458 126L503 74Q421-11 308-11Q199-11 124.50 62.50Q50 136 50 243Q50 349 122.50 423.50Q195 498 299 498Q394 498 457.50 436Q521 374 521 278Q521 250 515 220M133 288L442 288Q441 352 400 390Q359 428 297 428Q236 428 191 389.50Q146 351 133 288M267 566L147 766L147 780L241 780L326 566L267 566Z"  horiz-adv-x="571" vert-adv-y="1000"  />

      
      <glyph glyph-name="unie9" unicode="&#xe9;" d="M515 220L130 220Q137 148 187 104Q237 60 309 60Q392 60 458 126L503 74Q421-11 308-11Q199-11 124.50 62.50Q50 136 50 243Q50 349 122.50 423.50Q195 498 299 498Q394 498 457.50 436Q521 374 521 278Q521 250 515 220M133 288L442 288Q441 352 400 390Q359 428 297 428Q236 428 191 389.50Q146 351 133 288M269 566L354 780L448 780L448 766L328 566L269 566Z"  horiz-adv-x="571" vert-adv-y="1000"  />

      
      <glyph glyph-name="uniea" unicode="&#xea;" d="M515 220L130 220Q137 148 187 104Q237 60 309 60Q392 60 458 126L503 74Q421-11 308-11Q199-11 124.50 62.50Q50 136 50 243Q50 349 122.50 423.50Q195 498 299 498Q394 498 457.50 436Q521 374 521 278Q521 250 515 220M133 288L442 288Q441 352 400 390Q359 428 297 428Q236 428 191 389.50Q146 351 133 288M456 566L398 566L298 694L197 566L138 566L274 780L321 780L456 566Z"  horiz-adv-x="571" vert-adv-y="1000"  />

      
      <glyph glyph-name="unieb" unicode="&#xeb;" d="M515 220L130 220Q137 148 187 104Q237 60 309 60Q392 60 458 126L503 74Q421-11 308-11Q199-11 124.50 62.50Q50 136 50 243Q50 349 122.50 423.50Q195 498 299 498Q394 498 457.50 436Q521 374 521 278Q521 250 515 220M133 288L442 288Q441 352 400 390Q359 428 297 428Q236 428 191 389.50Q146 351 133 288M152 636Q152 636 143.50 644Q135 652 135 673Q135 694 152 710.50Q169 727 190 727Q213 727 229.50 711Q246 695 246 673Q246 651 229.50 635.50Q213 620 190 620Q169 620 152 636M347 673Q347 695 364 711Q381 727 403 727Q426 727 442 711Q458 695 458 673Q458 651 442 635.50Q426 620 403 620Q381 620 364 636Q347 652 347 673Z"  horiz-adv-x="571" vert-adv-y="1000"  />

      
      <glyph glyph-name="uniec" unicode="&#xec;" d="M85 0L85 487L162 487L162 0L85 0M95 566L5 766L5 780L99 780L154 566L95 566Z"  horiz-adv-x="246" vert-adv-y="1000"  />

      
      <glyph glyph-name="unied" unicode="&#xed;" d="M85 0L85 487L162 487L162 0L85 0M93 566L148 780L242 780L242 766L152 566L93 566Z"  horiz-adv-x="246" vert-adv-y="1000"  />

      
      <glyph glyph-name="uniee" unicode="&#xee;" d="M85 0L85 487L162 487L162 0L85 0M283 566L225 566L125 694L24 566L-35 566L101 780L148 780L283 566Z"  horiz-adv-x="246" vert-adv-y="1000"  />

      
      <glyph glyph-name="unief" unicode="&#xef;" d="M85 0L85 487L162 487L162 0L85 0M-6.50 635.50Q-6.50 635.50-14.75 643.25Q-23 651-23 673Q-23 695-6.50 711Q10 727 32 727Q55 727 71.50 711Q88 695 88 673Q88 651 71.50 635.50Q55 620 32 620Q10 620-6.50 635.50M159 673Q159 695 176 711Q193 727 215 727Q238 727 254 711Q270 695 270 673Q270 651 254 635.50Q238 620 215 620Q193 620 176 636Q159 652 159 673Z"  horiz-adv-x="246" vert-adv-y="1000"  />

      
      <glyph glyph-name="unif0" unicode="&#xf0;" d="M518 222Q518 123 451.50 56Q385-11 284-11Q183-11 116.50 54.50Q50 120 50 217Q50 312 115.50 377Q181 442 275 442Q305 442 335 434L234 574L85 502L58 559L196 625L129 718L187 761L264 657L418 731L446 676L301 606L410 459Q450 404 470 372Q518 298 518 222M439 217Q439 284 395 328.50Q351 373 284 373Q217 373 173 328.50Q129 284 129 216Q129 148 173 104Q217 60 284 60Q351 60 395 104.50Q439 149 439 217Z"  horiz-adv-x="569" vert-adv-y="1000"  />

      
      <glyph glyph-name="unif1" unicode="&#xf1;" d="M488 306L488 0L411 0L411 297Q411 355 378.50 391Q346 427 290 427Q234 427 198 390.50Q162 354 162 297L162 0L85 0L85 487L157 487L157 435Q214 498 307 498Q391 498 439.50 445.50Q488 393 488 306M289 622L263 644Q262 645 254 651Q246 657 243 659Q240 661 233.50 664Q227 667 221 667Q193 667 193 626L193 609L129 609Q128 615 128 634Q128 680 151.50 709Q175 738 213 738Q249 738 281 712L307 690Q333 667 349 667Q377 667 377 708L377 725L441 725Q442 719 442 700Q442 654 418.50 625Q395 596 357 596Q322 596 289 622Z"  horiz-adv-x="566" vert-adv-y="1000"  />

      
      <glyph glyph-name="unif2" unicode="&#xf2;" d="M50 244Q48 348 124.50 424Q201 500 305 498Q410 500 486 424Q562 348 560 244Q562 141 485 64.50Q408-12 304-10Q200-12 124 64.50Q48 141 50 244M481 243Q481 321 430.50 374Q380 427 305 427Q230 427 179.50 374.50Q129 322 129 243Q129 166 179.50 113.50Q230 61 304 61Q378 61 429.50 114Q481 167 481 243M276 566L156 766L156 780L250 780L335 566L276 566Z"  horiz-adv-x="610" vert-adv-y="1000"  />

      
      <glyph glyph-name="unif3" unicode="&#xf3;" d="M50 244Q48 348 124.50 424Q201 500 305 498Q410 500 486 424Q562 348 560 244Q562 141 485 64.50Q408-12 304-10Q200-12 124 64.50Q48 141 50 244M481 243Q481 321 430.50 374Q380 427 305 427Q230 427 179.50 374.50Q129 322 129 243Q129 166 179.50 113.50Q230 61 304 61Q378 61 429.50 114Q481 167 481 243M278 566L363 780L457 780L457 766L337 566L278 566Z"  horiz-adv-x="610" vert-adv-y="1000"  />

      
      <glyph glyph-name="unif4" unicode="&#xf4;" d="M50 244Q48 348 124.50 424Q201 500 305 498Q410 500 486 424Q562 348 560 244Q562 141 485 64.50Q408-12 304-10Q200-12 124 64.50Q48 141 50 244M481 243Q481 321 430.50 374Q380 427 305 427Q230 427 179.50 374.50Q129 322 129 243Q129 166 179.50 113.50Q230 61 304 61Q378 61 429.50 114Q481 167 481 243M464 566L406 566L306 694L205 566L146 566L282 780L329 780L464 566Z"  horiz-adv-x="610" vert-adv-y="1000"  />

      
      <glyph glyph-name="unif5" unicode="&#xf5;" d="M50 244Q48 348 124.50 424Q201 500 305 498Q410 500 486 424Q562 348 560 244Q562 141 485 64.50Q408-12 304-10Q200-12 124 64.50Q48 141 50 244M481 243Q481 321 430.50 374Q380 427 305 427Q230 427 179.50 374.50Q129 322 129 243Q129 166 179.50 113.50Q230 61 304 61Q378 61 429.50 114Q481 167 481 243M309 622L283 644Q282 645 274 651Q266 657 263 659Q260 661 253.50 664Q247 667 241 667Q213 667 213 626L213 609L149 609Q148 615 148 634Q148 680 171.50 709Q195 738 233 738Q269 738 301 712L327 690Q353 667 369 667Q397 667 397 708L397 725L461 725Q462 719 462 700Q462 654 438.50 625Q415 596 377 596Q342 596 309 622Z"  horiz-adv-x="610" vert-adv-y="1000"  />

      
      <glyph glyph-name="unif6" unicode="&#xf6;" d="M50 244Q48 348 124.50 424Q201 500 305 498Q410 500 486 424Q562 348 560 244Q562 141 485 64.50Q408-12 304-10Q200-12 124 64.50Q48 141 50 244M481 243Q481 321 430.50 374Q380 427 305 427Q230 427 179.50 374.50Q129 322 129 243Q129 166 179.50 113.50Q230 61 304 61Q378 61 429.50 114Q481 167 481 243M160 636Q160 636 151.50 644Q143 652 143 673Q143 694 160 710.50Q177 727 198 727Q221 727 237.50 711Q254 695 254 673Q254 651 237.50 635.50Q221 620 198 620Q177 620 160 636M355 673Q355 695 372 711Q389 727 411 727Q434 727 450 711Q466 695 466 673Q466 651 450 635.50Q434 620 411 620Q389 620 372 636Q355 652 355 673Z"  horiz-adv-x="610" vert-adv-y="1000"  />

      
      <glyph glyph-name="unif7" unicode="&#xf7;" d="M223 491Q223 514 239 529.50Q255 545 278 545Q301 545 317 529.50Q333 514 333 491Q333 469 317 453.50Q301 438 278 438Q255 438 239 453.50Q223 469 223 491M56 281L56 349L503 349L503 281L56 281M223 135Q223 158 239 173Q255 188 278 188Q301 188 317 173Q333 158 333 135Q333 113 317 97.50Q301 82 278 82Q255 82 239 97.50Q223 113 223 135Z"  horiz-adv-x="560" vert-adv-y="1000"  />

      
      <glyph glyph-name="unif8" unicode="&#xf8;" d="M572 458L513 398Q565 331 565 243Q567 140 489.50 63.50Q412-13 309-11Q222-11 155 41L97-19L49 29L108 88Q56 155 56 243Q54 348 130 424Q206 500 310 498Q398 498 465 446L524 504L572 458M130 243Q130 182 160 136L418 396Q369 430 310 430Q232 430 181 376.50Q130 323 130 243M491 243Q491 304 461 350L202 91Q247 55 309 55Q385 55 438 109.50Q491 164 491 243Z"  horiz-adv-x="620" vert-adv-y="1000"  />

      
      <glyph glyph-name="unif9" unicode="&#xf9;" d="M79 194L79 487L155 487L155 189Q155 131 190.50 95.50Q226 60 281 60Q335 60 370 96Q405 132 405 189L405 487L482 487L482 194Q482 103 424.50 46Q367-11 281-11Q194-11 136.50 46Q79 103 79 194M250 566L130 766L130 780L224 780L309 566L250 566Z"  horiz-adv-x="560" vert-adv-y="1000"  />

      
      <glyph glyph-name="unifa" unicode="&#xfa;" d="M79 194L79 487L155 487L155 189Q155 131 190.50 95.50Q226 60 281 60Q335 60 370 96Q405 132 405 189L405 487L482 487L482 194Q482 103 424.50 46Q367-11 281-11Q194-11 136.50 46Q79 103 79 194M252 566L337 780L431 780L431 766L311 566L252 566Z"  horiz-adv-x="560" vert-adv-y="1000"  />

      
      <glyph glyph-name="unifb" unicode="&#xfb;" d="M79 194L79 487L155 487L155 189Q155 131 190.50 95.50Q226 60 281 60Q335 60 370 96Q405 132 405 189L405 487L482 487L482 194Q482 103 424.50 46Q367-11 281-11Q194-11 136.50 46Q79 103 79 194M439 566L381 566L281 694L180 566L121 566L257 780L304 780L439 566Z"  horiz-adv-x="560" vert-adv-y="1000"  />

      
      <glyph glyph-name="unifc" unicode="&#xfc;" d="M79 194L79 487L155 487L155 189Q155 131 190.50 95.50Q226 60 281 60Q335 60 370 96Q405 132 405 189L405 487L482 487L482 194Q482 103 424.50 46Q367-11 281-11Q194-11 136.50 46Q79 103 79 194M135 636Q135 636 126.50 644Q118 652 118 673Q118 694 135 710.50Q152 727 173 727Q196 727 212.50 711Q229 695 229 673Q229 651 212.50 635.50Q196 620 173 620Q152 620 135 636M330 673Q330 695 347 711Q364 727 386 727Q409 727 425 711Q441 695 441 673Q441 651 425 635.50Q409 620 386 620Q364 620 347 636Q330 652 330 673Z"  horiz-adv-x="560" vert-adv-y="1000"  />

      
      <glyph glyph-name="unifd" unicode="&#xfd;" d="M431 487L513 487L273-68Q219-191 108-191Q69-191 33-181L33-116Q75-121 92-121Q132-121 158-103.50Q184-86 202-43L228 15L26 487L109 487L270 99L431 487M239 566L324 780L418 780L418 766L298 566L239 566Z"  horiz-adv-x="539" vert-adv-y="1000"  />

      
      <glyph glyph-name="unife" unicode="&#xfe;" d="M513.50 425Q513.50 425 547.75 388.50Q582 352 582 244Q582 136 512.50 62.50Q443-11 341-11Q226-11 162 70L162-180L85-180L85 750L162 750L162 416Q191 454 238.50 476Q286 498 341 498Q445 498 513.50 425M453.50 112Q453.50 112 478.25 138Q503 164 503 243Q503 322 453.50 374.50Q404 427 330 427Q260 427 210.50 379Q161 331 161 244Q161 155 209.50 107.50Q258 60 330 60Q404 60 453.50 112Z"  horiz-adv-x="632" vert-adv-y="1000"  />

      
      <glyph glyph-name="uniff" unicode="&#xff;" d="M431 487L513 487L273-68Q219-191 108-191Q69-191 33-181L33-116Q75-121 92-121Q132-121 158-103.50Q184-86 202-43L228 15L26 487L109 487L270 99L431 487M122 636Q122 636 113.50 644Q105 652 105 673Q105 694 122 710.50Q139 727 160 727Q183 727 199.50 711Q216 695 216 673Q216 651 199.50 635.50Q183 620 160 620Q139 620 122 636M317 673Q317 695 334 711Q351 727 373 727Q396 727 412 711Q428 695 428 673Q428 651 412 635.50Q396 620 373 620Q351 620 334 636Q317 652 317 673Z"  horiz-adv-x="539" vert-adv-y="1000"  />

      
      <glyph glyph-name="uni0100" unicode="&#x0100;" d="M549 0L493 134L169 134L113 0L31 0L317 671L346 671L632 0L549 0M463 204L331 529L199 204L463 204M185 770L185 833L480 833L480 770L185 770Z"  horiz-adv-x="663" vert-adv-y="1000"  />

      
      <glyph glyph-name="uni0101" unicode="&#x0101;" d="M450 300L450 0L378 0L378 63Q322-11 214-11Q138-11 91 26.50Q44 64 44 126Q44 188 92 225Q140 262 219 262L373 262L373 304Q373 363 341.50 395Q310 427 255 427Q173 427 113 349L62 391Q127 498 260 498Q348 498 399 446.50Q450 395 450 300M373 187L373 199L228 199Q123 199 123 130Q123 94 151.50 73.50Q180 53 224 53Q285 53 329 92Q373 131 373 187M122 642L122 704L397 704L397 642L122 642Z"  horiz-adv-x="528" vert-adv-y="1000"  />

      
      <glyph glyph-name="uni0102" unicode="&#x0102;" d="M549 0L493 134L169 134L113 0L31 0L317 671L346 671L632 0L549 0M463 204L331 529L199 204L463 204M180 885L180 910L243 910L243 886Q243 841 267 814Q291 787 331 787Q372 787 396 813.50Q420 840 420 886L420 910L483 910L483 885Q483 814 440.50 770Q398 726 331 726Q263 726 221.50 769.50Q180 813 180 885Z"  horiz-adv-x="663" vert-adv-y="1000"  />

      
      <glyph glyph-name="uni0103" unicode="&#x0103;" d="M450 300L450 0L378 0L378 63Q322-11 214-11Q138-11 91 26.50Q44 64 44 126Q44 188 92 225Q140 262 219 262L373 262L373 304Q373 363 341.50 395Q310 427 255 427Q173 427 113 349L62 391Q127 498 260 498Q348 498 399 446.50Q450 395 450 300M373 187L373 199L228 199Q123 199 123 130Q123 94 151.50 73.50Q180 53 224 53Q285 53 329 92Q373 131 373 187M107 731L107 762L170 762L170 733Q170 687 194 660.50Q218 634 258 634Q299 634 323 660.50Q347 687 347 733L347 762L410 762L410 731Q410 660 368 616.50Q326 573 258 573Q191 573 149 617Q107 661 107 731Z"  horiz-adv-x="528" vert-adv-y="1000"  />

      
      <glyph glyph-name="uni0104" unicode="&#x0104;" d="M549 0L493 134L169 134L113 0L31 0L317 671L346 671L632 0L549 0M463 204L331 529L199 204L463 204M454-104Q454-67 486-37Q518-8 602 35L633 0L583-33Q550-55 540.50-65.50Q531-76 531-92Q531-129 579-129Q602-129 633-122L633-180Q597-191 561-191Q513-191 483.50-167Q454-143 454-104Z"  horiz-adv-x="663" vert-adv-y="1000"  />

      
      <glyph glyph-name="uni0105" unicode="&#x0105;" d="M450 300L450 0L378 0L378 63Q322-11 214-11Q138-11 91 26.50Q44 64 44 126Q44 188 92 225Q140 262 219 262L373 262L373 304Q373 363 341.50 395Q310 427 255 427Q173 427 113 349L62 391Q127 498 260 498Q348 498 399 446.50Q450 395 450 300M373 187L373 199L228 199Q123 199 123 130Q123 94 151.50 73.50Q180 53 224 53Q285 53 329 92Q373 131 373 187M271-104Q271-67 303-37Q335-8 419 35L450 0L400-33Q377-49 368.50-56Q360-63 354-72Q348-81 348-92Q348-129 396-129Q419-129 450-122L450-180Q414-191 378-191Q330-191 300.50-167Q271-143 271-104Z"  horiz-adv-x="528" vert-adv-y="1000"  />

      
      <glyph glyph-name="uni0106" unicode="&#x0106;" d="M48 330Q45 471 147.50 572Q250 673 391 671Q478 671 550.50 633Q623 595 665 529L607 483Q526 599 392 599Q280 599 204.50 522Q129 445 129 330Q129 215 204.50 138Q280 61 392 61Q526 61 607 177L665 131Q623 65 550.50 27Q478-11 391-11Q250-13 147.50 88Q45 189 48 330M362 724L447 910L541 910L541 896L421 724L362 724Z"  horiz-adv-x="715" vert-adv-y="1000"  />

      
      <glyph glyph-name="uni0107" unicode="&#x0107;" d="M50 244Q48 348 124 424Q200 500 305 498Q368 498 420 470Q472 442 506 392L451 348Q393 427 306 427Q231 427 180 373.50Q129 320 129 244Q129 167 180 113.50Q231 60 306 60Q392 60 450 138L505 95Q433-11 305-11Q199-11 124.50 63.50Q50 138 50 244M277 566L362 780L456 780L456 766L336 566L277 566Z"  horiz-adv-x="551" vert-adv-y="1000"  />

      
      <glyph glyph-name="uni0108" unicode="&#x0108;" d="M48 330Q45 471 147.50 572Q250 673 391 671Q478 671 550.50 633Q623 595 665 529L607 483Q526 599 392 599Q280 599 204.50 522Q129 445 129 330Q129 215 204.50 138Q280 61 392 61Q526 61 607 177L665 131Q623 65 550.50 27Q478-11 391-11Q250-13 147.50 88Q45 189 48 330M561 724L501 724L391 832L280 724L220 724L367 910L414 910L561 724Z"  horiz-adv-x="715" vert-adv-y="1000"  />

      
      <glyph glyph-name="uni0109" unicode="&#x0109;" d="M50 244Q48 348 124 424Q200 500 305 498Q368 498 420 470Q472 442 506 392L451 348Q393 427 306 427Q231 427 180 373.50Q129 320 129 244Q129 167 180 113.50Q231 60 306 60Q392 60 450 138L505 95Q433-11 305-11Q199-11 124.50 63.50Q50 138 50 244M463 566L405 566L305 694L204 566L145 566L281 780L328 780L463 566Z"  horiz-adv-x="551" vert-adv-y="1000"  />

      
      <glyph glyph-name="uni010A" unicode="&#x010A;" d="M48 330Q45 471 147.50 572Q250 673 391 671Q478 671 550.50 633Q623 595 665 529L607 483Q526 599 392 599Q280 599 204.50 522Q129 445 129 330Q129 215 204.50 138Q280 61 392 61Q526 61 607 177L665 131Q623 65 550.50 27Q478-11 391-11Q250-13 147.50 88Q45 189 48 330M333 810Q333 833 350 849.50Q367 866 391 866Q414 866 431 849.50Q448 833 448 810Q448 786 431.50 770Q415 754 391 754Q367 754 350 770Q333 786 333 810Z"  horiz-adv-x="715" vert-adv-y="1000"  />

      
      <glyph glyph-name="uni010B" unicode="&#x010B;" d="M50 244Q48 348 124 424Q200 500 305 498Q368 498 420 470Q472 442 506 392L451 348Q393 427 306 427Q231 427 180 373.50Q129 320 129 244Q129 167 180 113.50Q231 60 306 60Q392 60 450 138L505 95Q433-11 305-11Q199-11 124.50 63.50Q50 138 50 244M246 673Q246 696 263 712.50Q280 729 304 729Q327 729 344 712.50Q361 696 361 673Q361 649 344.50 633Q328 617 304 617Q280 617 263 633Q246 649 246 673Z"  horiz-adv-x="551" vert-adv-y="1000"  />

      
      <glyph glyph-name="uni010C" unicode="&#x010C;" d="M48 330Q45 471 147.50 572Q250 673 391 671Q478 671 550.50 633Q623 595 665 529L607 483Q526 599 392 599Q280 599 204.50 522Q129 445 129 330Q129 215 204.50 138Q280 61 392 61Q526 61 607 177L665 131Q623 65 550.50 27Q478-11 391-11Q250-13 147.50 88Q45 189 48 330M501 910L561 910L414 724L367 724L220 910L280 910L391 802L501 910Z"  horiz-adv-x="715" vert-adv-y="1000"  />

      
      <glyph glyph-name="uni010D" unicode="&#x010D;" d="M50 244Q48 348 124 424Q200 500 305 498Q368 498 420 470Q472 442 506 392L451 348Q393 427 306 427Q231 427 180 373.50Q129 320 129 244Q129 167 180 113.50Q231 60 306 60Q392 60 450 138L505 95Q433-11 305-11Q199-11 124.50 63.50Q50 138 50 244M405 780L463 780L328 566L281 566L145 780L204 780L305 652L405 780Z"  horiz-adv-x="551" vert-adv-y="1000"  />

      
      <glyph glyph-name="uni010E" unicode="&#x010E;" d="M91 0L91 660L287 660Q451 660 548.50 568.50Q646 477 646 331Q646 186 548 93Q450 0 287 0L91 0M169 70L286 70Q414 70 489.50 143Q565 216 565 331Q565 447 490 518.50Q415 590 286 590L169 590L169 70M395 910L455 910L308 724L261 724L114 910L174 910L285 802L395 910Z"  horiz-adv-x="694" vert-adv-y="1000"  />

      
      <glyph glyph-name="uni010F" unicode="&#x010F;" d="M471 750L548 750L548 0L475 0L475 77Q447 36 397.50 12.50Q348-11 291-11Q188-11 119 62.50Q50 136 50 243Q50 351 119.50 424.50Q189 498 291 498Q346 498 394 476Q442 454 471 415L471 750M472 243Q472 331 422.50 379Q373 427 302 427Q228 427 178.50 375Q129 323 129 244Q129 165 178.50 112.50Q228 60 302 60Q373 60 422.50 108Q472 156 472 243M648 539L661 750L744 750L705 539L648 539Z"  horiz-adv-x="744" vert-adv-y="1000"  />

      
      <glyph glyph-name="uni0110" unicode="&#x0110;" d="M646 331Q646 186 548 93Q450 0 287 0L91 0L91 274L-4 274L-4 340L91 340L91 660L287 660Q451 660 548.50 568.50Q646 477 646 331M565 331Q565 447 490 518.50Q415 590 286 590L169 590L169 340L299 340L299 274L169 274L169 70L286 70Q414 70 489.50 143Q565 216 565 331Z"  horiz-adv-x="694" vert-adv-y="1000"  />

      
      <glyph glyph-name="uni0111" unicode="&#x0111;" d="M629 645L629 581L546 581L546 0L474 0L474 79Q445 37 394.50 13Q344-11 287-11Q187-11 118 60.50Q49 132 49 236Q49 342 117.50 413Q186 484 287 484Q343 484 391.50 461.50Q440 439 470 399L470 581L251 581L251 645L470 645L470 750L546 750L546 645L629 645M421 104Q421 104 445.50 127Q470 150 470 236Q470 322 421 368.50Q372 415 301 415Q226 415 177 364.50Q128 314 128 236Q128 160 177.50 109Q227 58 301 58Q372 58 421 104Z"  horiz-adv-x="634" vert-adv-y="1000"  />

      
      <glyph glyph-name="uni0112" unicode="&#x0112;" d="M91 0L91 660L514 660L514 590L169 590L169 388L433 388L433 318L169 318L169 70L526 70L526 0L91 0M156 770L156 833L451 833L451 770L156 770Z"  horiz-adv-x="566" vert-adv-y="1000"  />

      
      <glyph glyph-name="uni0113" unicode="&#x0113;" d="M515 220L130 220Q137 148 187 104Q237 60 309 60Q392 60 458 126L503 74Q421-11 308-11Q199-11 124.50 62.50Q50 136 50 243Q50 349 122.50 423.50Q195 498 299 498Q394 498 457.50 436Q521 374 521 278Q521 250 515 220M133 288L442 288Q441 352 400 390Q359 428 297 428Q236 428 191 389.50Q146 351 133 288M160 642L160 704L435 704L435 642L160 642Z"  horiz-adv-x="571" vert-adv-y="1000"  />

      
      <glyph glyph-name="uni0114" unicode="&#x0114;" d="M91 0L91 660L514 660L514 590L169 590L169 388L433 388L433 318L169 318L169 70L526 70L526 0L91 0M151 885L151 910L214 910L214 886Q214 841 238 814Q262 787 302 787Q343 787 367 813.50Q391 840 391 886L391 910L454 910L454 885Q454 814 411.50 770Q369 726 302 726Q234 726 192.50 769.50Q151 813 151 885Z"  horiz-adv-x="566" vert-adv-y="1000"  />

      
      <glyph glyph-name="uni0115" unicode="&#x0115;" d="M515 220L130 220Q137 148 187 104Q237 60 309 60Q392 60 458 126L503 74Q421-11 308-11Q199-11 124.50 62.50Q50 136 50 243Q50 349 122.50 423.50Q195 498 299 498Q394 498 457.50 436Q521 374 521 278Q521 250 515 220M133 288L442 288Q441 352 400 390Q359 428 297 428Q236 428 191 389.50Q146 351 133 288M145 731L145 762L208 762L208 733Q208 687 232 660.50Q256 634 296 634Q337 634 361 660.50Q385 687 385 733L385 762L448 762L448 731Q448 660 406 616.50Q364 573 296 573Q229 573 187 617Q145 661 145 731Z"  horiz-adv-x="571" vert-adv-y="1000"  />

      
      <glyph glyph-name="uni0116" unicode="&#x0116;" d="M91 0L91 660L514 660L514 590L169 590L169 388L433 388L433 318L169 318L169 70L526 70L526 0L91 0M245 810Q245 833 262 849.50Q279 866 303 866Q326 866 343 849.50Q360 833 360 810Q360 786 343.50 770Q327 754 303 754Q279 754 262 770Q245 786 245 810Z"  horiz-adv-x="566" vert-adv-y="1000"  />

      
      <glyph glyph-name="uni0117" unicode="&#x0117;" d="M515 220L130 220Q137 148 187 104Q237 60 309 60Q392 60 458 126L503 74Q421-11 308-11Q199-11 124.50 62.50Q50 136 50 243Q50 349 122.50 423.50Q195 498 299 498Q394 498 457.50 436Q521 374 521 278Q521 250 515 220M133 288L442 288Q441 352 400 390Q359 428 297 428Q236 428 191 389.50Q146 351 133 288M239 673Q239 696 256 712.50Q273 729 297 729Q320 729 337 712.50Q354 696 354 673Q354 649 337.50 633Q321 617 297 617Q273 617 256 633Q239 649 239 673Z"  horiz-adv-x="571" vert-adv-y="1000"  />

      
      <glyph glyph-name="uni0118" unicode="&#x0118;" d="M91 0L91 660L514 660L514 590L169 590L169 388L433 388L433 318L169 318L169 70L526 70L526 0L91 0M347-104Q347-67 379-37Q411-8 495 35L526 0L476-33Q444-55 434-65.50Q424-76 424-92Q424-129 472-129Q495-129 526-122L526-180Q490-191 454-191Q406-191 376.50-167Q347-143 347-104Z"  horiz-adv-x="566" vert-adv-y="1000"  />

      
      <glyph glyph-name="uni0119" unicode="&#x0119;" d="M515 220L130 220Q137 148 187 104Q237 60 309 60Q392 60 458 126L503 74Q421-11 308-11Q199-11 124.50 62.50Q50 136 50 243Q50 349 122.50 423.50Q195 498 299 498Q394 498 457.50 436Q521 374 521 278Q521 250 515 220M133 288L442 288Q441 352 400 390Q359 428 297 428Q236 428 191 389.50Q146 351 133 288M295-104Q297-63 318-33.50Q339-4 422 74L502 74L410-24Q388-49 380.50-61.50Q373-74 373-92Q373-129 420-129Q443-129 474-122L474-180Q438-191 402-191Q354-191 324.50-167.50Q295-144 295-104Z"  horiz-adv-x="571" vert-adv-y="1000"  />

      
      <glyph glyph-name="uni011A" unicode="&#x011A;" d="M91 0L91 660L514 660L514 590L169 590L169 388L433 388L433 318L169 318L169 70L526 70L526 0L91 0M413 910L473 910L326 724L279 724L132 910L192 910L303 802L413 910Z"  horiz-adv-x="566" vert-adv-y="1000"  />

      
      <glyph glyph-name="uni011B" unicode="&#x011B;" d="M515 220L130 220Q137 148 187 104Q237 60 309 60Q392 60 458 126L503 74Q421-11 308-11Q199-11 124.50 62.50Q50 136 50 243Q50 349 122.50 423.50Q195 498 299 498Q394 498 457.50 436Q521 374 521 278Q521 250 515 220M133 288L442 288Q441 352 400 390Q359 428 297 428Q236 428 191 389.50Q146 351 133 288M398 780L456 780L321 566L274 566L138 780L197 780L298 652L398 780Z"  horiz-adv-x="571" vert-adv-y="1000"  />

      
      <glyph glyph-name="uni011C" unicode="&#x011C;" d="M48 330Q46 472 147.50 572.50Q249 673 391 671Q474 671 544 635.50Q614 600 660 536L601 490Q520 599 391 599Q279 601 203 522Q127 443 129 331Q127 217 204.50 137Q282 57 395 59Q466 59 523.50 90.50Q581 122 615 177L615 266L390 266L390 336L693 336L693 160Q649 82 568 35Q489-11 391-11Q249-13 147.50 87.50Q46 188 48 330M563 724L503 724L393 832L282 724L222 724L369 910L416 910L563 724Z"  horiz-adv-x="746" vert-adv-y="1000"  />

      
      <glyph glyph-name="uni011D" unicode="&#x011D;" d="M480 487L553 487L553 47Q553-63 489-127Q425-191 316-191Q181-191 87-97L132-43Q220-120 314-120Q390-120 433-77.50Q476-35 476 43L476 86Q447 48 398.50 26.50Q350 5 295 5Q192 5 124 75Q56 145 56 251Q56 356 124.50 427Q193 498 295 498Q353 498 402.50 474.50Q452 451 480 409L480 487M477 251Q477 334 427.50 379.50Q378 425 307 425Q232 425 183 375.50Q134 326 134 250Q134 173 183 124.50Q232 76 307 76Q379 76 428 121.50Q477 167 477 251M470 566L412 566L312 694L211 566L152 566L288 780L335 780L470 566Z"  horiz-adv-x="637" vert-adv-y="1000"  />

      
      <glyph glyph-name="uni011E" unicode="&#x011E;" d="M48 330Q46 472 147.50 572.50Q249 673 391 671Q474 671 544 635.50Q614 600 660 536L601 490Q520 599 391 599Q279 601 203 522Q127 443 129 331Q127 217 204.50 137Q282 57 395 59Q466 59 523.50 90.50Q581 122 615 177L615 266L390 266L390 336L693 336L693 160Q649 82 568 35Q489-11 391-11Q249-13 147.50 87.50Q46 188 48 330M241 885L241 910L304 910L304 886Q304 841 328 814Q352 787 392 787Q433 787 457 813.50Q481 840 481 886L481 910L544 910L544 885Q544 814 501.50 770Q459 726 392 726Q324 726 282.50 769.50Q241 813 241 885Z"  horiz-adv-x="746" vert-adv-y="1000"  />

      
      <glyph glyph-name="uni011F" unicode="&#x011F;" d="M480 487L553 487L553 47Q553-63 489-127Q425-191 316-191Q181-191 87-97L132-43Q220-120 314-120Q390-120 433-77.50Q476-35 476 43L476 86Q447 48 398.50 26.50Q350 5 295 5Q192 5 124 75Q56 145 56 251Q56 356 124.50 427Q193 498 295 498Q353 498 402.50 474.50Q452 451 480 409L480 487M477 251Q477 334 427.50 379.50Q378 425 307 425Q232 425 183 375.50Q134 326 134 250Q134 173 183 124.50Q232 76 307 76Q379 76 428 121.50Q477 167 477 251M159 731L159 762L222 762L222 733Q222 687 246 660.50Q270 634 310 634Q351 634 375 660.50Q399 687 399 733L399 762L462 762L462 731Q462 660 420 616.50Q378 573 310 573Q243 573 201 617Q159 661 159 731Z"  horiz-adv-x="637" vert-adv-y="1000"  />

      
      <glyph glyph-name="uni0120" unicode="&#x0120;" d="M48 330Q46 472 147.50 572.50Q249 673 391 671Q474 671 544 635.50Q614 600 660 536L601 490Q520 599 391 599Q279 601 203 522Q127 443 129 331Q127 217 204.50 137Q282 57 395 59Q466 59 523.50 90.50Q581 122 615 177L615 266L390 266L390 336L693 336L693 160Q649 82 568 35Q489-11 391-11Q249-13 147.50 87.50Q46 188 48 330M335 810Q335 833 352 849.50Q369 866 393 866Q416 866 433 849.50Q450 833 450 810Q450 786 433.50 770Q417 754 393 754Q369 754 352 770Q335 786 335 810Z"  horiz-adv-x="746" vert-adv-y="1000"  />

      
      <glyph glyph-name="uni0121" unicode="&#x0121;" d="M480 487L553 487L553 47Q553-63 489-127Q425-191 316-191Q181-191 87-97L132-43Q220-120 314-120Q390-120 433-77.50Q476-35 476 43L476 86Q447 48 398.50 26.50Q350 5 295 5Q192 5 124 75Q56 145 56 251Q56 356 124.50 427Q193 498 295 498Q353 498 402.50 474.50Q452 451 480 409L480 487M477 251Q477 334 427.50 379.50Q378 425 307 425Q232 425 183 375.50Q134 326 134 250Q134 173 183 124.50Q232 76 307 76Q379 76 428 121.50Q477 167 477 251M253 673Q253 696 270 712.50Q287 729 311 729Q334 729 351 712.50Q368 696 368 673Q368 649 351.50 633Q335 617 311 617Q287 617 270 633Q253 649 253 673Z"  horiz-adv-x="637" vert-adv-y="1000"  />

      
      <glyph glyph-name="uni0122" unicode="&#x0122;" d="M48 330Q46 472 147.50 572.50Q249 673 391 671Q474 671 544 635.50Q614 600 660 536L601 490Q520 599 391 599Q279 601 203 522Q127 443 129 331Q127 217 204.50 137Q282 57 395 59Q466 59 523.50 90.50Q581 122 615 177L615 266L390 266L390 336L693 336L693 160Q649 82 568 35Q489-11 391-11Q249-13 147.50 87.50Q46 188 48 330M345-220L354-49L430-49L405-220L345-220Z"  horiz-adv-x="746" vert-adv-y="1000"  />

      
      <glyph glyph-name="uni0123" unicode="&#x0123;" d="M480 487L553 487L553 47Q553-63 489-127Q425-191 316-191Q181-191 87-97L132-43Q220-120 314-120Q390-120 433-77.50Q476-35 476 43L476 86Q447 48 398.50 26.50Q350 5 295 5Q192 5 124 75Q56 145 56 251Q56 356 124.50 427Q193 498 295 498Q353 498 402.50 474.50Q452 451 480 409L480 487M477 251Q477 334 427.50 379.50Q378 425 307 425Q232 425 183 375.50Q134 326 134 250Q134 173 183 124.50Q232 76 307 76Q379 76 428 121.50Q477 167 477 251M273 566L305 780L363 780L349 566L273 566Z"  horiz-adv-x="637" vert-adv-y="1000"  />

      
      <glyph glyph-name="uni0124" unicode="&#x0124;" d="M91 0L91 660L169 660L169 388L539 388L539 660L617 660L617 0L539 0L539 318L169 318L169 0L91 0M524 724L464 724L354 832L243 724L183 724L330 910L377 910L524 724Z"  horiz-adv-x="708" vert-adv-y="1000"  />

      
      <glyph glyph-name="uni0125" unicode="&#x0125;" d="M488 306L488 0L411 0L411 296Q411 356 378.50 391.50Q346 427 290 427Q234 427 198 390Q162 353 162 296L162 0L85 0L85 750L162 750L162 432Q215 498 308 498Q391 498 439.50 445.50Q488 393 488 306M332 814L272 814L162 922L51 814L-9 814L138 1000L185 1000L332 814Z"  horiz-adv-x="566" vert-adv-y="1000"  />

      
      <glyph glyph-name="uni0126" unicode="&#x0126;" d="M95 0L95 460L-4 460L-4 526L95 526L95 660L173 660L173 526L544 526L544 660L622 660L622 526L722 526L722 460L622 460L622 0L544 0L544 253L173 253L173 0L95 0M173 324L544 324L544 460L173 460L173 324Z"  horiz-adv-x="719" vert-adv-y="1000"  />

      
      <glyph glyph-name="uni0127" unicode="&#x0127;" d="M492 293L492 0L415 0L415 284Q415 342 382 377.50Q349 413 294 413Q237 413 200.50 376.50Q164 340 164 284L164 0L88 0L88 579L5 579L5 647L88 647L88 750L164 750L164 647L366 647L366 579L164 579L164 417Q215 484 311 484Q394 484 443 432Q492 380 492 293Z"  horiz-adv-x="570" vert-adv-y="1000"  />

      
      <glyph glyph-name="uni0128" unicode="&#x0128;" d="M91 0L91 660L169 660L169 0L91 0M138 766L105 786Q75 806 62 806Q48 806 40 795Q32 784 32 768L32 752L-32 752Q-34 770-34 777Q-34 821-10 849.50Q14 878 53 878Q86 878 123 855L157 833Q186 813 201 813Q215 813 223 823.50Q231 834 231 850L231 868L295 868Q296 863 296 842Q296 799 272.50 770.50Q249 742 211 742Q177 742 138 766Z"  horiz-adv-x="259" vert-adv-y="1000"  />

      
      <glyph glyph-name="uni0129" unicode="&#x0129;" d="M85 0L85 487L162 487L162 0L85 0M124 626L105 644Q82 667 69 667Q42 667 42 626L42 609L-22 609Q-24 623-24 633Q-24 679-1 708.50Q22 738 60 738Q96 738 125 709L144 690Q167 667 180 667Q206 667 206 708L206 725L269 725Q271 711 271 701Q271 655 249 625.50Q227 596 189 596Q156 596 124 626Z"  horiz-adv-x="246" vert-adv-y="1000"  />

      
      <glyph glyph-name="uni012A" unicode="&#x012A;" d="M91 0L91 660L169 660L169 0L91 0M-16 770L-16 833L279 833L279 770L-16 770Z"  horiz-adv-x="259" vert-adv-y="1000"  />

      
      <glyph glyph-name="uni012B" unicode="&#x012B;" d="M85 0L85 487L162 487L162 0L85 0M14 641L14 705L234 705L234 641L14 641Z"  horiz-adv-x="246" vert-adv-y="1000"  />

      
      <glyph glyph-name="uni012C" unicode="&#x012C;" d="M91 0L91 660L169 660L169 0L91 0M-21 885L-21 910L42 910L42 886Q42 841 66 814Q90 787 130 787Q171 787 195 813.50Q219 840 219 886L219 910L282 910L282 885Q282 814 239.50 770Q197 726 130 726Q62 726 20.50 769.50Q-21 813-21 885Z"  horiz-adv-x="259" vert-adv-y="1000"  />

      
      <glyph glyph-name="uni012D" unicode="&#x012D;" d="M85 0L85 487L162 487L162 0L85 0M-28 731L-28 762L35 762L35 733Q35 687 59 660.50Q83 634 123 634Q164 634 188 660.50Q212 687 212 733L212 762L275 762L275 731Q275 660 233 616.50Q191 573 123 573Q56 573 14 617Q-28 661-28 731Z"  horiz-adv-x="246" vert-adv-y="1000"  />

      
      <glyph glyph-name="uni012E" unicode="&#x012E;" d="M91 0L91 660L169 660L169 0L91 0M-10-104Q-10-67 22-37Q54-8 138 35L169 0L119-33Q86-55 76.50-65.50Q67-76 67-92Q67-129 115-129Q138-129 169-122L169-180Q133-191 97-191Q49-191 19.50-167Q-10-143-10-104Z"  horiz-adv-x="259" vert-adv-y="1000"  />

      
      <glyph glyph-name="uni012F" unicode="&#x012F;" d="M85 0L85 487L162 487L162 0L85 0M66 673Q66 696 83 712.50Q100 729 124 729Q147 729 164 712.50Q181 696 181 673Q181 649 164.50 633Q148 617 124 617Q100 617 83 633Q66 649 66 673M-17-104Q-17-67 15-37Q47-8 131 35L162 0L112-33Q80-55 70-65.50Q60-76 60-92Q60-129 108-129Q131-129 162-122L162-180Q126-191 90-191Q42-191 12.50-167Q-17-143-17-104Z"  horiz-adv-x="246" vert-adv-y="1000"  />

      
      <glyph glyph-name="uni0130" unicode="&#x0130;" d="M91 0L91 660L169 660L169 0L91 0M73 810Q73 833 90 849.50Q107 866 131 866Q154 866 171 849.50Q188 833 188 810Q188 786 171.50 770Q155 754 131 754Q107 754 90 770Q73 786 73 810Z"  horiz-adv-x="259" vert-adv-y="1000"  />

      
      <glyph glyph-name="uni0131" unicode="&#x0131;" d="M85 0L85 487L162 487L162 0L85 0Z"  horiz-adv-x="246" vert-adv-y="1000"  />

      
      <glyph glyph-name="uni0132" unicode="&#x0132;" d="M91 0L91 660L169 660L169 0L91 0M283 0L283 67Q324 61 355 61Q411 61 437.50 83.50Q464 106 464 160L464 660L542 660L542 153Q542 71 497 30Q452-11 370-11Q333-11 283 0Z"  horiz-adv-x="633" vert-adv-y="1000"  />

      
      <glyph glyph-name="uni0133" unicode="&#x0133;" d="M85 0L85 487L162 487L162 0L85 0M66 673Q66 696 83 712.50Q100 729 124 729Q147 729 164 712.50Q181 696 181 673Q181 649 164.50 633Q148 617 124 617Q100 617 83 633Q66 649 66 673M186-183L186-118Q212-121 231-121Q281-121 306-99Q331-77 331-28L331 487L408 487L408-33Q408-111 365.50-151Q323-191 248-191Q216-191 186-183M312 673Q312 696 329 712.50Q346 729 370 729Q393 729 410 712.50Q427 696 427 673Q427 649 410.50 633Q394 617 370 617Q346 617 329 633Q312 649 312 673Z"  horiz-adv-x="492" vert-adv-y="1000"  />

      
      <glyph glyph-name="uni0134" unicode="&#x0134;" d="M24 0L24 67Q64 61 96 61Q152 61 178.50 83.50Q205 106 205 160L205 660L283 660L283 153Q283 71 238 30Q193-11 111-11Q74-11 24 0M405 724L345 724L235 832L124 724L64 724L211 910L258 910L405 724Z"  horiz-adv-x="373" vert-adv-y="1000"  />

      
      <glyph glyph-name="uni0135" unicode="&#x0135;" d="M-60-183L-60-118Q-34-121-15-121Q35-121 60-99Q85-77 85-28L85 487L162 487L162-33Q162-111 119.50-151Q77-191 2-191Q-30-191-60-183M283 566L225 566L125 694L24 566L-35 566L101 780L148 780L283 566Z"  horiz-adv-x="246" vert-adv-y="1000"  />

      
      <glyph glyph-name="uni0136" unicode="&#x0136;" d="M91 0L91 660L169 660L169 0L91 0M280 354L602 0L503 0L178 354L475 660L575 660L280 354M256-220L265-49L341-49L316-220L256-220Z"  horiz-adv-x="633" vert-adv-y="1000"  />

      
      <glyph glyph-name="uni0137" unicode="&#x0137;" d="M85 0L85 750L162 750L162 0L85 0M263 273L493 0L394 0L170 274L373 487L474 487L263 273M206-220L215-49L291-49L266-220L206-220Z"  horiz-adv-x="506" vert-adv-y="1000"  />

      
      <glyph glyph-name="uni0139" unicode="&#x0139;" d="M91 0L91 660L169 660L169 70L482 70L482 0L91 0M100 724L185 910L279 910L279 896L159 724L100 724Z"  horiz-adv-x="506" vert-adv-y="1000"  />

      
      <glyph glyph-name="uni013A" unicode="&#x013A;" d="M85 0L85 750L162 750L162 0L85 0M94 814L179 1000L273 1000L273 986L153 814L94 814Z"  horiz-adv-x="246" vert-adv-y="1000"  />

      
      <glyph glyph-name="uni013B" unicode="&#x013B;" d="M91 0L91 660L169 660L169 70L482 70L482 0L91 0M231-220L240-49L316-49L291-220L231-220Z"  horiz-adv-x="506" vert-adv-y="1000"  />

      
      <glyph glyph-name="uni013C" unicode="&#x013C;" d="M85 0L85 750L162 750L162 0L85 0M76-220L85-49L161-49L136-220L76-220Z"  horiz-adv-x="246" vert-adv-y="1000"  />

      
      <glyph glyph-name="uni013D" unicode="&#x013D;" d="M91 0L91 660L169 660L169 70L482 70L482 0L91 0M363 509L376 720L459 720L420 509L363 509Z"  horiz-adv-x="506" vert-adv-y="1000"  />

      
      <glyph glyph-name="uni013E" unicode="&#x013E;" d="M85 0L85 750L162 750L162 0L85 0M262 539L275 750L358 750L319 539L262 539Z"  horiz-adv-x="358" vert-adv-y="1000"  />

      
      <glyph glyph-name="uni013F" unicode="&#x013F;" d="M91 0L91 660L169 660L169 70L482 70L482 0L91 0M343.50 323Q343.50 323 334.25 332Q325 341 325 368Q325 395 343.50 413Q362 431 388 431Q414 431 432.50 413Q451 395 451 368Q451 341 432.50 323Q414 305 388 305Q362 305 343.50 323Z"  horiz-adv-x="506" vert-adv-y="1000"  />

      
      <glyph glyph-name="uni0140" unicode="&#x0140;" d="M85 0L85 750L162 750L162 0L85 0M231.50 269Q231.50 269 222.25 278Q213 287 213 314Q213 341 231.50 359Q250 377 276 377Q302 377 320.50 359Q339 341 339 314Q339 287 320.50 269Q302 251 276 251Q250 251 231.50 269Z"  horiz-adv-x="299" vert-adv-y="1000"  />

      
      <glyph glyph-name="uni0141" unicode="&#x0141;" d="M169 70L482 70L482 0L91 0L91 254L12 219L12 291L91 326L91 660L169 660L169 356L389 457L389 383L169 283L169 70Z"  horiz-adv-x="506" vert-adv-y="1000"  />

      
      <glyph glyph-name="uni0142" unicode="&#x0142;" d="M298 450L298 377L211 337L211 0L134 0L134 310L56 274L56 347L134 384L134 750L211 750L211 410L298 450Z"  horiz-adv-x="360" vert-adv-y="1000"  />

      
      <glyph glyph-name="uni0143" unicode="&#x0143;" d="M539 660L617 660L617-11L589-11L169 495L169 0L91 0L91 671L119 671L539 164L539 660M325 724L410 910L504 910L504 896L384 724L325 724Z"  horiz-adv-x="708" vert-adv-y="1000"  />

      
      <glyph glyph-name="uni0144" unicode="&#x0144;" d="M488 306L488 0L411 0L411 297Q411 355 378.50 391Q346 427 290 427Q234 427 198 390.50Q162 354 162 297L162 0L85 0L85 487L157 487L157 435Q214 498 307 498Q391 498 439.50 445.50Q488 393 488 306M258 566L343 780L437 780L437 766L317 566L258 566Z"  horiz-adv-x="566" vert-adv-y="1000"  />

      
      <glyph glyph-name="uni0145" unicode="&#x0145;" d="M539 660L617 660L617-11L589-11L169 495L169 0L91 0L91 671L119 671L539 164L539 660M306-220L315-49L391-49L366-220L306-220Z"  horiz-adv-x="708" vert-adv-y="1000"  />

      
      <glyph glyph-name="uni0146" unicode="&#x0146;" d="M488 306L488 0L411 0L411 297Q411 355 378.50 391Q346 427 290 427Q234 427 198 390.50Q162 354 162 297L162 0L85 0L85 487L157 487L157 435Q214 498 307 498Q391 498 439.50 445.50Q488 393 488 306M237-220L246-49L322-49L297-220L237-220Z"  horiz-adv-x="566" vert-adv-y="1000"  />

      
      <glyph glyph-name="uni0147" unicode="&#x0147;" d="M539 660L617 660L617-11L589-11L169 495L169 0L91 0L91 671L119 671L539 164L539 660M464 910L524 910L377 724L330 724L183 910L243 910L354 802L464 910Z"  horiz-adv-x="708" vert-adv-y="1000"  />

      
      <glyph glyph-name="uni0148" unicode="&#x0148;" d="M488 306L488 0L411 0L411 297Q411 355 378.50 391Q346 427 290 427Q234 427 198 390.50Q162 354 162 297L162 0L85 0L85 487L157 487L157 435Q214 498 307 498Q391 498 439.50 445.50Q488 393 488 306M386 780L444 780L309 566L262 566L126 780L185 780L286 652L386 780Z"  horiz-adv-x="566" vert-adv-y="1000"  />

      
      <glyph glyph-name="uni014A" unicode="&#x014A;" d="M539 660L617 660L617-33Q617-112 575-151.50Q533-191 457-191Q426-191 396-183L396-118Q422-121 441-121Q491-121 515-99.50Q539-78 539-28L539 13L169 487L169 0L91 0L91 671L119 671L539 131L539 660Z"  horiz-adv-x="708" vert-adv-y="1000"  />

      
      <glyph glyph-name="uni014B" unicode="&#x014B;" d="M488 306L488-33Q488-111 445.50-151Q403-191 328-191Q296-191 266-183L266-118Q292-121 310-121Q361-121 386-99.50Q411-78 411-28L411 296Q411 356 378.50 391.50Q346 427 290 427Q234 427 198 390Q162 353 162 296L162 0L85 0L85 487L157 487L157 435Q214 498 307 498Q391 498 439.50 445.50Q488 393 488 306Z"  horiz-adv-x="566" vert-adv-y="1000"  />

      
      <glyph glyph-name="uni014C" unicode="&#x014C;" d="M48 330Q45 471 147 572Q249 673 390 671Q530 673 633 572Q736 471 733 330Q736 189 633 88Q530-13 390-11Q250-14 147.50 88Q45 190 48 330M652 331Q654 443 577 522Q500 601 391 599Q279 599 204 522.50Q129 446 129 331Q129 216 204 138.50Q279 61 391 61Q500 59 577 138.50Q654 218 652 331M244 770L244 833L539 833L539 770L244 770Z"  horiz-adv-x="781" vert-adv-y="1000"  />

      
      <glyph glyph-name="uni014D" unicode="&#x014D;" d="M50 244Q48 348 124.50 424Q201 500 305 498Q410 500 486 424Q562 348 560 244Q562 141 485 64.50Q408-12 304-10Q200-12 124 64.50Q48 141 50 244M481 243Q481 321 430.50 374Q380 427 305 427Q230 427 179.50 374.50Q129 322 129 243Q129 166 179.50 113.50Q230 61 304 61Q378 61 429.50 114Q481 167 481 243M168 642L168 704L443 704L443 642L168 642Z"  horiz-adv-x="610" vert-adv-y="1000"  />

      
      <glyph glyph-name="uni014E" unicode="&#x014E;" d="M48 330Q45 471 147 572Q249 673 390 671Q530 673 633 572Q736 471 733 330Q736 189 633 88Q530-13 390-11Q250-14 147.50 88Q45 190 48 330M652 331Q654 443 577 522Q500 601 391 599Q279 599 204 522.50Q129 446 129 331Q129 216 204 138.50Q279 61 391 61Q500 59 577 138.50Q654 218 652 331M239 885L239 910L302 910L302 886Q302 841 326 814Q350 787 390 787Q431 787 455 813.50Q479 840 479 886L479 910L542 910L542 885Q542 814 499.50 770Q457 726 390 726Q322 726 280.50 769.50Q239 813 239 885Z"  horiz-adv-x="781" vert-adv-y="1000"  />

      
      <glyph glyph-name="uni014F" unicode="&#x014F;" d="M50 244Q48 348 124.50 424Q201 500 305 498Q410 500 486 424Q562 348 560 244Q562 141 485 64.50Q408-12 304-10Q200-12 124 64.50Q48 141 50 244M481 243Q481 321 430.50 374Q380 427 305 427Q230 427 179.50 374.50Q129 322 129 243Q129 166 179.50 113.50Q230 61 304 61Q378 61 429.50 114Q481 167 481 243M153 731L153 762L216 762L216 733Q216 687 240 660.50Q264 634 304 634Q345 634 369 660.50Q393 687 393 733L393 762L456 762L456 731Q456 660 414 616.50Q372 573 304 573Q237 573 195 617Q153 661 153 731Z"  horiz-adv-x="610" vert-adv-y="1000"  />

      
      <glyph glyph-name="uni0150" unicode="&#x0150;" d="M48 330Q45 471 147 572Q249 673 390 671Q530 673 633 572Q736 471 733 330Q736 189 633 88Q530-13 390-11Q250-14 147.50 88Q45 190 48 330M652 331Q654 443 577 522Q500 601 391 599Q279 599 204 522.50Q129 446 129 331Q129 216 204 138.50Q279 61 391 61Q500 59 577 138.50Q654 218 652 331M242 724L328 910L411 910L411 896L297 724L242 724M461 724L547 910L630 910L630 896L516 724L461 724Z"  horiz-adv-x="781" vert-adv-y="1000"  />

      
      <glyph glyph-name="uni0151" unicode="&#x0151;" d="M50 244Q48 348 124.50 424Q201 500 305 498Q410 500 486 424Q562 348 560 244Q562 141 485 64.50Q408-12 304-10Q200-12 124 64.50Q48 141 50 244M481 243Q481 321 430.50 374Q380 427 305 427Q230 427 179.50 374.50Q129 322 129 243Q129 166 179.50 113.50Q230 61 304 61Q378 61 429.50 114Q481 167 481 243M173 566L259 780L342 780L342 766L228 566L173 566M372 566L458 780L541 780L541 766L427 566L372 566Z"  horiz-adv-x="610" vert-adv-y="1000"  />

      
      <glyph glyph-name="uni0152" unicode="&#x0152;" d="M730 70L1087 70L1087 0L652 0L652 125Q611 61 541.50 25Q472-11 389-11Q247-13 146.50 87.50Q46 188 48 330Q46 471 147.50 572Q249 673 390 671Q473 671 542.50 635Q612 599 652 536L652 660L1075 660L1075 590L730 590L730 388L994 388L994 318L730 318L730 70M576.50 138.50Q576.50 138.50 614.25 177.25Q652 216 652 330Q652 444 576.50 521.50Q501 599 390 599Q278 599 203.50 522Q129 445 129 330Q129 215 203.50 138Q278 61 390 61Q501 61 576.50 138.50Z"  horiz-adv-x="1127" vert-adv-y="1000"  />

      
      <glyph glyph-name="uni0153" unicode="&#x0153;" d="M925 219L547 219Q554 147 602 103.50Q650 60 721 60Q803 60 866 125L913 74Q834-11 719-11Q653-11 596.50 21.50Q540 54 508 111Q477 53 423.50 21Q370-11 302-11Q199-13 123.50 63Q48 139 50 243Q50 350 124 424Q198 498 303 498Q370 498 424 465.50Q478 433 508 375Q541 432 594.50 464.50Q648 497 713 497Q804 497 867.50 434.50Q931 372 931 277Q931 249 925 219M471 243Q471 322 424 374.50Q377 427 303 427Q228 427 178.50 374Q129 321 129 243Q129 165 178.50 112.50Q228 60 302 60Q376 60 423.50 112.50Q471 165 471 243M550 287L852 287Q851 351 810.50 389Q770 427 708 427Q649 427 605.50 389Q562 351 550 287Z"  horiz-adv-x="981" vert-adv-y="1000"  />

      
      <glyph glyph-name="uni0154" unicode="&#x0154;" d="M606 0L515 0L310 277L169 277L169 0L91 0L91 660L323 660Q418 660 476 606.50Q534 553 534 469Q534 402 497 353.50Q460 305 395 286L606 0M169 590L169 347L320 347Q383 347 418 379.50Q453 412 453 468Q453 523 417.50 556.50Q382 590 320 590L169 590M233 724L318 910L412 910L412 896L292 724L233 724Z"  horiz-adv-x="622" vert-adv-y="1000"  />

      
      <glyph glyph-name="uni0155" unicode="&#x0155;" d="M344 487L344 419L315 419Q251 419 206.50 380Q162 341 162 276L162 0L85 0L85 487L157 487L157 418Q211 491 308 491Q327 491 344 487M146 566L231 780L325 780L325 766L205 566L146 566Z"  horiz-adv-x="362" vert-adv-y="1000"  />

      
      </font>
</defs>
</svg>
