<?xml version="1.0" standalone="no"?>
  <!DOCTYPE svg PUBLIC "-//W3C//DTD SVG 1.1//EN" "http://www.w3.org/Graphics/SVG/1.1/DTD/svg11.dtd" >
  <svg>
  <metadata>
  Created by font-carrier
  </metadata>
  <defs>
  <font id="RFDewiExpanded-Regular" horiz-adv-x="1563" vert-adv-y="1563" >
    <font-face
      
      font-family="RF Dewi Expanded"
      
      font-weight="400"
      
      font-stretch="normal"
      
      units-per-em="1000"
      
      ascent="1000"
      
      descent="-200"
      
    />
      <missing-glyph />

      

      
      <glyph glyph-name="uni21" unicode="&#x21;" d="M198 204L122 204L108 700L211 700L198 204M104 0L104 118L215 118L215 0L104 0Z"  horiz-adv-x="319" vert-adv-y="1000"  />

      
      <glyph glyph-name="uni22" unicode="&#x22;" d="M74 465L66 700L152 700L143 465L74 465M240 465L232 700L317 700L309 465L240 465Z"  horiz-adv-x="383" vert-adv-y="1000"  />

      
      <glyph glyph-name="uni23" unicode="&#x23;" d="M674 439L529 439L505 262L640 262L640 201L496 201L469-2L388-2L415 201L242 201L215-2L134-2L161 201L24 201L24 262L170 262L194 439L58 439L58 500L202 500L228 688L309 688L283 500L456 500L482 688L563 688L537 500L674 500L674 439M424 262L448 439L275 439L251 262L424 262Z"  horiz-adv-x="697" vert-adv-y="1000"  />

      
      <glyph glyph-name="uni24" unicode="&#x24;" d="M734 182Q734 88 650.50 39.50Q567-9 417-12L417-96L361-96L361-11Q209-5 127.50 52.50Q46 110 38 213L127 216Q131 150 191 109Q251 68 361 63L361 313L276 333Q164 358 118 405Q72 452 72 516Q72 607 152.50 653Q233 699 361 701L361 785L417 785L417 700Q542 692 619.50 639.50Q697 587 706 499L617 493Q613 546 560 582.50Q507 619 417 626L417 389L518 366Q629 340 681.50 297.50Q734 255 734 182M316 412L361 402L361 627Q271 625 219 597.50Q167 570 167 522Q167 446 316 412M417 62Q518 64 578 92Q638 120 638 175Q638 251 482 286L417 301L417 62Z"  horiz-adv-x="781" vert-adv-y="1000"  />

      
      <glyph glyph-name="uni25" unicode="&#x25;" d="M36 537Q36 614 95 660Q154 706 254 706Q354 706 412.50 660Q471 614 471 537Q471 459 412.50 412.50Q354 366 254 366Q154 366 95 412.50Q36 459 36 537M158 0L825 700L895 700L228 0L158 0M146.50 620.50Q146.50 620.50 126.75 605.25Q107 590 107 537Q107 484 146.50 452.50Q186 421 254 421Q321 421 360.50 452.50Q400 484 400 537Q400 590 360.50 620.50Q321 651 254 651Q186 651 146.50 620.50M582 164Q582 242 640.50 288Q699 334 799 334Q899 334 958 288Q1017 242 1017 164Q1017 87 958 40.50Q899-6 799-6Q699-6 640.50 40.50Q582 87 582 164M692.50 248Q692.50 248 672.75 232.50Q653 217 653 164Q653 111 692.50 80Q732 49 799 49Q867 49 906.50 80Q946 111 946 164Q946 217 906.50 248Q867 279 799 279Q732 279 692.50 248Z"  horiz-adv-x="1053" vert-adv-y="1000"  />

      
      <glyph glyph-name="uni26" unicode="&#x26;" d="M843 0L734 0L637 83Q531-12 346-12Q202-12 125.50 37Q49 86 49 167Q49 202 62 229.50Q75 257 107 281Q139 305 163.50 319Q188 333 241 359L288 382L278 390Q206 452 176 489.50Q146 527 146 571Q146 639 211 675.50Q276 712 376 712Q484 712 545.50 670.50Q607 629 607 559Q607 511 572 473Q537 435 457 395L408 370L631 181Q669 236 678 317L750 317Q739 212 684 136L843 0M344 425L356 415L411 443Q470 472 497 498Q524 524 524 555Q524 596 483.50 621Q443 646 376 646Q316 646 274.50 625.50Q233 605 233 565Q233 536 258 507Q283 478 344 425M350 58Q499 58 584 129L341 336L271 301Q203 267 172.50 240.50Q142 214 142 173Q142 123 196 90.50Q250 58 350 58Z"  horiz-adv-x="853" vert-adv-y="1000"  />

      
      <glyph glyph-name="uni27" unicode="&#x27;" d="M74 465L66 700L152 700L143 465L74 465Z"  horiz-adv-x="218" vert-adv-y="1000"  />

      
      <glyph glyph-name="uni28" unicode="&#x28;" d="M356 736Q259 657 206.50 546.50Q154 436 154 302Q154 167 206.50 56.50Q259-54 356-133L272-133Q233-104 199-66Q165-28 133 25Q101 78 82.50 149.50Q64 221 64 302Q64 382 82.50 453.50Q101 525 133 578Q165 631 199 669Q233 707 272 736L356 736Z"  horiz-adv-x="368" vert-adv-y="1000"  />

      
      <glyph glyph-name="uni29" unicode="&#x29;" d="M96 736Q150 695 193.50 642Q237 589 271 498Q305 407 305 302Q305 149 244 40.50Q183-68 96-133L12-133Q214 31 214 302Q214 572 12 736L96 736Z"  horiz-adv-x="368" vert-adv-y="1000"  />

      
      <glyph glyph-name="uni2a" unicode="&#x2a;" d="M224 537L301 505L355 473L327 425L273 457L207 507L217 425L217 361L161 361L161 425L171 507L106 457L51 425L23 473L77 505L155 537L77 570L23 601L51 649L106 617L171 567L161 649L161 714L217 714L217 649L207 567L273 617L327 649L355 601L301 570L224 537Z"  horiz-adv-x="378" vert-adv-y="1000"  />

      
      <glyph glyph-name="uni2b" unicode="&#x2b;" d="M493 365L493 300L313 300L313 146L247 146L247 300L67 300L67 365L247 365L247 519L313 519L313 365L493 365Z"  horiz-adv-x="560" vert-adv-y="1000"  />

      
      <glyph glyph-name="uni2c" unicode="&#x2c;" d="M74-118L74 118L185 118L185 47L118-118L74-118Z"  horiz-adv-x="259" vert-adv-y="1000"  />

      
      <glyph glyph-name="uni2d" unicode="&#x2d;" d="M67 335L421 335L421 261L67 261L67 335Z"  horiz-adv-x="488" vert-adv-y="1000"  />

      
      <glyph glyph-name="uni2e" unicode="&#x2e;" d="M74 0L74 118L185 118L185 0L74 0Z"  horiz-adv-x="259" vert-adv-y="1000"  />

      
      <glyph glyph-name="uni2f" unicode="&#x2f;" d="M329 726L416 726L109-58L21-58L329 726Z"  horiz-adv-x="457" vert-adv-y="1000"  />

      
      <glyph glyph-name="uni30" unicode="&#x30;" d="M151 85Q151 85 104 133.50Q57 182 57 350Q57 518 151 615Q245 712 407 712Q570 712 663.50 615Q757 518 757 350Q757 182 663.50 85Q570-12 407-12Q245-12 151 85M219 557.50Q219 557.50 185.50 519.25Q152 481 152 350Q152 219 219 142.50Q286 66 407 66Q529 66 596 142.50Q663 219 663 350Q663 481 596 557.50Q529 634 407 634Q286 634 219 557.50Z"  horiz-adv-x="815" vert-adv-y="1000"  />

      
      <glyph glyph-name="uni31" unicode="&#x31;" d="M260 700L335 700L335 0L240 0L240 597L39 491L39 583L260 700Z"  horiz-adv-x="462" vert-adv-y="1000"  />

      
      <glyph glyph-name="uni32" unicode="&#x32;" d="M165 78L667 78L667 0L19 0L19 71L431 361Q486 398 518 434.50Q550 471 550 519Q550 576 497.50 605Q445 634 361 634Q151 634 130 466L41 472Q52 593 138 652.50Q224 712 362 712Q490 712 567.50 663Q645 614 645 523Q645 461 605 410.50Q565 360 485 308L165 78Z"  horiz-adv-x="704" vert-adv-y="1000"  />

      
      <glyph glyph-name="uni33" unicode="&#x33;" d="M370 423Q527 423 610 369Q693 315 693 213Q693 103 601 45.50Q509-12 353-12Q214-12 125.50 40.50Q37 93 24 196L114 201Q125 133 189.50 99.50Q254 66 353 66Q462 66 530 105Q598 144 598 213Q598 277 537 315.50Q476 354 360 354Q289 354 218 342L218 408L532 622L66 622L66 700L668 700L668 629L354 422Q359 423 370 423Z"  horiz-adv-x="734" vert-adv-y="1000"  />

      
      <glyph glyph-name="uni34" unicode="&#x34;" d="M622 241L771 241L771 163L622 163L622 0L527 0L527 163L29 163L29 234L467 700L622 700L622 241M136 241L527 241L527 654L136 241Z"  horiz-adv-x="806" vert-adv-y="1000"  />

      
      <glyph glyph-name="uni35" unicode="&#x35;" d="M397 463Q534 463 618.50 402Q703 341 703 230Q703 115 612 51.50Q521-12 369-12Q233-12 141 38.50Q49 89 30 181L123 186Q140 128 206 97Q272 66 366 66Q471 66 539.50 107.50Q608 149 608 230Q608 309 540.50 349.50Q473 390 371 390Q299 390 235.50 370Q172 350 134 312L52 320L94 700L171 700L653 700L653 622L163 622L135 377Q229 463 397 463Z"  horiz-adv-x="745" vert-adv-y="1000"  />

      
      <glyph glyph-name="uni36" unicode="&#x36;" d="M435 454Q573 454 660.50 393.50Q748 333 748 224Q748 113 657.50 50.50Q567-12 413-12Q57-12 57 336Q57 519 151 615.50Q245 712 416 712Q546 712 623.50 660.50Q701 609 712 519L621 514Q612 567 557.50 600.50Q503 634 416 634Q291 634 221 559Q151 484 151 345Q151 342 151.50 336.50Q152 331 152 328Q184 389 259.50 421.50Q335 454 435 454M239 109Q239 109 272 87.50Q305 66 413 66Q521 66 587 109Q653 152 653 224Q653 295 587 337.50Q521 380 413 380Q305 380 239 337.50Q173 295 173 224Q173 152 239 109Z"  horiz-adv-x="792" vert-adv-y="1000"  />

      
      <glyph glyph-name="uni37" unicode="&#x37;" d="M36 700L680 700L680 633Q396 325 295 0L189 0Q294 323 576 622L36 622L36 700Z"  horiz-adv-x="711" vert-adv-y="1000"  />

      
      <glyph glyph-name="uni38" unicode="&#x38;" d="M523 365Q626 347 682.50 300Q739 253 739 183Q739 90 643 39Q547-12 392-12Q237-12 141 39Q45 90 45 183Q45 253 102.50 300.50Q160 348 264 365Q172 382 120 424Q68 466 68 531Q68 620 158 666Q248 712 392 712Q536 712 626.50 665.50Q717 619 717 531Q717 466 665.50 424Q614 382 523 365M224.50 605.50Q224.50 605.50 192.75 590.25Q161 575 161 518Q161 461 224.50 430Q288 399 392 399Q496 399 560 430Q624 461 624 518Q624 575 560.50 605.50Q497 636 392 636Q288 636 224.50 605.50M208.50 98Q208.50 98 243.75 81Q279 64 392 64Q505 64 576 98Q647 132 647 194Q647 256 576 290.50Q505 325 392 325Q280 325 209 290.50Q138 256 138 194Q138 132 208.50 98Z"  horiz-adv-x="785" vert-adv-y="1000"  />

      
      <glyph glyph-name="uni39" unicode="&#x39;" d="M378 712Q735 712 735 364Q735 177 644 82.50Q553-12 379-12Q247-12 169.50 39Q92 90 81 180L171 185Q180 132 235 99Q290 66 379 66Q503 66 571.50 140.50Q640 215 640 355L640 377Q607 317 532.50 284.50Q458 252 356 252Q220 252 132 312.50Q44 373 44 479Q44 588 134.50 650Q225 712 378 712M379 326Q487 326 553 367.50Q619 409 619 479Q619 549 553 591.50Q487 634 379 634Q270 634 204.50 591.50Q139 549 139 479Q139 409 204.50 367.50Q270 326 379 326Z"  horiz-adv-x="792" vert-adv-y="1000"  />

      
      <glyph glyph-name="uni3a" unicode="&#x3a;" d="M74 394L74 512L185 512L185 394L74 394M74 0L74 118L185 118L185 0L74 0Z"  horiz-adv-x="259" vert-adv-y="1000"  />

      
      <glyph glyph-name="uni3b" unicode="&#x3b;" d="M74 394L74 512L185 512L185 394L74 394M74-118L74 118L185 118L185 47L118-118L74-118Z"  horiz-adv-x="259" vert-adv-y="1000"  />

      
      <glyph glyph-name="uni3c" unicode="&#x3c;" d="M465 541L465 460L129 332L465 215L465 134L62 287L62 375L465 541Z"  horiz-adv-x="554" vert-adv-y="1000"  />

      
      <glyph glyph-name="uni3d" unicode="&#x3d;" d="M69 444L495 444L495 379L69 379L69 444M69 272L495 272L495 207L69 207L69 272Z"  horiz-adv-x="564" vert-adv-y="1000"  />

      
      <glyph glyph-name="uni3e" unicode="&#x3e;" d="M89 541L492 375L492 287L89 134L89 215L426 332L89 460L89 541Z"  horiz-adv-x="554" vert-adv-y="1000"  />

      
      <glyph glyph-name="uni3f" unicode="&#x3f;" d="M24 483Q36 598 122 655Q208 712 351 712Q478 712 555 667Q632 622 632 532Q632 472 593.50 429Q555 386 466 338Q405 306 384 284.50Q363 263 363 223L363 207L270 207L270 227Q270 286 297 318.50Q324 351 388 381Q463 420 499.50 452.50Q536 485 536 527Q536 580 485.50 607Q435 634 351 634Q138 634 114 478L24 483M261 0L261 118L372 118L372 0L261 0Z"  horiz-adv-x="672" vert-adv-y="1000"  />

      
      <glyph glyph-name="uni40" unicode="&#x40;" d="M595 463L670 463L670 238Q670 177 691 148Q712 119 760 119Q818 119 847 159.50Q876 200 876 274Q876 418 770.50 513Q665 608 491 608Q324 608 213.50 510Q103 412 103 264Q103 105 211 12Q319-81 502-81Q632-81 728-36L756-72Q651-124 502-124Q296-124 175-20.50Q54 83 54 264Q54 436 178 543.50Q302 651 491 651Q686 651 805.50 546Q925 441 925 277Q925 173 878 119.50Q831 66 745 66Q633 66 604 154Q582 106 541 81Q500 56 449 56Q373 56 322 112.50Q271 169 271 264Q271 360 322 416.50Q373 473 451 473Q551 473 595 390L595 463M379 156.50Q379 156.50 396 136.25Q413 116 470 116Q527 116 561 156.50Q595 197 595 264Q595 333 561.50 373.50Q528 414 470 414Q412 414 378.50 373.50Q345 333 345 264Q345 197 379 156.50Z"  horiz-adv-x="980" vert-adv-y="1000"  />

      
      <glyph glyph-name="uni41" unicode="&#x41;" d="M787 0L696 180L215 180L124 0L23 0L382 700L532 700L891 0L787 0M254 257L657 257L455 656L254 257Z"  horiz-adv-x="914" vert-adv-y="1000"  />

      
      <glyph glyph-name="uni42" unicode="&#x42;" d="M629 358Q726 349 778.50 306Q831 263 831 186Q831 97 760.50 48.50Q690 0 562 0L98 0L98 700L564 700Q672 700 739 650.50Q806 601 806 520Q806 453 757 411.50Q708 370 629 358M198 621L198 393L558 393Q621 393 663.50 423.50Q706 454 706 508Q706 562 664 591.50Q622 621 558 621L198 621M552 79Q731 79 731 199Q731 317 562 317L198 317L198 79L552 79Z"  horiz-adv-x="883" vert-adv-y="1000"  />

      
      <glyph glyph-name="uni43" unicode="&#x43;" d="M761 237L856 231Q838 120 740 54Q642-12 475-12Q273-12 162.50 87.50Q52 187 52 350Q52 512 161 612Q270 712 466 712Q622 712 725 649.50Q828 587 848 482L752 475Q736 545 657 587.50Q578 630 466 630Q317 630 234.50 551.50Q152 473 152 350Q152 227 236.50 148.50Q321 70 475 70Q596 70 671 117Q746 164 761 237Z"  horiz-adv-x="897" vert-adv-y="1000"  />

      
      <glyph glyph-name="uni44" unicode="&#x44;" d="M444 700Q645 700 756 605.50Q867 511 867 350Q867 189 756 94.50Q645 0 444 0L98 0L98 700L444 700M435 82Q596 82 681.50 155Q767 228 767 350Q767 472 681.50 545Q596 618 435 618L198 618L198 82L435 82Z"  horiz-adv-x="919" vert-adv-y="1000"  />

      
      <glyph glyph-name="uni45" unicode="&#x45;" d="M98 0L98 700L736 700L736 621L198 621L198 394L626 394L626 318L198 318L198 79L757 79L757 0L98 0Z"  horiz-adv-x="806" vert-adv-y="1000"  />

      
      <glyph glyph-name="uni46" unicode="&#x46;" d="M98 0L98 700L718 700L718 618L198 618L198 381L621 381L621 301L198 301L198 0L98 0Z"  horiz-adv-x="762" vert-adv-y="1000"  />

      
      <glyph glyph-name="uni47" unicode="&#x47;" d="M486 359L859 359L859 54Q686-12 507-12Q290-12 171 86.50Q52 185 52 350Q52 512 161 612Q270 712 466 712Q617 712 718.50 654.50Q820 597 845 498L750 491Q727 555 649.50 592.50Q572 630 466 630Q317 630 234.50 551.50Q152 473 152 350Q152 226 245.50 148Q339 70 510 70Q646 70 767 108L767 290L486 290L486 359Z"  horiz-adv-x="916" vert-adv-y="1000"  />

      
      <glyph glyph-name="uni48" unicode="&#x48;" d="M745 700L845 700L845 0L745 0L745 315L198 315L198 0L98 0L98 700L198 700L198 397L745 397L745 700Z"  horiz-adv-x="943" vert-adv-y="1000"  />

      
      <glyph glyph-name="uni49" unicode="&#x49;" d="M98 0L98 700L198 700L198 0L98 0Z"  horiz-adv-x="296" vert-adv-y="1000"  />

      
      <glyph glyph-name="uni4a" unicode="&#x4a;" d="M546 700L646 700L646 232Q646 110 565.50 49Q485-12 344-12Q202-12 123.50 47Q45 106 45 213L45 269L138 269L138 216Q138 144 193.50 107Q249 70 342 70Q436 70 491 111.50Q546 153 546 238L546 700Z"  horiz-adv-x="744" vert-adv-y="1000"  />

      
      <glyph glyph-name="uni4b" unicode="&#x4b;" d="M868 0L736 0L390 315L198 315L198 0L98 0L98 700L198 700L198 392L389 392L718 700L841 700L469 360L868 0Z"  horiz-adv-x="896" vert-adv-y="1000"  />

      
      <glyph glyph-name="uni4c" unicode="&#x4c;" d="M98 0L98 700L198 700L198 82L684 82L684 0L98 0Z"  horiz-adv-x="722" vert-adv-y="1000"  />

      
      <glyph glyph-name="uni4d" unicode="&#x4d;" d="M938 700L1113 700L1112 0L1015 0L1015 648L674 0L536 0L195 648L195 0L98 0L98 700L273 700L607 53L938 700Z"  horiz-adv-x="1212" vert-adv-y="1000"  />

      
      <glyph glyph-name="uni4e" unicode="&#x4e;" d="M761 700L858 700L858 0L686 0L195 648L195 0L98 0L98 700L270 700L761 52L761 700Z"  horiz-adv-x="956" vert-adv-y="1000"  />

      
      <glyph glyph-name="uni4f" unicode="&#x4f;" d="M165 88.50Q165 88.50 108.50 138.75Q52 189 52 350Q52 511 165 611.50Q278 712 482 712Q686 712 799.50 611.50Q913 511 913 350Q913 189 799.50 88.50Q686-12 482-12Q278-12 165 88.50M238.50 551.50Q238.50 551.50 195.25 512.25Q152 473 152 350Q152 227 238.50 148.50Q325 70 482 70Q640 70 726.50 148.50Q813 227 813 350Q813 473 726.50 551.50Q640 630 482 630Q325 630 238.50 551.50Z"  horiz-adv-x="965" vert-adv-y="1000"  />

      
      <glyph glyph-name="uni50" unicode="&#x50;" d="M551 700Q665 700 733.50 645Q802 590 802 486Q802 382 735 329Q668 276 551 276L198 276L198 0L98 0L98 700L198 700L551 700M545 354Q618 354 660 388Q702 422 702 486Q702 550 660 584Q618 618 545 618L198 618L198 354L545 354Z"  horiz-adv-x="849" vert-adv-y="1000"  />

      
      <glyph glyph-name="uni51" unicode="&#x51;" d="M913 350Q913 250 868 171Q823 92 737 45L826-45L760-88L660 13Q579-12 482-12Q278-12 165 88.50Q52 189 52 350Q52 511 165 611.50Q278 712 482 712Q686 712 799.50 611.50Q913 511 913 350M482 70Q542 70 592 82L524 150L590 194L672 111Q741 147 777 209.50Q813 272 813 350Q813 473 726.50 551.50Q640 630 482 630Q325 630 238.50 551.50Q152 473 152 350Q152 227 238.50 148.50Q325 70 482 70Z"  horiz-adv-x="965" vert-adv-y="1000"  />

      
      <glyph glyph-name="uni52" unicode="&#x52;" d="M720 0L432 286L198 286L198 0L98 0L98 700L198 700L561 700Q675 700 743.50 645.50Q812 591 812 490Q812 389 745 337.50Q678 286 561 286L549 286L850 0L720 0M198 619L198 363L556 363Q627 363 669.50 396Q712 429 712 490Q712 552 669.50 585.50Q627 619 556 619L198 619Z"  horiz-adv-x="867" vert-adv-y="1000"  />

      
      <glyph glyph-name="uni53" unicode="&#x53;" d="M133 217Q138 146 210.50 104.50Q283 63 414 63Q524 63 596.50 91Q669 119 669 178Q669 217 632.50 243.50Q596 270 514 288L286 340Q73 387 73 523Q73 617 162.50 664.50Q252 712 391 712Q541 712 635 658Q729 604 740 507L646 503Q639 562 570 599.50Q501 637 388 637Q292 637 232.50 608.50Q173 580 173 528Q173 450 323 417L542 370Q659 345 714 301.50Q769 258 769 185Q769 87 675 37.50Q581-12 414-12Q238-12 142.50 46Q47 104 38 214L133 217Z"  horiz-adv-x="816" vert-adv-y="1000"  />

      
      <glyph glyph-name="uni54" unicode="&#x54;" d="M29 618L29 700L757 700L757 618L443 618L443 0L343 0L343 618L29 618Z"  horiz-adv-x="786" vert-adv-y="1000"  />

      
      <glyph glyph-name="uni55" unicode="&#x55;" d="M751 700L851 700L851 283Q851 142 756.50 65Q662-12 475-12Q287-12 192.50 65Q98 142 98 283L98 700L198 700L198 293Q198 184 267.50 127Q337 70 475 70Q612 70 681.50 127Q751 184 751 293L751 700Z"  horiz-adv-x="949" vert-adv-y="1000"  />

      
      <glyph glyph-name="uni56" unicode="&#x56;" d="M748 700L853 700L512 0L364 0L25 700L132 700L439 51L748 700Z"  horiz-adv-x="878" vert-adv-y="1000"  />

      
      <glyph glyph-name="uni57" unicode="&#x57;" d="M1192 700L1297 700L1035 0L885 0L664 636L441 0L291 0L31 700L139 700L370 64L593 700L737 700L959 64L1192 700Z"  horiz-adv-x="1328" vert-adv-y="1000"  />

      
      <glyph glyph-name="uni58" unicode="&#x58;" d="M851 0L729 0L439 296L148 0L32 0L380 354L50 700L172 700L440 413L713 700L828 700L501 357L851 0Z"  horiz-adv-x="885" vert-adv-y="1000"  />

      
      <glyph glyph-name="uni59" unicode="&#x59;" d="M757 700L876 700L498 287L498 0L398 0L398 287L20 700L143 700L450 356L757 700Z"  horiz-adv-x="897" vert-adv-y="1000"  />

      
      <glyph glyph-name="uni5a" unicode="&#x5a;" d="M164 82L748 82L748 0L25 0L25 70L597 618L56 618L56 700L736 700L736 630L164 82Z"  horiz-adv-x="779" vert-adv-y="1000"  />

      
      <glyph glyph-name="uni5b" unicode="&#x5b;" d="M308 654L190 654L190-57L308-57L308-132L104-132L104 729L308 729L308 654Z"  horiz-adv-x="342" vert-adv-y="1000"  />

      
      <glyph glyph-name="uni5c" unicode="&#x5c;" d="M128 726L436-58L348-58L41 726L128 726Z"  horiz-adv-x="457" vert-adv-y="1000"  />

      
      <glyph glyph-name="uni5d" unicode="&#x5d;" d="M237 729L237-132L34-132L34-57L151-57L151 654L34 654L34 729L237 729Z"  horiz-adv-x="342" vert-adv-y="1000"  />

      
      <glyph glyph-name="uni5e" unicode="&#x5e;" d="M406 462L330 462L217 667L103 462L27 462L170 700L263 700L406 462Z"  horiz-adv-x="433" vert-adv-y="1000"  />

      
      <glyph glyph-name="uni5f" unicode="&#x5f;" d="M18-41L534-41L534-105L18-105L18-41Z"  horiz-adv-x="551" vert-adv-y="1000"  />

      
      <glyph glyph-name="uni60" unicode="&#x60;" d="M254 593L177 593L40 735L139 735L254 593Z"  horiz-adv-x="294" vert-adv-y="1000"  />

      
      <glyph glyph-name="uni61" unicode="&#x61;" d="M374 536Q515 536 587.50 482.50Q660 429 660 327L660 0L573 0L573 120Q538 58 463.50 23Q389-12 284-12Q164-12 105.50 29.50Q47 71 47 138Q47 211 117 249Q187 287 331 297L565 312L565 346Q565 399 517 434Q469 469 374 469Q293 469 240 444Q187 419 175 371L85 371Q95 455 173.50 495.50Q252 536 374 536M307 55Q428 55 496.50 102.50Q565 150 565 225L565 253L342 239Q141 225 141 142Q141 103 182.50 79Q224 55 307 55Z"  horiz-adv-x="733" vert-adv-y="1000"  />

      
      <glyph glyph-name="uni62" unicode="&#x62;" d="M433 536Q571 536 655 463Q739 390 739 262Q739 134 655 61Q571-12 433-12Q340-12 270 23.50Q200 59 167 124L167 0L80 0L80 736L175 736L175 414Q247 536 433 536M235 116Q235 116 267 88.50Q299 61 408 61Q517 61 581 116Q645 171 645 262Q645 353 581 408Q517 463 408 463Q299 463 235 408Q171 353 171 262Q171 171 235 116Z"  horiz-adv-x="785" vert-adv-y="1000"  />

      
      <glyph glyph-name="uni63" unicode="&#x63;" d="M688 179Q668 88 584.50 38Q501-12 378-12Q224-12 134.50 59.50Q45 131 45 262Q45 393 134 464.50Q223 536 375 536Q494 536 578.50 488Q663 440 680 351L590 346Q573 403 514 433Q455 463 375 463Q269 463 204.50 409Q140 355 140 262Q140 169 205 115Q270 61 378 61Q460 61 518.50 93Q577 125 595 184L688 179Z"  horiz-adv-x="724" vert-adv-y="1000"  />

      
      <glyph glyph-name="uni64" unicode="&#x64;" d="M610 736L704 736L704 0L618 0L618 124Q584 58 514.50 23Q445-12 352-12Q214-12 129.50 61Q45 134 45 262Q45 390 129.50 463Q214 536 352 536Q537 536 610 414L610 736M377 61Q486 61 550 116Q614 171 614 262Q614 353 550 408Q486 463 377 463Q267 463 203 408Q139 353 139 262Q139 171 203 116Q267 61 377 61Z"  horiz-adv-x="785" vert-adv-y="1000"  />

      
      <glyph glyph-name="uni65" unicode="&#x65;" d="M705 247L705 235L140 235Q150 147 217 101Q284 55 392 55Q468 55 522.50 78Q577 101 602 140L693 136Q665 66 587.50 27Q510-12 392-12Q231-12 138 57.50Q45 127 45 262Q45 396 137.50 466Q230 536 382 536Q538 536 621.50 464.50Q705 393 705 247M382 469Q282 469 217.50 425Q153 381 141 296L611 296Q607 376 545.50 422.50Q484 469 382 469Z"  horiz-adv-x="748" vert-adv-y="1000"  />

      
      <glyph glyph-name="uni66" unicode="&#x66;" d="M373 673Q305 673 281 648Q257 623 257 559L257 524L428 524L428 451L257 451L257 0L162 0L162 451L23 451L23 524L162 524L162 567Q162 671 206 709.50Q250 748 353 748Q392 748 445 743L445 670Q404 673 373 673Z"  horiz-adv-x="462" vert-adv-y="1000"  />

      
      <glyph glyph-name="uni67" unicode="&#x67;" d="M612 524L699 524L699 72Q699-75 624.50-143.50Q550-212 387-212Q260-212 183.50-169Q107-126 94-41L186-41Q199-90 252-114.50Q305-139 387-139Q503-139 553.50-92Q604-45 604 47L604 128Q567 73 501.50 43.50Q436 14 352 14Q213 14 129 84.50Q45 155 45 275Q45 395 129 465.50Q213 536 352 536Q542 536 612 411L612 524M377 82Q485 82 549.50 135.50Q614 189 614 273Q614 356 549.50 409.50Q485 463 377 463Q269 463 204 409.50Q139 356 139 273Q139 189 203.50 135.50Q268 82 377 82Z"  horiz-adv-x="779" vert-adv-y="1000"  />

      
      <glyph glyph-name="uni68" unicode="&#x68;" d="M436 536Q557 536 622.50 477.50Q688 419 688 302L688 0L594 0L594 272Q594 458 407 458Q297 458 236 398Q175 338 175 235L175 0L80 0L80 736L175 736L175 402Q246 536 436 536Z"  horiz-adv-x="762" vert-adv-y="1000"  />

      
      <glyph glyph-name="uni69" unicode="&#x69;" d="M77 608L77 723L178 723L178 608L77 608M80 0L80 524L175 524L175 0L80 0Z"  horiz-adv-x="255" vert-adv-y="1000"  />

      
      <glyph glyph-name="uni6a" unicode="&#x6a;" d="M78 723L178 723L178 608L78 608L78 723M81-40L81 524L176 524L176-61Q176-143 141.50-177.50Q107-212 33-212Q7-212-41-207L-41-131Q-17-134 1-134Q43-134 62-115Q81-96 81-40Z"  horiz-adv-x="256" vert-adv-y="1000"  />

      
      <glyph glyph-name="uni6b" unicode="&#x6b;" d="M715 0L584 0L302 228L175 228L175 0L80 0L80 736L175 736L175 302L304 302L576 524L698 524L377 273L715 0Z"  horiz-adv-x="728" vert-adv-y="1000"  />

      
      <glyph glyph-name="uni6c" unicode="&#x6c;" d="M80 736L175 736L175 0L80 0L80 736Z"  horiz-adv-x="255" vert-adv-y="1000"  />

      
      <glyph glyph-name="uni6d" unicode="&#x6d;" d="M887 536Q995 536 1058.50 478.50Q1122 421 1122 312L1122 0L1028 0L1028 286Q1028 367 984 412.50Q940 458 859 458Q762 458 705.50 398.50Q649 339 649 235L649 0L554 0L554 286Q554 367 510.50 412.50Q467 458 385 458Q289 458 232 398.50Q175 339 175 235L175 0L80 0L80 524L167 524L167 390Q198 460 262 498Q326 536 414 536Q501 536 560 498Q619 460 639 387Q670 458 734.50 497Q799 536 887 536Z"  horiz-adv-x="1196" vert-adv-y="1000"  />

      
      <glyph glyph-name="uni6e" unicode="&#x6e;" d="M436 536Q557 536 622.50 477.50Q688 419 688 302L688 0L594 0L594 272Q594 458 407 458Q297 458 236 398Q175 338 175 235L175 0L80 0L80 524L167 524L167 385Q199 457 268 496.50Q337 536 436 536Z"  horiz-adv-x="762" vert-adv-y="1000"  />

      
      <glyph glyph-name="uni6f" unicode="&#x6f;" d="M137 61Q137 61 91 97.50Q45 134 45 262Q45 390 137 463Q229 536 383 536Q537 536 629 463Q721 390 721 262Q721 134 629 61Q537-12 383-12Q229-12 137 61M205 408Q205 408 172 380.50Q139 353 139 262Q139 171 205 116Q271 61 383 61Q495 61 561 116Q627 171 627 262Q627 353 561 408Q495 463 383 463Q271 463 205 408Z"  horiz-adv-x="767" vert-adv-y="1000"  />

      
      <glyph glyph-name="uni70" unicode="&#x70;" d="M433 536Q571 536 655 463Q739 390 739 262Q739 134 655 61Q571-12 433-12Q345-12 278 19.50Q211 51 175 110L175-200L80-200L80 524L167 524L167 399Q200 466 268.50 501Q337 536 433 536M235 116Q235 116 267 88.50Q299 61 408 61Q517 61 581 116Q645 171 645 262Q645 353 581 408Q517 463 408 463Q299 463 235 408Q171 353 171 262Q171 171 235 116Z"  horiz-adv-x="785" vert-adv-y="1000"  />

      
      <glyph glyph-name="uni71" unicode="&#x71;" d="M618 524L704 524L704-200L610-200L610 110Q573 51 506 19.50Q439-12 352-12Q214-12 129.50 61Q45 134 45 262Q45 390 129.50 463Q214 536 352 536Q447 536 516 500.50Q585 465 618 399L618 524M377 61Q486 61 550 116Q614 171 614 262Q614 353 550 408Q486 463 377 463Q267 463 203 408Q139 353 139 262Q139 171 203 116Q267 61 377 61Z"  horiz-adv-x="785" vert-adv-y="1000"  />

      
      <glyph glyph-name="uni72" unicode="&#x72;" d="M392 536Q426 536 473 529L473 444Q419 450 382 450Q175 450 175 206L175 0L80 0L81 524L168 524L168 385Q196 458 253.50 497Q311 536 392 536Z"  horiz-adv-x="511" vert-adv-y="1000"  />

      
      <glyph glyph-name="uni73" unicode="&#x73;" d="M520 378Q509 422 451 445.50Q393 469 306 469Q231 469 188.50 449.50Q146 430 146 395Q146 342 260 317L433 282Q530 262 577.50 228Q625 194 625 138Q625 64 549 26Q473-12 329-12Q48-12 29 149L117 152Q135 55 336 55Q428 55 479.50 75.50Q531 96 531 134Q531 161 500 180Q469 199 400 214L221 251Q51 286 51 392Q51 466 120.50 501Q190 536 311 536Q438 536 517.50 497.50Q597 459 609 381L520 378Z"  horiz-adv-x="663" vert-adv-y="1000"  />

      
      <glyph glyph-name="uni74" unicode="&#x74;" d="M458 451L273 451L273 178Q273 114 293.50 90Q314 66 372 66Q404 66 458 73L458-4Q404-12 356-12Q256-12 217 27.50Q178 67 178 163L178 451L22 451L22 522L144 522Q167 522 176.50 530.50Q186 539 186 559L186 648L273 648L273 524L458 524L458 451Z"  horiz-adv-x="498" vert-adv-y="1000"  />

      
      <glyph glyph-name="uni75" unicode="&#x75;" d="M587 524L682 524L682 0L595 0L595 147Q563 71 494.50 29.50Q426-12 327-12Q207-12 140.50 49Q74 110 74 230L74 524L168 524L168 258Q168 66 356 66Q465 66 526 131.50Q587 197 587 302L587 524Z"  horiz-adv-x="762" vert-adv-y="1000"  />

      
      <glyph glyph-name="uni76" unicode="&#x76;" d="M607 524L710 524L434 0L297 0L22 524L128 524L367 50L607 524Z"  horiz-adv-x="733" vert-adv-y="1000"  />

      
      <glyph glyph-name="uni77" unicode="&#x77;" d="M1035 524L1138 524L903 0L767 0L584 477L400 0L260 0L27 524L134 524L333 60L518 524L654 524L835 66L1035 524Z"  horiz-adv-x="1165" vert-adv-y="1000"  />

      
      <glyph glyph-name="uni78" unicode="&#x78;" d="M722 0L602 0L372 217L143 0L26 0L313 268L38 524L158 524L373 321L588 524L705 524L432 270L722 0Z"  horiz-adv-x="749" vert-adv-y="1000"  />

      
      <glyph glyph-name="uni79" unicode="&#x79;" d="M613 524L717 524L426-58Q384-148 339.50-180Q295-212 199-212Q156-212 125-207L125-134Q158-137 193-137Q251-137 280.50-118.50Q310-100 337-46L359 0L319 0L23 524L129 524L391 38L613 524Z"  horiz-adv-x="740" vert-adv-y="1000"  />

      
      <glyph glyph-name="uni7a" unicode="&#x7a;" d="M157 75L614 75L614 0L25 0L25 66L472 449L52 449L52 524L605 524L605 458L157 75Z"  horiz-adv-x="643" vert-adv-y="1000"  />

      
      <glyph glyph-name="uni7b" unicode="&#x7b;" d="M245 441Q245 318 128 300L128 296Q245 278 245 156L245 36Q245-18 270-42Q295-66 349-66L358-66L358-132L346-132Q254-132 208-96Q162-60 162 29L162 145Q162 213 132.50 239Q103 265 52 265L44 265L44 331L52 331Q103 331 132.50 357Q162 383 162 452L162 567Q162 656 208.50 692.50Q255 729 346 729L358 729L358 663L349 663Q295 663 270 639Q245 615 245 561L245 441Z"  horiz-adv-x="392" vert-adv-y="1000"  />

      
      <glyph glyph-name="uni7c" unicode="&#x7c;" d="M98 736L171 736L171-121L98-121L98 736Z"  horiz-adv-x="270" vert-adv-y="1000"  />

      
      <glyph glyph-name="uni7d" unicode="&#x7d;" d="M339 331L348 331L348 265L339 265Q288 265 258.50 239Q229 213 229 145L229 29Q229-60 183-96Q137-132 46-132L33-132L33-66L42-66Q97-66 122-42Q147-18 147 36L147 156Q147 278 264 296L264 300Q147 318 147 441L147 561Q147 615 122 639Q97 663 42 663L33 663L33 729L46 729Q137 729 183 692.50Q229 656 229 567L229 452Q229 384 258.50 357.50Q288 331 339 331Z"  horiz-adv-x="392" vert-adv-y="1000"  />

      
      <glyph glyph-name="uni7e" unicode="&#x7e;" d="M481 403L543 403Q543 345 513 306.50Q483 268 422 268Q379 268 340.50 289Q302 310 270 331Q238 352 210 352Q179 352 162.50 331.50Q146 311 146 281L85 281Q85 339 114.50 377.50Q144 416 205 416Q248 416 286.50 395Q325 374 357.50 353Q390 332 418 332Q449 332 465 352Q481 372 481 403Z"  horiz-adv-x="628" vert-adv-y="1000"  />

      
      <glyph glyph-name="unia1" unicode="&#xa1;" d="M104 524L215 524L215 406L104 406L104 524M198 320L211-176L108-176L122 320L198 320Z"  horiz-adv-x="319" vert-adv-y="1000"  />

      
      <glyph glyph-name="unia2" unicode="&#xa2;" d="M675 174Q655 89 580 41Q505-7 394-12L394-86L343-86L343-11Q205-4 125 66.50Q45 137 45 262Q45 387 125 458Q205 529 343 535L343 610L394 610L394 535Q500 530 574.50 484Q649 438 667 356L584 349Q568 401 517 430.50Q466 460 394 465L394 59Q469 63 521.50 94.50Q574 126 591 180L675 174M190 404.50Q190 404.50 161.50 377.75Q133 351 133 262Q133 173 190 120Q247 67 343 59L343 465Q247 458 190 404.50Z"  horiz-adv-x="711" vert-adv-y="1000"  />

      
      <glyph glyph-name="unia3" unicode="&#xa3;" d="M120 79L683 79L683 0L22 0L22 69Q161 163 161 261Q161 284 152 318L39 318L39 376L132 376Q109 443 109 492Q109 593 184.50 646.50Q260 700 390 700Q515 700 582.50 647Q650 594 659 494L569 487Q557 621 390 621Q303 621 254.50 584.50Q206 548 206 478Q206 436 228 376L519 376L519 318L247 318Q257 285 257 257Q257 204 222 161.50Q187 119 120 79Z"  horiz-adv-x="708" vert-adv-y="1000"  />

      
      <glyph glyph-name="unia4" unicode="&#xa4;" d="M619 91L569 39L479 121Q418 82 330 82Q244 82 183 120L93 40L42 92L128 169Q87 224 87 301Q87 378 128 433L41 512L92 563L182 482Q246 521 330 521Q416 521 478 482L567 562L618 511L532 433Q574 379 574 301Q574 224 533 170L619 91M211.50 407.50Q211.50 407.50 189.25 387.75Q167 368 167 301Q167 234 211.50 195Q256 156 330 156Q405 156 449 195Q493 234 493 301Q493 368 449 407.50Q405 447 330 447Q256 447 211.50 407.50Z"  horiz-adv-x="660" vert-adv-y="1000"  />

      
      <glyph glyph-name="unia5" unicode="&#xa5;" d="M471 313L471 307L747 307L747 256L471 256L471 192L747 192L747 141L471 141L471 0L375 0L375 141L99 141L99 192L375 192L375 256L99 256L99 307L375 307L375 314L20 688L135 688L423 373L714 688L825 688L471 313Z"  horiz-adv-x="846" vert-adv-y="1000"  />

      
      <glyph glyph-name="unia6" unicode="&#xa6;" d="M98 736L171 736L171 395L98 395L98 736M98 236L171 236L171-121L98-121L98 236Z"  horiz-adv-x="270" vert-adv-y="1000"  />

      
      <glyph glyph-name="unia7" unicode="&#xa7;" d="M424 186Q512 146 512 59Q512-15 454-54.50Q396-94 293-94Q192-94 130-52.50Q68-11 61 73L143 76Q149 24 189-2.50Q229-29 293-29Q350-29 387-6.50Q424 16 424 55Q424 85 400 104.50Q376 124 320 140L187 176Q122 193 86 230.50Q50 268 50 318Q50 403 150 439Q72 481 72 567Q72 640 128 676Q184 712 272 712Q364 712 425 672Q486 632 495 552L413 548Q406 597 367.50 622Q329 647 272 647Q222 647 190.50 626Q159 605 159 569Q159 511 253 484L374 451Q521 410 521 307Q521 226 424 186M236 242L354 211Q436 232 436 292Q436 324 411 345.50Q386 367 332 382L224 412Q134 392 134 331Q134 270 236 242Z"  horiz-adv-x="567" vert-adv-y="1000"  />

      
      <glyph glyph-name="unia8" unicode="&#xa8;" d="M40 611L40 716L128 716L128 611L40 611M265 611L265 716L353 716L353 611L265 611Z"  horiz-adv-x="393" vert-adv-y="1000"  />

      
      <glyph glyph-name="unia9" unicode="&#xa9;" d="M674 87.50Q674 87.50 623 37.75Q572-12 414-12Q256-12 154 87.50Q52 187 52 350Q52 513 154 612.50Q256 712 414 712Q572 712 674 612.50Q776 513 776 350Q776 187 674 87.50M194.50 127Q194.50 127 237.25 82.50Q280 38 414 38Q548 38 633 127Q718 216 718 350Q718 484 633 573Q548 662 414 662Q280 662 194.50 573Q109 484 109 350Q109 216 194.50 127M249 350Q249 446 294 498.50Q339 551 415 551Q478 551 521 516Q564 481 573 415L507 408Q500 452 475 474Q450 496 415 496Q371 496 345 457.50Q319 419 319 350Q319 281 346 242Q373 203 418 203Q455 203 479.50 226.50Q504 250 511 296L576 291Q569 223 526 186Q483 149 418 149Q340 149 294.50 201Q249 253 249 350Z"  horiz-adv-x="828" vert-adv-y="1000"  />

      
      <glyph glyph-name="uniab" unicode="&#xab;" d="M307 457L108 280L307 103L209 103L36 258L36 302L209 457L307 457M538 457L339 280L538 103L440 103L268 258L268 302L440 457L538 457Z"  horiz-adv-x="588" vert-adv-y="1000"  />

      
      <glyph glyph-name="uniac" unicode="&#xac;" d="M75 367L490 367L490 187L418 187L418 301L75 301L75 367Z"  horiz-adv-x="575" vert-adv-y="1000"  />

      
      <glyph glyph-name="uniae" unicode="&#xae;" d="M294 712Q399 712 471.50 642Q544 572 544 462Q544 352 471.50 282Q399 212 294 212Q188 212 116 282Q44 352 44 462Q44 572 116 642Q188 712 294 712M294 253Q383 253 441.50 312.50Q500 372 500 462Q500 552 441.50 611.50Q383 671 294 671Q204 671 146 611.50Q88 552 88 462Q88 372 146 312.50Q204 253 294 253M383 516Q383 449 334 441L391 336L341 336L292 439L263 439L263 336L219 336L219 595L310 595Q341 595 362 575Q383 555 383 516M303 473Q339 473 339 516Q339 558 304 558L263 558L263 473L303 473Z"  horiz-adv-x="588" vert-adv-y="1000"  />

      
      <glyph glyph-name="uniaf" unicode="&#xaf;" d="M40 628L40 692L418 692L418 628L40 628Z"  horiz-adv-x="458" vert-adv-y="1000"  />

      
      <glyph glyph-name="unib0" unicode="&#xb0;" d="M328 438Q328 438 303.50 416.50Q279 395 206 395Q133 395 84 438Q35 481 35 553Q35 625 84 668.50Q133 712 206 712Q279 712 328 668.50Q377 625 377 553Q377 481 328 438M206 455Q251 455 281.50 482.50Q312 510 312 553Q312 596 281.50 624Q251 652 206 652Q160 652 130 624Q100 596 100 553Q100 510 130 482.50Q160 455 206 455Z"  horiz-adv-x="411" vert-adv-y="1000"  />

      
      <glyph glyph-name="unib1" unicode="&#xb1;" d="M327 418L507 418L507 353L327 353L327 230L261 230L261 353L81 353L81 418L261 418L261 556L327 556L327 418M81 101L81 166L507 166L507 101L81 101Z"  horiz-adv-x="588" vert-adv-y="1000"  />

      
      <glyph glyph-name="unib2" unicode="&#xb2;" d="M127 390L402 390L402 331L21 331L21 385L216 529Q269 567 291.50 593Q314 619 314 649Q314 682 288 698.50Q262 715 220 715Q116 715 105 615L33 622Q39 699 89.50 736.50Q140 774 220 774Q295 774 342 742.50Q389 711 389 653Q389 614 362.50 578.50Q336 543 272 498L127 390Z"  horiz-adv-x="434" vert-adv-y="1000"  />

      
      <glyph glyph-name="unib3" unicode="&#xb3;" d="M225 592Q309 591 362 559.50Q415 528 415 462Q415 395 359.50 360.50Q304 326 213 326Q130 326 77 359Q24 392 16 457L87 463Q100 385 213 385Q270 385 305.50 407Q341 429 341 467Q341 503 309 525Q277 547 216 547Q174 547 134 541L134 583L306 705L41 705L41 764L401 764L401 711L225 592Z"  horiz-adv-x="453" vert-adv-y="1000"  />

      
      <glyph glyph-name="unib4" unicode="&#xb4;" d="M40 593L154 735L254 735L117 593L40 593Z"  horiz-adv-x="294" vert-adv-y="1000"  />

      
      <glyph glyph-name="unib6" unicode="&#xb6;" d="M66 509Q66 595 125.50 647.50Q185 700 286 700L341 700L341-91L277-91L277 318Q182 318 124 371.50Q66 425 66 509M444 700L508 700L508-91L444-91L444 700Z"  horiz-adv-x="618" vert-adv-y="1000"  />

      
      <glyph glyph-name="unib7" unicode="&#xb7;" d="M74 254L74 371L185 371L185 254L74 254Z"  horiz-adv-x="259" vert-adv-y="1000"  />

      
      <glyph glyph-name="unib8" unicode="&#xb8;" d="M188-51Q229-51 262.50-69.50Q296-88 296-128Q296-169 259-189Q222-209 170-209Q119-209 84-191Q49-173 40-139L92-136Q102-169 163-169Q231-169 231-128Q231-107 212.50-96.50Q194-86 167-86Q140-86 107-97L60-80L121 0L171 0L124-62Q157-51 188-51Z"  horiz-adv-x="336" vert-adv-y="1000"  />

      
      <glyph glyph-name="unib9" unicode="&#xb9;" d="M153 764L214 764L214 333L140 333L140 683L40 616L40 689L153 764Z"  horiz-adv-x="318" vert-adv-y="1000"  />

      
      <glyph glyph-name="unibb" unicode="&#xbb;" d="M321 302L321 258L148 103L50 103L249 280L50 457L148 457L321 302M379 457L552 302L552 258L379 103L282 103L481 280L282 457L379 457Z"  horiz-adv-x="588" vert-adv-y="1000"  />

      
      <glyph glyph-name="unibc" unicode="&#xbc;" d="M121 340L121 625L35 576L35 642L135 700L187 700L187 340L121 340M613 700L684 700L124 0L51 0L613 700M728 133L802 133L802 81L728 81L728 0L662 0L662 81L416 81L416 129L619 360L728 360L728 133M487 133L662 133L662 333L487 133Z"  horiz-adv-x="831" vert-adv-y="1000"  />

      
      <glyph glyph-name="unibd" unicode="&#xbd;" d="M121 340L121 625L35 576L35 642L135 700L187 700L187 340L121 340M613 700L684 700L124 0L51 0L613 700M579 52L807 52L807 0L486 0L486 47L647 166Q692 200 710.50 221Q729 242 729 266Q729 292 708.50 306Q688 320 653 320Q570 320 561 238L497 243Q503 308 545 340Q587 372 653 372Q715 372 755 345Q795 318 795 270Q795 236 773.50 206.50Q752 177 699 139L579 52Z"  horiz-adv-x="891" vert-adv-y="1000"  />

      
      <glyph glyph-name="unibe" unicode="&#xbe;" d="M358 446Q358 388 310 358Q262 328 184 328Q29 328 15 441L81 444Q88 378 184 378Q232 378 261.50 396.50Q291 415 291 447Q291 477 264.50 495Q238 513 187 513Q152 513 116 507L116 550L257 648L37 648L37 700L345 700L345 653L196 557Q269 556 313.50 529Q358 502 358 446M733 700L804 700L244 0L171 0L733 700M848 133L922 133L922 81L848 81L848 0L782 0L782 81L536 81L536 129L739 360L848 360L848 133M607 133L782 133L782 333L607 133Z"  horiz-adv-x="951" vert-adv-y="1000"  />

      
      <glyph glyph-name="unibf" unicode="&#xbf;" d="M411 524L411 406L300 406L300 524L411 524M648 41Q636-74 549.50-131Q463-188 321-188Q194-188 117-143Q40-98 40-8Q40 53 78.50 95.50Q117 138 206 186Q267 218 288 239.50Q309 261 309 301L309 317L402 317L402 297Q402 238 375 205.50Q348 173 284 143Q209 104 172.50 71.50Q136 39 136-3Q136-56 186.50-83Q237-110 321-110Q534-110 558 46L648 41Z"  horiz-adv-x="672" vert-adv-y="1000"  />

      
      <glyph glyph-name="unic0" unicode="&#xc0;" d="M509 763L431 763L279 879L381 879L509 763M787 0L696 180L215 180L124 0L23 0L382 700L532 700L891 0L787 0M254 257L657 257L455 656L254 257Z"  horiz-adv-x="914" vert-adv-y="1000"  />

      
      <glyph glyph-name="unic1" unicode="&#xc1;" d="M636 879L484 763L406 763L534 879L636 879M787 0L696 180L215 180L124 0L23 0L382 700L532 700L891 0L787 0M254 257L657 257L455 656L254 257Z"  horiz-adv-x="914" vert-adv-y="1000"  />

      
      <glyph glyph-name="unic2" unicode="&#xc2;" d="M457 854L338 766L258 766L401 882L514 882L657 766L577 766L457 854M787 0L696 180L215 180L124 0L23 0L382 700L532 700L891 0L787 0M254 257L657 257L455 656L254 257Z"  horiz-adv-x="914" vert-adv-y="1000"  />

      
      <glyph glyph-name="unic3" unicode="&#xc3;" d="M369 814Q344 814 329.50 801.50Q315 789 315 769L261 769Q261 812 285.50 840.50Q310 869 365 869Q410 869 465 842.50Q520 816 546 816Q572 816 586 828.50Q600 841 600 861L654 861Q654 817 630 789Q606 761 551 761Q506 761 450.50 787.50Q395 814 369 814M787 0L696 180L215 180L124 0L23 0L382 700L532 700L891 0L787 0M254 257L657 257L455 656L254 257Z"  horiz-adv-x="914" vert-adv-y="1000"  />

      
      <glyph glyph-name="unic4" unicode="&#xc4;" d="M380 862L380 766L283 766L283 862L380 862M633 862L633 766L536 766L536 862L633 862M787 0L696 180L215 180L124 0L23 0L382 700L532 700L891 0L787 0M254 257L657 257L455 656L254 257Z"  horiz-adv-x="914" vert-adv-y="1000"  />

      
      <glyph glyph-name="unic5" unicode="&#xc5;" d="M554.50 771.50Q554.50 771.50 534.75 759.25Q515 747 457 747Q399 747 359.50 771.50Q320 796 320 842Q320 888 359.50 913Q399 938 457 938Q515 938 554.50 913Q594 888 594 842Q594 796 554.50 771.50M518 879.50Q518 879.50 506.50 886.25Q495 893 457 893Q419 893 396 879.50Q373 866 373 842Q373 818 396 805Q419 792 457 792Q495 792 518 805Q541 818 541 842Q541 866 518 879.50M787 0L696 180L215 180L124 0L23 0L382 700L532 700L891 0L787 0M254 257L657 257L455 656L254 257Z"  horiz-adv-x="914" vert-adv-y="1000"  />

      
      <glyph glyph-name="unic6" unicode="&#xc6;" d="M782 79L1340 79L1340 0L682 0L682 180L270 180L134 0L16 0L555 700L1320 700L1320 621L782 621L782 393L1209 393L1209 319L782 319L782 79M327 257L682 257L682 621L602 621L327 257Z"  horiz-adv-x="1390" vert-adv-y="1000"  />

      
      <glyph glyph-name="unic7" unicode="&#xc7;" d="M475-12L451-12L413-62Q446-51 477-51Q518-51 551.50-69.50Q585-88 585-128Q585-169 548-189Q511-209 459-209Q408-209 373.50-191Q339-173 329-139L381-136Q393-169 452-169Q521-169 521-128Q521-108 502-97Q483-86 456-86Q431-86 396-97L350-80L404-8Q235 10 143.50 106.50Q52 203 52 350Q52 512 161 612Q270 712 466 712Q622 712 725 649.50Q828 587 848 482L752 475Q736 545 657 587.50Q578 630 466 630Q317 630 234.50 551.50Q152 473 152 350Q152 227 236.50 148.50Q321 70 475 70Q596 70 671 117Q746 164 761 237L856 231Q838 120 740 54Q642-12 475-12Z"  horiz-adv-x="897" vert-adv-y="1000"  />

      
      <glyph glyph-name="unic8" unicode="&#xc8;" d="M473 763L394 763L242 879L345 879L473 763M98 0L98 700L736 700L736 621L198 621L198 394L626 394L626 318L198 318L198 79L757 79L757 0L98 0Z"  horiz-adv-x="806" vert-adv-y="1000"  />

      
      <glyph glyph-name="unic9" unicode="&#xc9;" d="M334 763L462 879L564 879L412 763L334 763M98 0L98 700L736 700L736 621L198 621L198 394L626 394L626 318L198 318L198 79L757 79L757 0L98 0Z"  horiz-adv-x="806" vert-adv-y="1000"  />

      
      <glyph glyph-name="unica" unicode="&#xca;" d="M403 854L283 766L203 766L346 882L459 882L602 766L522 766L403 854M198 79L757 79L757 0L98 0L98 700L736 700L736 621L198 621L198 394L626 394L626 318L198 318L198 79Z"  horiz-adv-x="806" vert-adv-y="1000"  />

      
      <glyph glyph-name="unicb" unicode="&#xcb;" d="M229 766L229 862L325 862L325 766L229 766M481 766L481 862L578 862L578 766L481 766M98 0L98 700L736 700L736 621L198 621L198 394L626 394L626 318L198 318L198 79L757 79L757 0L98 0Z"  horiz-adv-x="806" vert-adv-y="1000"  />

      
      <glyph glyph-name="unicc" unicode="&#xcc;" d="M196 763L120 763L-7 879L92 879L196 763M98 0L98 700L198 700L198 0L98 0Z"  horiz-adv-x="296" vert-adv-y="1000"  />

      
      <glyph glyph-name="unicd" unicode="&#xcd;" d="M100 763L204 879L304 879L176 763L100 763M98 0L98 700L198 700L198 0L98 0Z"  horiz-adv-x="296" vert-adv-y="1000"  />

      
      <glyph glyph-name="unice" unicode="&#xce;" d="M205 882L347 766L267 766L148 854L28 766L-52 766L92 882L205 882M98 0L98 700L198 700L198 0L98 0Z"  horiz-adv-x="296" vert-adv-y="1000"  />

      
      <glyph glyph-name="unicf" unicode="&#xcf;" d="M5 766L5 862L95 862L95 766L5 766M202 766L202 862L291 862L291 766L202 766M98 0L98 700L198 700L198 0L98 0Z"  horiz-adv-x="296" vert-adv-y="1000"  />

      
      <glyph glyph-name="unid0" unicode="&#xd0;" d="M480 700Q681 700 792 605.50Q903 511 903 350Q903 189 792 94.50Q681 0 480 0L134 0L134 315L35 315L35 385L134 385L134 700L480 700M471 82Q631 82 717 155Q803 228 803 350Q803 472 717 545Q631 618 471 618L234 618L234 385L529 385L529 315L234 315L234 82L471 82Z"  horiz-adv-x="955" vert-adv-y="1000"  />

      
      <glyph glyph-name="unid1" unicode="&#xd1;" d="M471 787.50Q471 787.50 443.50 800.75Q416 814 390 814Q364 814 350 801.50Q336 789 336 769L282 769Q282 812 306 840.50Q330 869 385 869Q430 869 485.50 842.50Q541 816 567 816Q592 816 606 828.50Q620 841 620 861L675 861Q675 817 650.50 789Q626 761 571 761Q526 761 471 787.50M761 700L858 700L858 0L686 0L195 648L195 0L98 0L98 700L270 700L761 52L761 700Z"  horiz-adv-x="956" vert-adv-y="1000"  />

      
      <glyph glyph-name="unid2" unicode="&#xd2;" d="M552 763L473 763L322 879L424 879L552 763M165 88.50Q165 88.50 108.50 138.75Q52 189 52 350Q52 511 165 611.50Q278 712 482 712Q686 712 799.50 611.50Q913 511 913 350Q913 189 799.50 88.50Q686-12 482-12Q278-12 165 88.50M238.50 551.50Q238.50 551.50 195.25 512.25Q152 473 152 350Q152 227 238.50 148.50Q325 70 482 70Q640 70 726.50 148.50Q813 227 813 350Q813 473 726.50 551.50Q640 630 482 630Q325 630 238.50 551.50Z"  horiz-adv-x="965" vert-adv-y="1000"  />

      
      <glyph glyph-name="unid3" unicode="&#xd3;" d="M413 763L541 879L643 879L492 763L413 763M165 88.50Q165 88.50 108.50 138.75Q52 189 52 350Q52 511 165 611.50Q278 712 482 712Q686 712 799.50 611.50Q913 511 913 350Q913 189 799.50 88.50Q686-12 482-12Q278-12 165 88.50M238.50 551.50Q238.50 551.50 195.25 512.25Q152 473 152 350Q152 227 238.50 148.50Q325 70 482 70Q640 70 726.50 148.50Q813 227 813 350Q813 473 726.50 551.50Q640 630 482 630Q325 630 238.50 551.50Z"  horiz-adv-x="965" vert-adv-y="1000"  />

      
      <glyph glyph-name="unid4" unicode="&#xd4;" d="M482 854L362 766L282 766L426 882L539 882L681 766L601 766L482 854M165 611.50Q165 611.50 221.50 661.75Q278 712 482 712Q686 712 799.50 611.50Q913 511 913 350Q913 189 799.50 88.50Q686-12 482-12Q278-12 165 88.50Q52 189 52 350Q52 511 165 611.50M482 70Q640 70 726.50 148.50Q813 227 813 350Q813 473 726.50 551.50Q640 630 482 630Q325 630 238.50 551.50Q152 473 152 350Q152 227 238.50 148.50Q325 70 482 70Z"  horiz-adv-x="965" vert-adv-y="1000"  />

      
      <glyph glyph-name="unid5" unicode="&#xd5;" d="M624 861L679 861Q679 817 655 789Q631 761 576 761Q530 761 475 787.50Q420 814 394 814Q368 814 354 801.50Q340 789 340 769L286 769Q286 812 310 840.50Q334 869 389 869Q435 869 490 842.50Q545 816 571 816Q597 816 610.50 828.50Q624 841 624 861M165 88.50Q165 88.50 108.50 138.75Q52 189 52 350Q52 511 165 611.50Q278 712 482 712Q686 712 799.50 611.50Q913 511 913 350Q913 189 799.50 88.50Q686-12 482-12Q278-12 165 88.50M238.50 551.50Q238.50 551.50 195.25 512.25Q152 473 152 350Q152 227 238.50 148.50Q325 70 482 70Q640 70 726.50 148.50Q813 227 813 350Q813 473 726.50 551.50Q640 630 482 630Q325 630 238.50 551.50Z"  horiz-adv-x="965" vert-adv-y="1000"  />

      
      <glyph glyph-name="unid6" unicode="&#xd6;" d="M308 766L308 862L404 862L404 766L308 766M561 766L561 862L657 862L657 766L561 766M165 88.50Q165 88.50 108.50 138.75Q52 189 52 350Q52 511 165 611.50Q278 712 482 712Q686 712 799.50 611.50Q913 511 913 350Q913 189 799.50 88.50Q686-12 482-12Q278-12 165 88.50M238.50 551.50Q238.50 551.50 195.25 512.25Q152 473 152 350Q152 227 238.50 148.50Q325 70 482 70Q640 70 726.50 148.50Q813 227 813 350Q813 473 726.50 551.50Q640 630 482 630Q325 630 238.50 551.50Z"  horiz-adv-x="965" vert-adv-y="1000"  />

      
      <glyph glyph-name="unid7" unicode="&#xd7;" d="M491 472L334 332L491 192L443 144L284 287L124 144L76 192L233 332L76 472L124 520L284 377L443 520L491 472Z"  horiz-adv-x="567" vert-adv-y="1000"  />

      
      <glyph glyph-name="unid8" unicode="&#xd8;" d="M807 605Q913 508 913 350Q913 189 799.50 88.50Q686-12 482-12Q319-12 211 55L127-22L78 23L157 96Q52 193 52 350Q52 511 165 611.50Q278 712 482 712Q645 712 753 646L837 722L886 677L807 605M152 350Q152 234 226 160L684 582Q605 630 482 630Q325 630 238.50 551.50Q152 473 152 350M482 70Q640 70 726.50 148.50Q813 227 813 350Q813 466 738 541L280 118Q363 70 482 70Z"  horiz-adv-x="965" vert-adv-y="1000"  />

      
      <glyph glyph-name="unid9" unicode="&#xd9;" d="M544 763L466 763L314 879L416 879L544 763M751 700L851 700L851 283Q851 142 756.50 65Q662-12 475-12Q287-12 192.50 65Q98 142 98 283L98 700L198 700L198 293Q198 184 267.50 127Q337 70 475 70Q612 70 681.50 127Q751 184 751 293L751 700Z"  horiz-adv-x="949" vert-adv-y="1000"  />

      
      <glyph glyph-name="unida" unicode="&#xda;" d="M635 879L484 763L405 763L533 879L635 879M751 700L851 700L851 283Q851 142 756.50 65Q662-12 475-12Q287-12 192.50 65Q98 142 98 283L98 700L198 700L198 293Q198 184 267.50 127Q337 70 475 70Q612 70 681.50 127Q751 184 751 293L751 700Z"  horiz-adv-x="949" vert-adv-y="1000"  />

      
      <glyph glyph-name="unidb" unicode="&#xdb;" d="M474 854L355 766L275 766L418 882L531 882L674 766L593 766L474 854M751 700L851 700L851 283Q851 142 756.50 65Q662-12 475-12Q287-12 192.50 65Q98 142 98 283L98 700L198 700L198 293Q198 184 267.50 127Q337 70 475 70Q612 70 681.50 127Q751 184 751 293L751 700Z"  horiz-adv-x="949" vert-adv-y="1000"  />

      
      <glyph glyph-name="unidc" unicode="&#xdc;" d="M396 862L396 766L300 766L300 862L396 862M649 862L649 766L553 766L553 862L649 862M751 700L851 700L851 283Q851 142 756.50 65Q662-12 475-12Q287-12 192.50 65Q98 142 98 283L98 700L198 700L198 293Q198 184 267.50 127Q337 70 475 70Q612 70 681.50 127Q751 184 751 293L751 700Z"  horiz-adv-x="949" vert-adv-y="1000"  />

      
      <glyph glyph-name="unidd" unicode="&#xdd;" d="M610 879L458 763L379 763L507 879L610 879M757 700L876 700L498 287L498 0L398 0L398 287L20 700L143 700L450 356L757 700Z"  horiz-adv-x="897" vert-adv-y="1000"  />

      
      <glyph glyph-name="unide" unicode="&#xde;" d="M550 578Q663 578 732 524Q801 470 801 371Q801 272 733.50 219.50Q666 167 550 167L198 167L198 0L98 0L98 700L198 700L198 578L550 578M544 245Q616 245 658.50 278Q701 311 701 371Q701 431 658.50 463.50Q616 496 544 496L198 496L198 245L544 245Z"  horiz-adv-x="848" vert-adv-y="1000"  />

      
      <glyph glyph-name="unidf" unicode="&#xdf;" d="M450 427Q573 416 640.50 360.50Q708 305 708 210Q708 102 622.50 48Q537-6 404-6Q366-6 314 0L314 77Q374 72 395 72Q452 72 498.50 84.50Q545 97 579.50 132Q614 167 614 220Q614 297 547.50 342Q481 387 355 387L308 387L308 461L355 461Q450 461 499 492Q548 523 548 578Q548 634 497.50 664Q447 694 359 694Q175 694 175 550L175 0L80 0L80 562Q80 661 151 713.50Q222 766 359 766Q486 766 564.50 721.50Q643 677 643 588Q643 520 593.50 479Q544 438 450 427Z"  horiz-adv-x="750" vert-adv-y="1000"  />

      
      <glyph glyph-name="unie0" unicode="&#xe0;" d="M441 593L364 593L227 735L327 735L441 593M374 536Q515 536 587.50 482.50Q660 429 660 327L660 0L573 0L573 120Q538 58 463.50 23Q389-12 284-12Q164-12 105.50 29.50Q47 71 47 138Q47 211 117 249Q187 287 331 297L565 312L565 346Q565 399 517 434Q469 469 374 469Q293 469 240 444Q187 419 175 371L85 371Q95 455 173.50 495.50Q252 536 374 536M307 55Q428 55 496.50 102.50Q565 150 565 225L565 253L342 239Q141 225 141 142Q141 103 182.50 79Q224 55 307 55Z"  horiz-adv-x="733" vert-adv-y="1000"  />

      
      <glyph glyph-name="unie1" unicode="&#xe1;" d="M530 735L393 593L317 593L431 735L530 735M374 536Q515 536 587.50 482.50Q660 429 660 327L660 0L573 0L573 120Q538 58 463.50 23Q389-12 284-12Q164-12 105.50 29.50Q47 71 47 138Q47 211 117 249Q187 287 331 297L565 312L565 346Q565 399 517 434Q469 469 374 469Q293 469 240 444Q187 419 175 371L85 371Q95 455 173.50 495.50Q252 536 374 536M307 55Q428 55 496.50 102.50Q565 150 565 225L565 253L342 239Q141 225 141 142Q141 103 182.50 79Q224 55 307 55Z"  horiz-adv-x="733" vert-adv-y="1000"  />

      
      <glyph glyph-name="unie2" unicode="&#xe2;" d="M379 705L264 593L191 593L327 735L430 735L566 593L494 593L379 705M374 536Q515 536 587.50 482.50Q660 429 660 327L660 0L573 0L573 120Q538 58 463.50 23Q389-12 284-12Q164-12 105.50 29.50Q47 71 47 138Q47 211 117 249Q187 287 331 297L565 312L565 346Q565 399 517 434Q469 469 374 469Q293 469 240 444Q187 419 175 371L85 371Q95 455 173.50 495.50Q252 536 374 536M307 55Q428 55 496.50 102.50Q565 150 565 225L565 253L342 239Q141 225 141 142Q141 103 182.50 79Q224 55 307 55Z"  horiz-adv-x="733" vert-adv-y="1000"  />

      
      <glyph glyph-name="unie3" unicode="&#xe3;" d="M371 624.50Q371 624.50 342.50 638.25Q314 652 287 652Q260 652 245.50 639Q231 626 231 605L172 605Q172 648 199 677.50Q226 707 283 707Q330 707 386.50 679.50Q443 652 471 652Q498 652 512.50 665Q527 678 527 699L586 699Q586 655 559 626Q532 597 475 597Q428 597 371 624.50M374 536Q515 536 587.50 482.50Q660 429 660 327L660 0L573 0L573 120Q538 58 463.50 23Q389-12 284-12Q164-12 105.50 29.50Q47 71 47 138Q47 211 117 249Q187 287 331 297L565 312L565 346Q565 399 517 434Q469 469 374 469Q293 469 240 444Q187 419 175 371L85 371Q95 455 173.50 495.50Q252 536 374 536M307 55Q428 55 496.50 102.50Q565 150 565 225L565 253L342 239Q141 225 141 142Q141 103 182.50 79Q224 55 307 55Z"  horiz-adv-x="733" vert-adv-y="1000"  />

      
      <glyph glyph-name="unie4" unicode="&#xe4;" d="M311 716L311 611L222 611L222 716L311 716M535 716L535 611L447 611L447 716L535 716M374 536Q515 536 587.50 482.50Q660 429 660 327L660 0L573 0L573 120Q538 58 463.50 23Q389-12 284-12Q164-12 105.50 29.50Q47 71 47 138Q47 211 117 249Q187 287 331 297L565 312L565 346Q565 399 517 434Q469 469 374 469Q293 469 240 444Q187 419 175 371L85 371Q95 455 173.50 495.50Q252 536 374 536M307 55Q428 55 496.50 102.50Q565 150 565 225L565 253L342 239Q141 225 141 142Q141 103 182.50 79Q224 55 307 55Z"  horiz-adv-x="733" vert-adv-y="1000"  />

      
      <glyph glyph-name="unie5" unicode="&#xe5;" d="M477 614Q477 614 456.50 601.50Q436 589 379 589Q322 589 281 614Q240 639 240 686Q240 733 281 757.50Q322 782 379 782Q436 782 477 757.50Q518 733 518 686Q518 639 477 614M379 738Q342 738 318.50 724.50Q295 711 295 686Q295 661 318.50 647Q342 633 379 633Q415 633 439 647Q463 661 463 686Q463 711 439 724.50Q415 738 379 738M374 536Q515 536 587.50 482.50Q660 429 660 327L660 0L573 0L573 120Q538 58 463.50 23Q389-12 284-12Q164-12 105.50 29.50Q47 71 47 138Q47 211 117 249Q187 287 331 297L565 312L565 346Q565 399 517 434Q469 469 374 469Q293 469 240 444Q187 419 175 371L85 371Q95 455 173.50 495.50Q252 536 374 536M307 55Q428 55 496.50 102.50Q565 150 565 225L565 253L342 239Q141 225 141 142Q141 103 182.50 79Q224 55 307 55Z"  horiz-adv-x="733" vert-adv-y="1000"  />

      
      <glyph glyph-name="unie6" unicode="&#xe6;" d="M1203 235L660 235Q669 148 734.50 101.50Q800 55 901 55Q971 55 1023.50 78.50Q1076 102 1100 140L1192 136Q1163 67 1087.50 27.50Q1012-12 904-12Q682-12 610 133Q529-12 291-12Q166-12 106.50 29Q47 70 47 138Q47 289 331 296L565 302L565 343Q565 399 518.50 434Q472 469 374 469Q293 469 240 444Q187 419 175 371L85 371Q95 455 172.50 495.50Q250 536 370 536Q574 536 625 417Q704 536 895 536Q1040 536 1121.50 464Q1203 392 1203 247L1203 235M891 469Q798 469 735 424.50Q672 380 661 296L1109 296Q1106 376 1046 422.50Q986 469 891 469M307 55Q428 55 496.50 102.50Q565 150 565 225L565 242L342 237Q142 232 142 142Q142 103 183 79Q224 55 307 55Z"  horiz-adv-x="1246" vert-adv-y="1000"  />

      
      <glyph glyph-name="unie7" unicode="&#xe7;" d="M378-12L339-62Q374-51 404-51Q445-51 478.50-69.50Q512-88 512-128Q512-169 474.50-189Q437-209 385-209Q334-209 299.50-191Q265-173 256-139L308-136Q318-169 379-169Q447-169 447-128Q447-108 428-97Q409-86 383-86Q357-86 322-97L276-80L329-10Q196 1 120.50 71.50Q45 142 45 262Q45 393 134 464.50Q223 536 375 536Q494 536 578.50 488Q663 440 680 351L590 346Q573 403 514 433Q455 463 375 463Q269 463 204.50 409Q140 355 140 262Q140 169 205 115Q270 61 378 61Q460 61 518.50 93Q577 125 595 184L688 179Q668 88 584.50 38Q501-12 378-12Z"  horiz-adv-x="724" vert-adv-y="1000"  />

      
      <glyph glyph-name="unie8" unicode="&#xe8;" d="M444 593L367 593L231 735L330 735L444 593M705 247L705 235L140 235Q150 147 217 101Q284 55 392 55Q468 55 522.50 78Q577 101 602 140L693 136Q665 66 587.50 27Q510-12 392-12Q231-12 138 57.50Q45 127 45 262Q45 396 137.50 466Q230 536 382 536Q538 536 621.50 464.50Q705 393 705 247M382 469Q282 469 217.50 425Q153 381 141 296L611 296Q607 376 545.50 422.50Q484 469 382 469Z"  horiz-adv-x="748" vert-adv-y="1000"  />

      
      <glyph glyph-name="unie9" unicode="&#xe9;" d="M533 735L397 593L320 593L434 735L533 735M705 247L705 235L140 235Q150 147 217 101Q284 55 392 55Q468 55 522.50 78Q577 101 602 140L693 136Q665 66 587.50 27Q510-12 392-12Q231-12 138 57.50Q45 127 45 262Q45 396 137.50 466Q230 536 382 536Q538 536 621.50 464.50Q705 393 705 247M382 469Q282 469 217.50 425Q153 381 141 296L611 296Q607 376 545.50 422.50Q484 469 382 469Z"  horiz-adv-x="748" vert-adv-y="1000"  />

      
      <glyph glyph-name="uniea" unicode="&#xea;" d="M382 705L267 593L194 593L330 735L433 735L569 593L497 593L382 705M705 247L705 235L140 235Q150 147 217 101Q284 55 392 55Q468 55 522.50 78Q577 101 602 140L693 136Q665 66 587.50 27Q510-12 392-12Q231-12 138 57.50Q45 127 45 262Q45 396 137.50 466Q230 536 382 536Q538 536 621.50 464.50Q705 393 705 247M382 469Q282 469 217.50 425Q153 381 141 296L611 296Q607 376 545.50 422.50Q484 469 382 469Z"  horiz-adv-x="748" vert-adv-y="1000"  />

      
      <glyph glyph-name="unieb" unicode="&#xeb;" d="M314 716L314 611L226 611L226 716L314 716M538 716L538 611L450 611L450 716L538 716M705 247L705 235L140 235Q150 147 217 101Q284 55 392 55Q468 55 522.50 78Q577 101 602 140L693 136Q665 66 587.50 27Q510-12 392-12Q231-12 138 57.50Q45 127 45 262Q45 396 137.50 466Q230 536 382 536Q538 536 621.50 464.50Q705 393 705 247M382 469Q282 469 217.50 425Q153 381 141 296L611 296Q607 376 545.50 422.50Q484 469 382 469Z"  horiz-adv-x="748" vert-adv-y="1000"  />

      
      <glyph glyph-name="uniec" unicode="&#xec;" d="M171 593L95 593L-18 735L83 735L171 593M80 0L80 524L175 524L175 0L80 0Z"  horiz-adv-x="255" vert-adv-y="1000"  />

      
      <glyph glyph-name="unied" unicode="&#xed;" d="M85 593L173 735L273 735L161 593L85 593M80 0L80 524L175 524L175 0L80 0Z"  horiz-adv-x="255" vert-adv-y="1000"  />

      
      <glyph glyph-name="uniee" unicode="&#xee;" d="M177 735L288 593L218 593L128 703L37 593L-33 593L78 735L177 735M80 0L80 524L175 524L175 0L80 0Z"  horiz-adv-x="255" vert-adv-y="1000"  />

      
      <glyph glyph-name="unief" unicode="&#xef;" d="M-7 611L-7 716L78 716L78 611L-7 611M177 611L177 716L262 716L262 611L177 611M80 0L80 524L175 524L175 0L80 0Z"  horiz-adv-x="255" vert-adv-y="1000"  />

      
      <glyph glyph-name="unif0" unicode="&#xf0;" d="M511 663Q721 553 721 313Q721 144 629 66Q537-12 381-12Q227-12 136 57.50Q45 127 45 248Q45 368 134 437.50Q223 507 366 507Q473 507 547 466.50Q621 426 651 354Q636 455 580.50 519.50Q525 584 417 623L234 546L213 584L353 643Q263 667 142 682L160 759Q342 734 457 687L601 748L622 710L511 663M383 61Q497 61 562 111.50Q627 162 627 248Q627 334 562 384.50Q497 435 383 435Q270 435 204.50 384Q139 333 139 248Q139 163 204.50 112Q270 61 383 61Z"  horiz-adv-x="772" vert-adv-y="1000"  />

      
      <glyph glyph-name="unif1" unicode="&#xf1;" d="M297 652Q271 652 256.50 639Q242 626 242 605L183 605Q183 648 210 677.50Q237 707 293 707Q340 707 397 679.50Q454 652 481 652Q508 652 522.50 664.50Q537 677 537 699L596 699Q596 655 569.50 626Q543 597 486 597Q439 597 382 624.50Q325 652 297 652M436 536Q557 536 622.50 477.50Q688 419 688 302L688 0L594 0L594 272Q594 458 407 458Q297 458 236 398Q175 338 175 235L175 0L80 0L80 524L167 524L167 385Q199 457 268 496.50Q337 536 436 536Z"  horiz-adv-x="762" vert-adv-y="1000"  />

      
      <glyph glyph-name="unif2" unicode="&#xf2;" d="M445 593L369 593L232 735L331 735L445 593M137 61Q137 61 91 97.50Q45 134 45 262Q45 390 137 463Q229 536 383 536Q537 536 629 463Q721 390 721 262Q721 134 629 61Q537-12 383-12Q229-12 137 61M205 408Q205 408 172 380.50Q139 353 139 262Q139 171 205 116Q271 61 383 61Q495 61 561 116Q627 171 627 262Q627 353 561 408Q495 463 383 463Q271 463 205 408Z"  horiz-adv-x="767" vert-adv-y="1000"  />

      
      <glyph glyph-name="unif3" unicode="&#xf3;" d="M321 593L436 735L535 735L398 593L321 593M137 61Q137 61 91 97.50Q45 134 45 262Q45 390 137 463Q229 536 383 536Q537 536 629 463Q721 390 721 262Q721 134 629 61Q537-12 383-12Q229-12 137 61M205 408Q205 408 172 380.50Q139 353 139 262Q139 171 205 116Q271 61 383 61Q495 61 561 116Q627 171 627 262Q627 353 561 408Q495 463 383 463Q271 463 205 408Z"  horiz-adv-x="767" vert-adv-y="1000"  />

      
      <glyph glyph-name="unif4" unicode="&#xf4;" d="M383 705L268 593L196 593L332 735L435 735L571 593L498 593L383 705M137 463Q137 463 183 499.50Q229 536 383 536Q537 536 629 463Q721 390 721 262Q721 134 629 61Q537-12 383-12Q229-12 137 61Q45 134 45 262Q45 390 137 463M205 116Q205 116 238 88.50Q271 61 383 61Q495 61 561 116Q627 171 627 262Q627 353 561 408Q495 463 383 463Q271 463 205 408Q139 353 139 262Q139 171 205 116Z"  horiz-adv-x="767" vert-adv-y="1000"  />

      
      <glyph glyph-name="unif5" unicode="&#xf5;" d="M291 652Q265 652 250.50 639Q236 626 236 605L177 605Q177 648 204 677.50Q231 707 287 707Q334 707 391 679.50Q448 652 475 652Q502 652 516.50 664.50Q531 677 531 699L590 699Q590 655 563.50 626Q537 597 480 597Q433 597 376 624.50Q319 652 291 652M137 463Q137 463 183 499.50Q229 536 383 536Q537 536 629 463Q721 390 721 262Q721 134 629 61Q537-12 383-12Q229-12 137 61Q45 134 45 262Q45 390 137 463M205 116Q205 116 238 88.50Q271 61 383 61Q495 61 561 116Q627 171 627 262Q627 353 561 408Q495 463 383 463Q271 463 205 408Q139 353 139 262Q139 171 205 116Z"  horiz-adv-x="767" vert-adv-y="1000"  />

      
      <glyph glyph-name="unif6" unicode="&#xf6;" d="M227 611L227 716L315 716L315 611L227 611M452 611L452 716L540 716L540 611L452 611M137 61Q137 61 91 97.50Q45 134 45 262Q45 390 137 463Q229 536 383 536Q537 536 629 463Q721 390 721 262Q721 134 629 61Q537-12 383-12Q229-12 137 61M205 408Q205 408 172 380.50Q139 353 139 262Q139 171 205 116Q271 61 383 61Q495 61 561 116Q627 171 627 262Q627 353 561 408Q495 463 383 463Q271 463 205 408Z"  horiz-adv-x="767" vert-adv-y="1000"  />

      
      <glyph glyph-name="unif7" unicode="&#xf7;" d="M317.50 455.50Q317.50 455.50 310.25 448.25Q303 441 282 441Q261 441 246.50 455.50Q232 470 232 490Q232 510 246.50 524Q261 538 282 538Q303 538 317.50 524Q332 510 332 490Q332 470 317.50 455.50M69 365L495 365L495 300L69 300L69 365M317.50 140.50Q317.50 140.50 310.25 133.25Q303 126 282 126Q261 126 246.50 140.50Q232 155 232 175Q232 195 246.50 209Q261 223 282 223Q303 223 317.50 209Q332 195 332 175Q332 155 317.50 140.50Z"  horiz-adv-x="564" vert-adv-y="1000"  />

      
      <glyph glyph-name="unif8" unicode="&#xf8;" d="M634 460Q721 387 721 262Q721 134 629 61Q537-12 383-12Q264-12 179 33L115-27L74 9L133 64Q45 138 45 262Q45 390 137 463Q229 536 383 536Q502 536 587 491L651 551L693 515L634 460M139 262Q139 179 197 124L524 432Q465 463 383 463Q271 463 205 408Q139 353 139 262M383 61Q495 61 561 116Q627 171 627 262Q627 346 570 400L242 92Q301 61 383 61Z"  horiz-adv-x="767" vert-adv-y="1000"  />

      
      <glyph glyph-name="unif9" unicode="&#xf9;" d="M443 593L367 593L230 735L329 735L443 593M587 524L682 524L682 0L595 0L595 147Q563 71 494.50 29.50Q426-12 327-12Q207-12 140.50 49Q74 110 74 230L74 524L168 524L168 258Q168 66 356 66Q465 66 526 131.50Q587 197 587 302L587 524Z"  horiz-adv-x="762" vert-adv-y="1000"  />

      
      <glyph glyph-name="unifa" unicode="&#xfa;" d="M533 735L396 593L319 593L434 735L533 735M587 524L682 524L682 0L595 0L595 147Q563 71 494.50 29.50Q426-12 327-12Q207-12 140.50 49Q74 110 74 230L74 524L168 524L168 258Q168 66 356 66Q465 66 526 131.50Q587 197 587 302L587 524Z"  horiz-adv-x="762" vert-adv-y="1000"  />

      
      <glyph glyph-name="unifb" unicode="&#xfb;" d="M381 705L266 593L194 593L330 735L433 735L569 593L496 593L381 705M587 524L682 524L682 0L595 0L595 147Q563 71 494.50 29.50Q426-12 327-12Q207-12 140.50 49Q74 110 74 230L74 524L168 524L168 258Q168 66 356 66Q465 66 526 131.50Q587 197 587 302L587 524Z"  horiz-adv-x="762" vert-adv-y="1000"  />

      
      <glyph glyph-name="unifc" unicode="&#xfc;" d="M313 716L313 611L225 611L225 716L313 716M538 716L538 611L450 611L450 716L538 716M587 524L682 524L682 0L595 0L595 147Q563 71 494.50 29.50Q426-12 327-12Q207-12 140.50 49Q74 110 74 230L74 524L168 524L168 258Q168 66 356 66Q465 66 526 131.50Q587 197 587 302L587 524Z"  horiz-adv-x="762" vert-adv-y="1000"  />

      
      <glyph glyph-name="unifd" unicode="&#xfd;" d="M526 735L389 593L312 593L427 735L526 735M613 524L717 524L426-58Q384-148 339.50-180Q295-212 199-212Q156-212 125-207L125-134Q158-137 193-137Q251-137 280.50-118.50Q310-100 337-46L359 0L319 0L23 524L129 524L391 38L613 524Z"  horiz-adv-x="740" vert-adv-y="1000"  />

      
      <glyph glyph-name="unife" unicode="&#xfe;" d="M433 536Q571 536 655 463Q739 390 739 262Q739 134 655 61Q571-12 433-12Q345-12 278 19.50Q211 51 175 110L175-200L80-200L80 736L175 736L175 414Q247 536 433 536M235 116Q235 116 267 88.50Q299 61 408 61Q517 61 581 116Q645 171 645 262Q645 353 581 408Q517 463 408 463Q299 463 235 408Q171 353 171 262Q171 171 235 116Z"  horiz-adv-x="785" vert-adv-y="1000"  />

      
      <glyph glyph-name="uniff" unicode="&#xff;" d="M306 716L306 611L218 611L218 716L306 716M531 716L531 611L443 611L443 716L531 716M613 524L717 524L426-58Q384-148 339.50-180Q295-212 199-212Q156-212 125-207L125-134Q158-137 193-137Q251-137 280.50-118.50Q310-100 337-46L359 0L319 0L23 524L129 524L391 38L613 524Z"  horiz-adv-x="740" vert-adv-y="1000"  />

      
      <glyph glyph-name="uni0100" unicode="&#x0100;" d="M664 841L664 774L251 774L251 841L664 841M787 0L696 180L215 180L124 0L23 0L382 700L532 700L891 0L787 0M254 257L657 257L455 656L254 257Z"  horiz-adv-x="914" vert-adv-y="1000"  />

      
      <glyph glyph-name="uni0101" unicode="&#x0101;" d="M568 692L568 628L189 628L189 692L568 692M374 536Q515 536 587.50 482.50Q660 429 660 327L660 0L573 0L573 120Q538 58 463.50 23Q389-12 284-12Q164-12 105.50 29.50Q47 71 47 138Q47 211 117 249Q187 287 331 297L565 312L565 346Q565 399 517 434Q469 469 374 469Q293 469 240 444Q187 419 175 371L85 371Q95 455 173.50 495.50Q252 536 374 536M307 55Q428 55 496.50 102.50Q565 150 565 225L565 253L342 239Q141 225 141 142Q141 103 182.50 79Q224 55 307 55Z"  horiz-adv-x="733" vert-adv-y="1000"  />

      
      <glyph glyph-name="uni0102" unicode="&#x0102;" d="M597 793Q597 793 573.50 776Q550 759 458 759Q366 759 319 793Q272 827 268 885L326 885Q336 816 458 816Q578 816 590 885L648 885Q644 827 597 793M787 0L696 180L215 180L124 0L23 0L382 700L532 700L891 0L787 0M254 257L657 257L455 656L254 257Z"  horiz-adv-x="914" vert-adv-y="1000"  />

      
      <glyph glyph-name="uni0103" unicode="&#x0103;" d="M514.50 631Q514.50 631 491.25 612Q468 593 379 593Q290 593 243.50 631Q197 669 194 732L252 732Q262 650 379 650Q496 650 506 732L564 732Q561 669 514.50 631M374 536Q515 536 587.50 482.50Q660 429 660 327L660 0L573 0L573 120Q538 58 463.50 23Q389-12 284-12Q164-12 105.50 29.50Q47 71 47 138Q47 211 117 249Q187 287 331 297L565 312L565 346Q565 399 517 434Q469 469 374 469Q293 469 240 444Q187 419 175 371L85 371Q95 455 173.50 495.50Q252 536 374 536M307 55Q428 55 496.50 102.50Q565 150 565 225L565 253L342 239Q141 225 141 142Q141 103 182.50 79Q224 55 307 55Z"  horiz-adv-x="733" vert-adv-y="1000"  />

      
      <glyph glyph-name="uni0104" unicode="&#x0104;" d="M869-103L914-112Q904-151 870-173.50Q836-196 783-196Q734-196 704.50-176.50Q675-157 675-121Q675-77 717-49Q759-21 831 0L787 0L696 180L215 180L124 0L23 0L382 700L532 700L891 0L890 0Q818-32 780-57.50Q742-83 742-115Q742-153 794-153Q857-153 869-103M254 257L657 257L455 656L254 257Z"  horiz-adv-x="914" vert-adv-y="1000"  />

      
      <glyph glyph-name="uni0105" unicode="&#x0105;" d="M639-103L684-112Q661-196 553-196Q504-196 474.50-176.50Q445-157 445-121Q445-77 487-49Q529-21 601 0L573 0L573 120Q538 58 463.50 23Q389-12 284-12Q164-12 105.50 29.50Q47 71 47 138Q47 211 117 249Q187 287 331 297L565 312L565 346Q565 399 517 434Q469 469 374 469Q293 469 240 444Q187 419 175 371L85 371Q95 455 173.50 495.50Q252 536 374 536Q515 536 587.50 482.50Q660 429 660 327L660 0Q587-32 549-57.50Q511-83 511-115Q511-153 564-153Q627-153 639-103M307 55Q428 55 496.50 102.50Q565 150 565 225L565 253L342 239Q141 225 141 142Q141 103 182.50 79Q224 55 307 55Z"  horiz-adv-x="733" vert-adv-y="1000"  />

      
      <glyph glyph-name="uni0106" unicode="&#x0106;" d="M610 879L458 763L380 763L508 879L610 879M761 237L856 231Q838 120 740 54Q642-12 475-12Q273-12 162.50 87.50Q52 187 52 350Q52 512 161 612Q270 712 466 712Q622 712 725 649.50Q828 587 848 482L752 475Q736 545 657 587.50Q578 630 466 630Q317 630 234.50 551.50Q152 473 152 350Q152 227 236.50 148.50Q321 70 475 70Q596 70 671 117Q746 164 761 237Z"  horiz-adv-x="897" vert-adv-y="1000"  />

      
      <glyph glyph-name="uni0107" unicode="&#x0107;" d="M314 593L428 735L527 735L390 593L314 593M688 179Q668 88 584.50 38Q501-12 378-12Q224-12 134.50 59.50Q45 131 45 262Q45 393 134 464.50Q223 536 375 536Q494 536 578.50 488Q663 440 680 351L590 346Q573 403 514 433Q455 463 375 463Q269 463 204.50 409Q140 355 140 262Q140 169 205 115Q270 61 378 61Q460 61 518.50 93Q577 125 595 184L688 179Z"  horiz-adv-x="724" vert-adv-y="1000"  />

      
      <glyph glyph-name="uni010A" unicode="&#x010A;" d="M502 863L502 764L396 764L396 863L502 863M761 237L856 231Q838 120 740 54Q642-12 475-12Q273-12 162.50 87.50Q52 187 52 350Q52 512 161 612Q270 712 466 712Q622 712 725 649.50Q828 587 848 482L752 475Q736 545 657 587.50Q578 630 466 630Q317 630 234.50 551.50Q152 473 152 350Q152 227 236.50 148.50Q321 70 475 70Q596 70 671 117Q746 164 761 237Z"  horiz-adv-x="897" vert-adv-y="1000"  />

      
      <glyph glyph-name="uni010B" unicode="&#x010B;" d="M325 608L325 723L426 723L426 608L325 608M688 179Q668 88 584.50 38Q501-12 378-12Q224-12 134.50 59.50Q45 131 45 262Q45 393 134 464.50Q223 536 375 536Q494 536 578.50 488Q663 440 680 351L590 346Q573 403 514 433Q455 463 375 463Q269 463 204.50 409Q140 355 140 262Q140 169 205 115Q270 61 378 61Q460 61 518.50 93Q577 125 595 184L688 179Z"  horiz-adv-x="724" vert-adv-y="1000"  />

      
      <glyph glyph-name="uni010C" unicode="&#x010C;" d="M506 763L393 763L250 879L330 879L449 791L569 879L649 879L506 763M761 237L856 231Q838 120 740 54Q642-12 475-12Q273-12 162.50 87.50Q52 187 52 350Q52 512 161 612Q270 712 466 712Q622 712 725 649.50Q828 587 848 482L752 475Q736 545 657 587.50Q578 630 466 630Q317 630 234.50 551.50Q152 473 152 350Q152 227 236.50 148.50Q321 70 475 70Q596 70 671 117Q746 164 761 237Z"  horiz-adv-x="897" vert-adv-y="1000"  />

      
      <glyph glyph-name="uni010D" unicode="&#x010D;" d="M427 590L324 590L188 732L260 732L375 619L490 732L563 732L427 590M595 184L688 179Q668 88 584.50 38Q501-12 378-12Q224-12 134.50 59.50Q45 131 45 262Q45 393 134 464.50Q223 536 375 536Q494 536 578.50 488Q663 440 680 351L590 346Q573 403 514 433Q455 463 375 463Q269 463 204.50 409Q140 355 140 262Q140 169 205 115Q270 61 378 61Q460 61 518.50 93Q577 125 595 184Z"  horiz-adv-x="724" vert-adv-y="1000"  />

      
      <glyph glyph-name="uni010E" unicode="&#x010E;" d="M516 763L403 763L260 879L340 879L460 791L579 879L659 879L516 763M444 700Q645 700 756 605.50Q867 511 867 350Q867 189 756 94.50Q645 0 444 0L98 0L98 700L444 700M435 82Q596 82 681.50 155Q767 228 767 350Q767 472 681.50 545Q596 618 435 618L198 618L198 82L435 82Z"  horiz-adv-x="919" vert-adv-y="1000"  />

      
      <glyph glyph-name="uni010F" unicode="&#x010F;" d="M610 414L610 736L704 736L704 0L618 0L618 124Q584 58 514.50 23Q445-12 352-12Q214-12 129.50 61Q45 134 45 262Q45 390 129.50 463Q214 536 352 536Q537 536 610 414M780 736L854 736L854 680L818 579L780 579L780 736M377 61Q486 61 550 116Q614 171 614 262Q614 353 550 408Q486 463 377 463Q267 463 203 408Q139 353 139 262Q139 171 203 116Q267 61 377 61Z"  horiz-adv-x="810" vert-adv-y="1000"  />

      
      <glyph glyph-name="uni0110" unicode="&#x0110;" d="M480 700Q681 700 792 605.50Q903 511 903 350Q903 189 792 94.50Q681 0 480 0L134 0L134 315L35 315L35 385L134 385L134 700L480 700M471 82Q631 82 717 155Q803 228 803 350Q803 472 717 545Q631 618 471 618L234 618L234 385L529 385L529 315L234 315L234 82L471 82Z"  horiz-adv-x="955" vert-adv-y="1000"  />

      
      <glyph glyph-name="uni0111" unicode="&#x0111;" d="M792 649L792 600L704 600L704 0L618 0L618 124Q584 58 514.50 23Q445-12 352-12Q214-12 129.50 61Q45 134 45 262Q45 390 129.50 463Q214 536 352 536Q537 536 610 414L610 600L335 600L335 649L610 649L610 736L704 736L704 649L792 649M377 61Q486 61 550 116Q614 171 614 262Q614 353 550 408Q486 463 377 463Q267 463 203 408Q139 353 139 262Q139 171 203 116Q267 61 377 61Z"  horiz-adv-x="804" vert-adv-y="1000"  />

      
      <glyph glyph-name="uni0112" unicode="&#x0112;" d="M196 774L196 841L610 841L610 774L196 774M98 0L98 700L736 700L736 621L198 621L198 394L626 394L626 318L198 318L198 79L757 79L757 0L98 0Z"  horiz-adv-x="806" vert-adv-y="1000"  />

      
      <glyph glyph-name="uni0113" unicode="&#x0113;" d="M571 692L571 628L192 628L192 692L571 692M705 247L705 235L140 235Q150 147 217 101Q284 55 392 55Q468 55 522.50 78Q577 101 602 140L693 136Q665 66 587.50 27Q510-12 392-12Q231-12 138 57.50Q45 127 45 262Q45 396 137.50 466Q230 536 382 536Q538 536 621.50 464.50Q705 393 705 247M382 469Q282 469 217.50 425Q153 381 141 296L611 296Q607 376 545.50 422.50Q484 469 382 469Z"  horiz-adv-x="748" vert-adv-y="1000"  />

      
      <glyph glyph-name="uni0116" unicode="&#x0116;" d="M350 764L350 863L456 863L456 764L350 764M98 0L98 700L736 700L736 621L198 621L198 394L626 394L626 318L198 318L198 79L757 79L757 0L98 0Z"  horiz-adv-x="806" vert-adv-y="1000"  />

      
      <glyph glyph-name="uni0117" unicode="&#x0117;" d="M432 723L432 608L332 608L332 723L432 723M705 247L705 235L140 235Q150 147 217 101Q284 55 392 55Q468 55 522.50 78Q577 101 602 140L693 136Q665 66 587.50 27Q510-12 392-12Q231-12 138 57.50Q45 127 45 262Q45 396 137.50 466Q230 536 382 536Q538 536 621.50 464.50Q705 393 705 247M382 469Q282 469 217.50 425Q153 381 141 296L611 296Q607 376 545.50 422.50Q484 469 382 469Z"  horiz-adv-x="748" vert-adv-y="1000"  />

      
      <glyph glyph-name="uni0118" unicode="&#x0118;" d="M726 0Q653-32 615-57.50Q577-83 577-115Q577-153 630-153Q693-153 705-103L750-112Q740-151 706-173.50Q672-196 619-196Q570-196 540.50-176.50Q511-157 511-121Q511-77 553-49Q595-21 667 0L98 0L98 700L736 700L736 621L198 621L198 394L626 394L626 318L198 318L198 79L757 79L757 0L726 0Z"  horiz-adv-x="806" vert-adv-y="1000"  />

      
      <glyph glyph-name="uni0119" unicode="&#x0119;" d="M705 247L705 235L140 235Q150 147 217 101Q284 55 392 55Q468 55 522.50 78Q577 101 602 140L693 136Q661 55 564 17Q465-29 424.50-56.50Q384-84 384-115Q384-153 436-153Q499-153 511-103L556-112Q546-152 512-174Q478-196 425-196Q376-196 346.50-176.50Q317-157 317-121Q317-52 441-10Q409-12 392-12Q231-12 138 57.50Q45 127 45 262Q45 396 137.50 466Q230 536 382 536Q538 536 621.50 464.50Q705 393 705 247M382 469Q282 469 217.50 425Q153 381 141 296L611 296Q607 376 545.50 422.50Q484 469 382 469Z"  horiz-adv-x="748" vert-adv-y="1000"  />

      
      <glyph glyph-name="uni011A" unicode="&#x011A;" d="M460 763L347 763L204 879L284 879L403 791L523 879L603 879L460 763M198 79L757 79L757 0L98 0L98 700L736 700L736 621L198 621L198 394L626 394L626 318L198 318L198 79Z"  horiz-adv-x="806" vert-adv-y="1000"  />

      
      <glyph glyph-name="uni011B" unicode="&#x011B;" d="M433 590L330 590L194 732L267 732L382 619L497 732L569 732L433 590M705 247L705 235L140 235Q150 147 217 101Q284 55 392 55Q468 55 522.50 78Q577 101 602 140L693 136Q665 66 587.50 27Q510-12 392-12Q231-12 138 57.50Q45 127 45 262Q45 396 137.50 466Q230 536 382 536Q538 536 621.50 464.50Q705 393 705 247M382 469Q282 469 217.50 425Q153 381 141 296L611 296Q607 376 545.50 422.50Q484 469 382 469Z"  horiz-adv-x="748" vert-adv-y="1000"  />

      
      <glyph glyph-name="uni011E" unicode="&#x011E;" d="M605 793Q605 793 581.50 776Q558 759 466 759Q374 759 327 793Q280 827 276 885L334 885Q344 816 466 816Q586 816 598 885L656 885Q652 827 605 793M486 359L859 359L859 54Q686-12 507-12Q290-12 171 86.50Q52 185 52 350Q52 512 161 612Q270 712 466 712Q617 712 718.50 654.50Q820 597 845 498L750 491Q727 555 649.50 592.50Q572 630 466 630Q317 630 234.50 551.50Q152 473 152 350Q152 226 245.50 148Q339 70 510 70Q646 70 767 108L767 290L486 290L486 359Z"  horiz-adv-x="916" vert-adv-y="1000"  />

      
      <glyph glyph-name="uni011F" unicode="&#x011F;" d="M396 593Q306 593 260 631Q214 669 211 732L268 732Q278 650 396 650Q513 650 523 732L580 732Q577 669 531 631Q485 593 396 593M612 524L699 524L699 72Q699-75 624.50-143.50Q550-212 387-212Q260-212 183.50-169Q107-126 94-41L186-41Q199-90 252-114.50Q305-139 387-139Q503-139 553.50-92Q604-45 604 47L604 128Q567 73 501.50 43.50Q436 14 352 14Q213 14 129 84.50Q45 155 45 275Q45 395 129 465.50Q213 536 352 536Q542 536 612 411L612 524M377 82Q485 82 549.50 135.50Q614 189 614 273Q614 356 549.50 409.50Q485 463 377 463Q269 463 204 409.50Q139 356 139 273Q139 189 203.50 135.50Q268 82 377 82Z"  horiz-adv-x="779" vert-adv-y="1000"  />

      
      <glyph glyph-name="uni0120" unicode="&#x0120;" d="M519 863L519 764L413 764L413 863L519 863M486 359L859 359L859 54Q686-12 507-12Q290-12 171 86.50Q52 185 52 350Q52 512 161 612Q270 712 466 712Q617 712 718.50 654.50Q820 597 845 498L750 491Q727 555 649.50 592.50Q572 630 466 630Q317 630 234.50 551.50Q152 473 152 350Q152 226 245.50 148Q339 70 510 70Q646 70 767 108L767 290L486 290L486 359Z"  horiz-adv-x="916" vert-adv-y="1000"  />

      
      <glyph glyph-name="uni0121" unicode="&#x0121;" d="M446 723L446 608L345 608L345 723L446 723M612 524L699 524L699 72Q699-75 624.50-143.50Q550-212 387-212Q260-212 183.50-169Q107-126 94-41L186-41Q199-90 252-114.50Q305-139 387-139Q503-139 553.50-92Q604-45 604 47L604 128Q567 73 501.50 43.50Q436 14 352 14Q213 14 129 84.50Q45 155 45 275Q45 395 129 465.50Q213 536 352 536Q542 536 612 411L612 524M377 82Q485 82 549.50 135.50Q614 189 614 273Q614 356 549.50 409.50Q485 463 377 463Q269 463 204 409.50Q139 356 139 273Q139 189 203.50 135.50Q268 82 377 82Z"  horiz-adv-x="779" vert-adv-y="1000"  />

      
      <glyph glyph-name="uni0122" unicode="&#x0122;" d="M486 359L859 359L859 54Q686-12 507-12Q290-12 171 86.50Q52 185 52 350Q52 512 161 612Q270 712 466 712Q617 712 718.50 654.50Q820 597 845 498L750 491Q727 555 649.50 592.50Q572 630 466 630Q317 630 234.50 551.50Q152 473 152 350Q152 226 245.50 148Q339 70 510 70Q646 70 767 108L767 290L486 290L486 359M413-217L413-53L503-53L503-113L457-217L413-217Z"  horiz-adv-x="916" vert-adv-y="1000"  />

      
      <glyph glyph-name="uni0123" unicode="&#x0123;" d="M440 779L440 615L351 615L351 675L396 779L440 779M612 524L699 524L699 72Q699-75 624.50-143.50Q550-212 387-212Q260-212 183.50-169Q107-126 94-41L186-41Q199-90 252-114.50Q305-139 387-139Q503-139 553.50-92Q604-45 604 47L604 128Q567 73 501.50 43.50Q436 14 352 14Q213 14 129 84.50Q45 155 45 275Q45 395 129 465.50Q213 536 352 536Q542 536 612 411L612 524M377 82Q485 82 549.50 135.50Q614 189 614 273Q614 356 549.50 409.50Q485 463 377 463Q269 463 204 409.50Q139 356 139 273Q139 189 203.50 135.50Q268 82 377 82Z"  horiz-adv-x="779" vert-adv-y="1000"  />

      
      <glyph glyph-name="uni0126" unicode="&#x0126;" d="M945 585L945 525L845 525L845 0L745 0L745 315L198 315L198 0L98 0L98 525L-2 525L-2 585L98 585L98 700L198 700L198 585L745 585L745 700L845 700L845 585L945 585M745 397L745 525L198 525L198 397L745 397Z"  horiz-adv-x="943" vert-adv-y="1000"  />

      
      <glyph glyph-name="uni0127" unicode="&#x0127;" d="M455 536Q576 536 642 477.50Q708 419 708 302L708 0L613 0L613 272Q613 458 426 458Q316 458 255.50 398Q195 338 195 235L195 0L100 0L100 600L12 600L12 649L100 649L100 736L195 736L195 649L470 649L470 600L195 600L195 402Q266 536 455 536Z"  horiz-adv-x="782" vert-adv-y="1000"  />

      
      <glyph glyph-name="uni012A" unicode="&#x012A;" d="M-29 774L-29 841L325 841L325 774L-29 774M98 0L98 700L198 700L198 0L98 0Z"  horiz-adv-x="296" vert-adv-y="1000"  />

      
      <glyph glyph-name="uni012B" unicode="&#x012B;" d="M-27 628L-27 690L282 690L282 628L-27 628M80 0L80 524L175 524L175 0L80 0Z"  horiz-adv-x="255" vert-adv-y="1000"  />

      
      <glyph glyph-name="uni012E" unicode="&#x012E;" d="M194-103L239-112Q229-151 196.50-173.50Q164-196 114-196Q68-196 39-176Q10-156 10-117Q10-42 138 0L98 0L98 700L198 700L198 0Q77-56 77-113Q77-153 126-153Q184-153 194-103Z"  horiz-adv-x="296" vert-adv-y="1000"  />

      
      <glyph glyph-name="uni012F" unicode="&#x012F;" d="M178 723L178 608L77 608L77 723L178 723M171-103L216-112Q206-151 173.50-173.50Q141-196 91-196Q44-196 15.50-176Q-13-156-13-117Q-13-42 115 0L80 0L80 524L175 524L175 0Q54-56 54-113Q54-153 102-153Q159-153 171-103Z"  horiz-adv-x="255" vert-adv-y="1000"  />

      
      <glyph glyph-name="uni0130" unicode="&#x0130;" d="M95 764L95 863L202 863L202 764L95 764M98 0L98 700L198 700L198 0L98 0Z"  horiz-adv-x="296" vert-adv-y="1000"  />

      
      <glyph glyph-name="uni0131" unicode="&#x0131;" d="M80 0L80 524L175 524L175 0L80 0Z"  horiz-adv-x="255" vert-adv-y="1000"  />

      
      <glyph glyph-name="uni0136" unicode="&#x0136;" d="M469 360L868 0L736 0L390 315L198 315L198 0L98 0L98 700L198 700L198 392L389 392L718 700L841 700L469 360M403-217L403-53L493-53L493-113L447-217L403-217Z"  horiz-adv-x="896" vert-adv-y="1000"  />

      
      <glyph glyph-name="uni0137" unicode="&#x0137;" d="M377 273L715 0L584 0L302 228L175 228L175 0L80 0L80 736L175 736L175 302L304 302L576 524L698 524L377 273M315-217L315-53L404-53L404-113L359-217L315-217Z"  horiz-adv-x="728" vert-adv-y="1000"  />

      
      <glyph glyph-name="uni0139" unicode="&#x0139;" d="M100 763L228 879L330 879L179 763L100 763M98 0L98 700L198 700L198 82L684 82L684 0L98 0Z"  horiz-adv-x="722" vert-adv-y="1000"  />

      
      <glyph glyph-name="uni013A" unicode="&#x013A;" d="M82 799L185 915L280 915L160 799L82 799M80 736L175 736L175 0L80 0L80 736Z"  horiz-adv-x="255" vert-adv-y="1000"  />

      
      <glyph glyph-name="uni013B" unicode="&#x013B;" d="M98 0L98 700L198 700L198 82L684 82L684 0L98 0M346-217L346-53L436-53L436-113L391-217L346-217Z"  horiz-adv-x="722" vert-adv-y="1000"  />

      
      <glyph glyph-name="uni013C" unicode="&#x013C;" d="M80 736L175 736L175 0L80 0L80 736M83-217L83-53L172-53L172-113L127-217L83-217Z"  horiz-adv-x="255" vert-adv-y="1000"  />

      
      <glyph glyph-name="uni013D" unicode="&#x013D;" d="M98 0L98 700L198 700L198 82L684 82L684 0L98 0M341 543L341 700L416 700L416 644L380 543L341 543Z"  horiz-adv-x="722" vert-adv-y="1000"  />

      
      <glyph glyph-name="uni013E" unicode="&#x013E;" d="M80 736L175 736L175 0L80 0L80 736M250 579L250 736L325 736L325 680L289 579L250 579Z"  horiz-adv-x="281" vert-adv-y="1000"  />

      
      <glyph glyph-name="uni013F" unicode="&#x013F;" d="M98 0L98 700L198 700L198 82L684 82L684 0L98 0M370 308L370 426L482 426L482 308L370 308Z"  horiz-adv-x="722" vert-adv-y="1000"  />

      
      <glyph glyph-name="uni0140" unicode="&#x0140;" d="M80 736L175 736L175 0L80 0L80 736M260 254L260 371L372 371L372 254L260 254Z"  horiz-adv-x="391" vert-adv-y="1000"  />

      
      <glyph glyph-name="uni0141" unicode="&#x0141;" d="M224 82L709 82L709 0L124 0L124 301L35 271L35 337L124 368L124 700L224 700L224 402L495 494L495 428L224 335L224 82Z"  horiz-adv-x="748" vert-adv-y="1000"  />

      
      <glyph glyph-name="uni0142" unicode="&#x0142;" d="M271 497L271 427L195 369L195 0L100 0L100 297L24 239L24 309L100 367L100 736L195 736L195 439L271 497Z"  horiz-adv-x="295" vert-adv-y="1000"  />

      
      <glyph glyph-name="uni0143" unicode="&#x0143;" d="M639 879L487 763L409 763L537 879L639 879M761 700L858 700L858 0L686 0L195 648L195 0L98 0L98 700L270 700L761 52L761 700Z"  horiz-adv-x="956" vert-adv-y="1000"  />

      
      <glyph glyph-name="uni0144" unicode="&#x0144;" d="M541 735L404 593L327 593L442 735L541 735M436 536Q557 536 622.50 477.50Q688 419 688 302L688 0L594 0L594 272Q594 458 407 458Q297 458 236 398Q175 338 175 235L175 0L80 0L80 524L167 524L167 385Q199 457 268 496.50Q337 536 436 536Z"  horiz-adv-x="762" vert-adv-y="1000"  />

      
      <glyph glyph-name="uni0145" unicode="&#x0145;" d="M761 700L858 700L858 0L686 0L195 648L195 0L98 0L98 700L270 700L761 52L761 700M434-217L434-53L523-53L523-113L478-217L434-217Z"  horiz-adv-x="956" vert-adv-y="1000"  />

      
      <glyph glyph-name="uni0146" unicode="&#x0146;" d="M436 536Q557 536 622.50 477.50Q688 419 688 302L688 0L594 0L594 272Q594 458 407 458Q297 458 236 398Q175 338 175 235L175 0L80 0L80 524L167 524L167 385Q199 457 268 496.50Q337 536 436 536M345-217L345-53L434-53L434-113L389-217L345-217Z"  horiz-adv-x="762" vert-adv-y="1000"  />

      
      <glyph glyph-name="uni0147" unicode="&#x0147;" d="M535 763L422 763L279 879L359 879L478 791L598 879L678 879L535 763M761 700L858 700L858 0L686 0L195 648L195 0L98 0L98 700L270 700L761 52L761 700Z"  horiz-adv-x="956" vert-adv-y="1000"  />

      
      <glyph glyph-name="uni0148" unicode="&#x0148;" d="M441 590L338 590L202 732L274 732L389 619L504 732L577 732L441 590M436 536Q557 536 622.50 477.50Q688 419 688 302L688 0L594 0L594 272Q594 458 407 458Q297 458 236 398Q175 338 175 235L175 0L80 0L80 524L167 524L167 385Q199 457 268 496.50Q337 536 436 536Z"  horiz-adv-x="762" vert-adv-y="1000"  />

      
      <glyph glyph-name="uni014A" unicode="&#x014A;" d="M761 700L858 700L858-38Q858-214 606-214Q571-214 513-210L513-131Q571-135 592-135Q761-135 761-30L761 0L686 0L195 647L195 0L98 0L98 700L270 700L761 54L761 700Z"  horiz-adv-x="956" vert-adv-y="1000"  />

      
      <glyph glyph-name="uni014B" unicode="&#x014B;" d="M436 536Q557 536 622.50 477.50Q688 419 688 302L688-61Q688-143 654-177.50Q620-212 546-212Q519-212 472-207L472-131Q496-134 514-134Q556-134 575-115Q594-96 594-40L594 272Q594 458 407 458Q297 458 236 398Q175 338 175 235L175 0L80 0L80 524L167 524L167 385Q199 457 268 496.50Q337 536 436 536Z"  horiz-adv-x="762" vert-adv-y="1000"  />

      
      <glyph glyph-name="uni014C" unicode="&#x014C;" d="M275 774L275 841L689 841L689 774L275 774M165 88.50Q165 88.50 108.50 138.75Q52 189 52 350Q52 511 165 611.50Q278 712 482 712Q686 712 799.50 611.50Q913 511 913 350Q913 189 799.50 88.50Q686-12 482-12Q278-12 165 88.50M238.50 551.50Q238.50 551.50 195.25 512.25Q152 473 152 350Q152 227 238.50 148.50Q325 70 482 70Q640 70 726.50 148.50Q813 227 813 350Q813 473 726.50 551.50Q640 630 482 630Q325 630 238.50 551.50Z"  horiz-adv-x="965" vert-adv-y="1000"  />

      
      <glyph glyph-name="uni014D" unicode="&#x014D;" d="M194 628L194 692L572 692L572 628L194 628M137 61Q137 61 91 97.50Q45 134 45 262Q45 390 137 463Q229 536 383 536Q537 536 629 463Q721 390 721 262Q721 134 629 61Q537-12 383-12Q229-12 137 61M205 408Q205 408 172 380.50Q139 353 139 262Q139 171 205 116Q271 61 383 61Q495 61 561 116Q627 171 627 262Q627 353 561 408Q495 463 383 463Q271 463 205 408Z"  horiz-adv-x="767" vert-adv-y="1000"  />

      
      <glyph glyph-name="uni0150" unicode="&#x0150;" d="M315 763L429 879L518 879L394 763L315 763M525 763L639 879L728 879L605 763L525 763M165 88.50Q165 88.50 108.50 138.75Q52 189 52 350Q52 511 165 611.50Q278 712 482 712Q686 712 799.50 611.50Q913 511 913 350Q913 189 799.50 88.50Q686-12 482-12Q278-12 165 88.50M238.50 551.50Q238.50 551.50 195.25 512.25Q152 473 152 350Q152 227 238.50 148.50Q325 70 482 70Q640 70 726.50 148.50Q813 227 813 350Q813 473 726.50 551.50Q640 630 482 630Q325 630 238.50 551.50Z"  horiz-adv-x="965" vert-adv-y="1000"  />

      
      <glyph glyph-name="uni0151" unicode="&#x0151;" d="M231 593L338 735L417 735L303 593L231 593M421 593L528 735L607 735L493 593L421 593M137 61Q137 61 91 97.50Q45 134 45 262Q45 390 137 463Q229 536 383 536Q537 536 629 463Q721 390 721 262Q721 134 629 61Q537-12 383-12Q229-12 137 61M205 408Q205 408 172 380.50Q139 353 139 262Q139 171 205 116Q271 61 383 61Q495 61 561 116Q627 171 627 262Q627 353 561 408Q495 463 383 463Q271 463 205 408Z"  horiz-adv-x="767" vert-adv-y="1000"  />

      
      <glyph glyph-name="uni0152" unicode="&#x0152;" d="M787 79L1346 79L1346 0L687 0L475 0Q274 0 163 94.50Q52 189 52 350Q52 511 163 605.50Q274 700 475 700L744 700L1325 700L1325 621L787 621L787 393L1215 393L1215 319L787 319L787 79M484 82L687 82L687 618L484 618Q323 618 237.50 545Q152 472 152 350Q152 228 237.50 155Q323 82 484 82Z"  horiz-adv-x="1396" vert-adv-y="1000"  />

      
      <glyph glyph-name="uni0153" unicode="&#x0153;" d="M1287 247L1287 235L722 235Q732 147 799 101Q866 55 974 55Q1050 55 1104.50 78Q1159 101 1184 140L1275 136Q1247 66 1170 27Q1093-12 977-12Q742-12 674 136Q639 64 563.50 26Q488-12 380-12Q228-12 136.50 61Q45 134 45 262Q45 390 136.50 463Q228 536 380 536Q488 536 563.50 497.50Q639 459 674 387Q708 461 784.50 498.50Q861 536 968 536Q1121 536 1204 464Q1287 392 1287 247M964 469Q864 469 799.50 425Q735 381 723 296L1193 296Q1189 376 1128 422.50Q1067 469 964 469M205 116Q205 116 238 88.50Q271 61 383 61Q495 61 561 116Q627 171 627 262Q627 353 561 408Q495 463 383 463Q271 463 205 408Q139 353 139 262Q139 171 205 116Z"  horiz-adv-x="1330" vert-adv-y="1000"  />

      
      <glyph glyph-name="uni0154" unicode="&#x0154;" d="M595 879L443 763L364 763L492 879L595 879M720 0L432 286L198 286L198 0L98 0L98 700L198 700L561 700Q675 700 743.50 645.50Q812 591 812 490Q812 389 745 337.50Q678 286 561 286L549 286L850 0L720 0M198 619L198 363L556 363Q627 363 669.50 396Q712 429 712 490Q712 552 669.50 585.50Q627 619 556 619L198 619Z"  horiz-adv-x="867" vert-adv-y="1000"  />

      
      <glyph glyph-name="uni0155" unicode="&#x0155;" d="M430 735L293 593L216 593L331 735L430 735M392 536Q426 536 473 529L473 444Q419 450 382 450Q175 450 175 206L175 0L80 0L81 524L168 524L168 385Q196 458 253.50 497Q311 536 392 536Z"  horiz-adv-x="511" vert-adv-y="1000"  />

      
      <glyph glyph-name="uni0156" unicode="&#x0156;" d="M549 286L850 0L720 0L432 286L198 286L198 0L98 0L98 700L198 700L561 700Q675 700 743.50 645.50Q812 591 812 490Q812 389 745 337.50Q678 286 561 286L549 286M198 619L198 363L556 363Q627 363 669.50 396Q712 429 712 490Q712 552 669.50 585.50Q627 619 556 619L198 619M389-217L389-53L479-53L479-113L433-217L389-217Z"  horiz-adv-x="867" vert-adv-y="1000"  />

      
      <glyph glyph-name="uni0157" unicode="&#x0157;" d="M392 536Q426 536 473 529L473 444Q419 450 382 450Q175 450 175 206L175 0L80 0L81 524L168 524L168 385Q196 458 253.50 497Q311 536 392 536M83-217L83-53L172-53L172-113L127-217L83-217Z"  horiz-adv-x="511" vert-adv-y="1000"  />

      
      <glyph glyph-name="uni0158" unicode="&#x0158;" d="M491 763L378 763L234 879L314 879L434 791L553 879L633 879L491 763M720 0L432 286L198 286L198 0L98 0L98 700L198 700L561 700Q675 700 743.50 645.50Q812 591 812 490Q812 389 745 337.50Q678 286 561 286L549 286L850 0L720 0M198 619L198 363L556 363Q627 363 669.50 396Q712 429 712 490Q712 552 669.50 585.50Q627 619 556 619L198 619Z"  horiz-adv-x="867" vert-adv-y="1000"  />

      
      <glyph glyph-name="uni0159" unicode="&#x0159;" d="M330 590L227 590L91 732L163 732L278 619L393 732L466 732L330 590M392 536Q426 536 473 529L473 444Q419 450 382 450Q175 450 175 206L175 0L80 0L81 524L168 524L168 385Q196 458 253.50 497Q311 536 392 536Z"  horiz-adv-x="511" vert-adv-y="1000"  />

      
      <glyph glyph-name="uni015A" unicode="&#x015A;" d="M339 763L467 879L569 879L418 763L339 763M133 217Q138 146 210.50 104.50Q283 63 414 63Q524 63 596.50 91Q669 119 669 178Q669 217 632.50 243.50Q596 270 514 288L286 340Q73 387 73 523Q73 617 162.50 664.50Q252 712 391 712Q541 712 635 658Q729 604 740 507L646 503Q639 562 570 599.50Q501 637 388 637Q292 637 232.50 608.50Q173 580 173 528Q173 450 323 417L542 370Q659 345 714 301.50Q769 258 769 185Q769 87 675 37.50Q581-12 414-12Q238-12 142.50 46Q47 104 38 214L133 217Z"  horiz-adv-x="816" vert-adv-y="1000"  />

      
      <glyph glyph-name="uni015B" unicode="&#x015B;" d="M270 593L384 735L483 735L346 593L270 593M520 378Q509 422 451 445.50Q393 469 306 469Q231 469 188.50 449.50Q146 430 146 395Q146 342 260 317L433 282Q530 262 577.50 228Q625 194 625 138Q625 64 549 26Q473-12 329-12Q48-12 29 149L117 152Q135 55 336 55Q428 55 479.50 75.50Q531 96 531 134Q531 161 500 180Q469 199 400 214L221 251Q51 286 51 392Q51 466 120.50 501Q190 536 311 536Q438 536 517.50 497.50Q597 459 609 381L520 378Z"  horiz-adv-x="663" vert-adv-y="1000"  />

      
      <glyph glyph-name="uni015E" unicode="&#x015E;" d="M414-12L410-12L372-62Q407-51 437-51Q478-51 511-69.50Q544-88 544-128Q544-169 507-189Q470-209 418-209Q367-209 332.50-191Q298-173 289-139L340-136Q352-169 412-169Q480-169 480-128Q480-108 461-97Q442-86 416-86Q390-86 355-97L309-80L362-11Q210-2 128 55Q46 112 38 214L133 217Q138 146 210.50 104.50Q283 63 414 63Q524 63 596.50 91Q669 119 669 178Q669 217 632.50 243.50Q596 270 514 288L286 340Q73 387 73 523Q73 617 162.50 664.50Q252 712 391 712Q541 712 635 658Q729 604 740 507L646 503Q639 562 570 599.50Q501 637 388 637Q292 637 232.50 608.50Q173 580 173 528Q173 450 323 417L542 370Q659 345 714 301.50Q769 258 769 185Q769 87 675 37.50Q581-12 414-12Z"  horiz-adv-x="816" vert-adv-y="1000"  />

      
      <glyph glyph-name="uni015F" unicode="&#x015F;" d="M625 138Q625 65 550.50 27Q476-11 334-12L296-62Q329-51 360-51Q401-51 434.50-69.50Q468-88 468-128Q468-170 430.50-189.50Q393-209 341-209Q290-209 255.50-191Q221-173 212-139L264-136Q274-169 335-169Q403-169 403-128Q403-107 384.50-96.50Q366-86 339-86Q312-86 279-97L232-80L285-11Q46 2 29 149L117 152Q135 55 336 55Q428 55 479.50 75.50Q531 96 531 134Q531 161 500 180Q469 199 400 214L221 251Q51 286 51 392Q51 466 120.50 501Q190 536 311 536Q438 536 517.50 497.50Q597 459 609 381L520 378Q509 422 451 445.50Q393 469 306 469Q231 469 188.50 449.50Q146 430 146 395Q146 342 260 317L433 282Q530 262 577.50 228Q625 194 625 138Z"  horiz-adv-x="663" vert-adv-y="1000"  />

      
      <glyph glyph-name="uni0160" unicode="&#x0160;" d="M465 763L352 763L209 879L289 879L409 791L528 879L608 879L465 763M542 370Q659 345 714 301.50Q769 258 769 185Q769 87 675 37.50Q581-12 414-12Q238-12 142.50 46Q47 104 38 214L133 217Q138 146 210.50 104.50Q283 63 414 63Q524 63 596.50 91Q669 119 669 178Q669 217 632.50 243.50Q596 270 514 288L286 340Q73 387 73 523Q73 617 162.50 664.50Q252 712 391 712Q541 712 635 658Q729 604 740 507L646 503Q639 562 570 599.50Q501 637 388 637Q292 637 232.50 608.50Q173 580 173 528Q173 450 323 417L542 370Z"  horiz-adv-x="816" vert-adv-y="1000"  />

      
      <glyph glyph-name="uni0161" unicode="&#x0161;" d="M383 590L280 590L144 732L217 732L332 619L447 732L519 732L383 590M433 282Q530 262 577.50 228Q625 194 625 138Q625 64 549 26Q473-12 329-12Q48-12 29 149L117 152Q135 55 336 55Q428 55 479.50 75.50Q531 96 531 134Q531 161 500 180Q469 199 400 214L221 251Q51 286 51 392Q51 466 120.50 501Q190 536 311 536Q438 536 517.50 497.50Q597 459 609 381L520 378Q509 422 451 445.50Q393 469 306 469Q231 469 188.50 449.50Q146 430 146 395Q146 342 260 317L433 282Z"  horiz-adv-x="663" vert-adv-y="1000"  />

      
      <glyph glyph-name="uni0162" unicode="&#x0162;" d="M443 0L410 0L363-62Q396-51 427-51Q468-51 501.50-69.50Q535-88 535-128Q535-169 498-189Q461-209 409-209Q358-209 323-191Q288-173 279-139L331-136Q342-169 402-169Q471-169 471-128Q471-108 452-97Q433-86 406-86Q381-86 346-97L300-80L360 0L343 0L343 618L29 618L29 700L757 700L757 618L443 618L443 0Z"  horiz-adv-x="786" vert-adv-y="1000"  />

      
      <glyph glyph-name="uni0163" unicode="&#x0163;" d="M357-51Q398-51 431.50-69.50Q465-88 465-128Q465-169 428-189Q391-209 339-209Q288-209 253.50-191Q219-173 209-139L261-136Q273-169 332-169Q401-169 401-128Q401-108 382-97Q363-86 337-86Q311-86 276-97L230-80L286-6Q227 6 202.50 45.50Q178 85 178 163L178 451L22 451L22 522L144 522Q167 522 176.50 530.50Q186 539 186 559L186 648L273 648L273 524L458 524L458 451L273 451L273 178Q273 114 293.50 90Q314 66 372 66Q404 66 458 73L458-4Q404-12 356-12Q339-12 332-11L293-62Q328-51 357-51Z"  horiz-adv-x="498" vert-adv-y="1000"  />

      
      <glyph glyph-name="uni0164" unicode="&#x0164;" d="M449 763L336 763L193 879L273 879L393 791L512 879L592 879L449 763M29 700L757 700L757 618L443 618L443 0L343 0L343 618L29 618L29 700Z"  horiz-adv-x="786" vert-adv-y="1000"  />

      
      <glyph glyph-name="uni0165" unicode="&#x0165;" d="M420 685L384 585L345 585L345 736L420 736L420 685M458 451L273 451L273 178Q273 114 293.50 90Q314 66 372 66Q404 66 458 73L458-4Q404-12 356-12Q256-12 217 27.50Q178 67 178 163L178 451L22 451L22 522L144 522Q167 522 176.50 530.50Q186 539 186 559L186 648L273 648L273 524L458 524L458 451Z"  horiz-adv-x="498" vert-adv-y="1000"  />

      
      <glyph glyph-name="uni0166" unicode="&#x0166;" d="M757 618L443 618L443 427L656 427L656 366L443 366L443 0L343 0L343 366L129 366L129 427L343 427L343 618L29 618L29 700L757 700L757 618Z"  horiz-adv-x="786" vert-adv-y="1000"  />

      
      <glyph glyph-name="uni0167" unicode="&#x0167;" d="M458 451L273 451L273 295L445 295L445 229L273 229L273 178Q273 114 293.50 90Q314 66 372 66Q404 66 458 73L458-4Q404-12 356-12Q256-12 217 27.50Q178 67 178 163L178 229L34 229L34 295L178 295L178 451L22 451L22 522L144 522Q167 522 176.50 530.50Q186 539 186 559L186 648L273 648L273 524L458 524L458 451Z"  horiz-adv-x="498" vert-adv-y="1000"  />

      
      <glyph glyph-name="uni016A" unicode="&#x016A;" d="M681 841L681 774L267 774L267 841L681 841M751 700L851 700L851 283Q851 142 756.50 65Q662-12 475-12Q287-12 192.50 65Q98 142 98 283L98 700L198 700L198 293Q198 184 267.50 127Q337 70 475 70Q612 70 681.50 127Q751 184 751 293L751 700Z"  horiz-adv-x="949" vert-adv-y="1000"  />

      
      <glyph glyph-name="uni016B" unicode="&#x016B;" d="M570 692L570 628L192 628L192 692L570 692M587 524L682 524L682 0L595 0L595 147Q563 71 494.50 29.50Q426-12 327-12Q207-12 140.50 49Q74 110 74 230L74 524L168 524L168 258Q168 66 356 66Q465 66 526 131.50Q587 197 587 302L587 524Z"  horiz-adv-x="762" vert-adv-y="1000"  />

      
      <glyph glyph-name="uni016E" unicode="&#x016E;" d="M571 771.50Q571 771.50 551.50 759.25Q532 747 474 747Q416 747 376.50 771.50Q337 796 337 842Q337 888 376.50 913Q416 938 474 938Q532 938 571 913Q610 888 610 842Q610 796 571 771.50M535 879.50Q535 879.50 523.50 886.25Q512 893 474 893Q436 893 413 879.50Q390 866 390 842Q390 818 413 805Q436 792 474 792Q512 792 535 805Q558 818 558 842Q558 866 535 879.50M751 700L851 700L851 283Q851 142 756.50 65Q662-12 475-12Q287-12 192.50 65Q98 142 98 283L98 700L198 700L198 293Q198 184 267.50 127Q337 70 475 70Q612 70 681.50 127Q751 184 751 293L751 700Z"  horiz-adv-x="949" vert-adv-y="1000"  />

      
      <glyph glyph-name="uni016F" unicode="&#x016F;" d="M479 614Q479 614 458.50 601.50Q438 589 381 589Q324 589 283 614Q242 639 242 686Q242 733 283 757.50Q324 782 381 782Q438 782 479 757.50Q520 733 520 686Q520 639 479 614M381 738Q345 738 321.50 724.50Q298 711 298 686Q298 661 321.50 647Q345 633 381 633Q418 633 441.50 647Q465 661 465 686Q465 711 441.50 724.50Q418 738 381 738M587 524L682 524L682 0L595 0L595 147Q563 71 494.50 29.50Q426-12 327-12Q207-12 140.50 49Q74 110 74 230L74 524L168 524L168 258Q168 66 356 66Q465 66 526 131.50Q587 197 587 302L587 524Z"  horiz-adv-x="762" vert-adv-y="1000"  />

      
      <glyph glyph-name="uni0170" unicode="&#x0170;" d="M510 879L387 763L307 763L421 879L510 879M721 879L597 763L517 763L631 879L721 879M751 700L851 700L851 283Q851 142 756.50 65Q662-12 475-12Q287-12 192.50 65Q98 142 98 283L98 700L198 700L198 293Q198 184 267.50 127Q337 70 475 70Q612 70 681.50 127Q751 184 751 293L751 700Z"  horiz-adv-x="949" vert-adv-y="1000"  />

      
      <glyph glyph-name="uni0171" unicode="&#x0171;" d="M415 735L301 593L229 593L336 735L415 735M605 735L491 593L419 593L526 735L605 735M587 524L682 524L682 0L595 0L595 147Q563 71 494.50 29.50Q426-12 327-12Q207-12 140.50 49Q74 110 74 230L74 524L168 524L168 258Q168 66 356 66Q465 66 526 131.50Q587 197 587 302L587 524Z"  horiz-adv-x="762" vert-adv-y="1000"  />

      
      <glyph glyph-name="uni0172" unicode="&#x0172;" d="M751 700L851 700L851 283Q851 169 788.50 96Q726 23 602-1Q531-31 493.50-57Q456-83 456-115Q456-153 508-153Q571-153 583-103L628-112Q618-151 584-173.50Q550-196 497-196Q448-196 418.50-176.50Q389-157 389-121Q389-53 509-11Q498-12 475-12Q287-12 192.50 65Q98 142 98 283L98 700L198 700L198 293Q198 184 267.50 127Q337 70 475 70Q612 70 681.50 127Q751 184 751 293L751 700Z"  horiz-adv-x="949" vert-adv-y="1000"  />

      
      <glyph glyph-name="uni0173" unicode="&#x0173;" d="M660-103L705-112Q682-196 574-196Q525-196 495-176.50Q465-157 465-121Q465-77 507-49Q549-21 621 0L595 0L595 147Q563 71 494.50 29.50Q426-12 327-12Q207-12 140.50 49Q74 110 74 230L74 524L168 524L168 258Q168 66 356 66Q465 66 526 131.50Q587 197 587 302L587 524L682 524L682 0L681 0Q608-31 570-57Q532-83 532-115Q532-153 585-153Q648-153 660-103Z"  horiz-adv-x="762" vert-adv-y="1000"  />

      
      <glyph glyph-name="uni0174" unicode="&#x0174;" d="M664 854L544 766L464 766L607 882L720 882L863 766L783 766L664 854M1192 700L1297 700L1035 0L885 0L664 636L441 0L291 0L31 700L139 700L370 64L593 700L737 700L959 64L1192 700Z"  horiz-adv-x="1328" vert-adv-y="1000"  />

      
      <glyph glyph-name="uni0175" unicode="&#x0175;" d="M585 705L471 593L398 593L534 735L637 735L773 593L700 593L585 705M1035 524L1138 524L903 0L767 0L584 477L400 0L260 0L27 524L134 524L333 60L518 524L654 524L835 66L1035 524Z"  horiz-adv-x="1165" vert-adv-y="1000"  />

      
      <glyph glyph-name="uni0176" unicode="&#x0176;" d="M448 854L329 766L249 766L392 882L505 882L648 766L568 766L448 854M757 700L876 700L498 287L498 0L398 0L398 287L20 700L143 700L450 356L757 700Z"  horiz-adv-x="897" vert-adv-y="1000"  />

      
      </font>
</defs>
</svg>
